<?xml version="1.0" encoding="UTF-8"?>
<svg id="Calque_1" data-name="Calque 1" xmlns="http://www.w3.org/2000/svg" viewBox="0 0 330.32 177.36">
  <defs>
    <style>
      .cls-1, .cls-2, .cls-3, .cls-4, .cls-5, .cls-6 {
        stroke-width: 0px;
      }

      .cls-2 {
        fill: #2c2d2d;
      }

      .cls-3 {
        fill: #898b8c;
      }

      .cls-4 {
        fill: #2b2b2b;
      }

      .cls-5 {
        fill: #4e5051;
      }

      .cls-6 {
        fill: #464a4c;
      }
    </style>
  </defs>
  <polygon class="cls-5" points="100.38 143.9 90.92 143.9 90.92 146.01 94.6 146.01 94.6 159.35 96.69 159.35 96.69 146.01 100.38 146.01 100.38 143.9"/>
  <path class="cls-5" d="m121.94,143.92v9.15c-.05,4.11,2.08,6.78,6.06,6.81,3.65.04,5.98-2.6,5.93-6.23v-9.72h-2.11v9.87c.02,2.5-1.4,4.06-3.9,4.05-2.64,0-3.9-1.8-3.88-4.42v-9.5h-2.11Z"/>
  <polygon class="cls-5" points="167.59 155.03 156.16 143.28 156.16 159.35 158.27 159.35 158.27 148.37 169.7 160.07 169.7 143.9 167.59 143.9 167.59 155.03"/>
  <rect class="cls-5" x="192.08" y="143.9" width="2.09" height="15.46"/>
  <path class="cls-5" d="m224.22,151.04c-.89-.67-3.64-1.62-4.43-2.37-1.59-1.43.12-3.23,1.93-3.08,1.43,0,1.85.44,2.82,1.4l1.71-1.37c-2.36-3.37-9.17-2.85-9.3,1.79-.01,1.49.96,2.77,2.2,3.57,1.36.92,4.04,1.42,4.89,2.96,1.16,1.7-.33,3.8-2.28,3.7-1.59,0-2.76-.87-3.53-2.61l-2.11.6c.98,2.66,2.96,4.24,5.71,4.24,4.93,0,6.57-6.29,2.38-8.83Z"/>
  <rect class="cls-5" x="248.47" y="143.9" width="2.09" height="15.46"/>
  <path class="cls-5" d="m282.27,155.4l1.79,3.96h2.21l-7.3-16.05-7.24,16.05h2.2l1.77-3.96h6.56Zm-3.3-7.27l2.5,5.51h-4.97l2.47-5.51Z"/>
  <polygon class="cls-5" points="320.9 143.9 318.79 143.9 318.79 155.03 307.36 143.28 307.36 159.35 309.47 159.35 309.47 148.37 320.9 160.07 320.9 143.9"/>
  <polygon class="cls-5" points="50.35 172.22 50.35 172.22 50.35 172.22 50.35 172.22"/>
  <path class="cls-5" d="m2.46,121.02l47.89,51.19c-.56-1.75-1.16-3.48-1.77-5.21-.02-.06-.04-.12-.07-.19-.62-1.73-1.26-3.44-1.93-5.14-.62-1.56-1.25-3.1-1.91-4.64-.03-.08-.07-.15-.1-.23-1.29-3.02-2.66-6-4.09-8.95-.1-.2-.19-.39-.29-.59-.69-1.41-1.4-2.82-2.13-4.21-.59-1.14-1.19-2.28-1.81-3.42,0,0,0,0,0,0-.61-1.13-1.24-2.26-1.87-3.37-1.02-1.82-2.06-3.61-3.13-5.38-.93-1.56-1.9-3.13-2.86-4.65-.04-.05-.07-.11-.11-.16-.7-1.11-1.41-2.21-2.13-3.3-.06-.09-.12-.18-.17-.26-.72-1.09-1.45-2.18-2.19-3.27-.84-1.24-1.69-2.46-2.54-3.66-1.18-1.66-2.4-3.34-3.61-4.95-.06-.07-.12-.16-.18-.23-.35-.46-.68-.9-1-1.32-.68-.88-1.33-1.74-2.01-2.58-.22-.27-.42-.53-.61-.77-.04-.05-.08-.1-.12-.15-.46-.58-.86-1.07-1.2-1.47-.04-.06-.08-.1-.12-.15-.11-.14-.22-.27-.32-.39-.11-.14-.25-.3-.34-.41-.02-.02-.04-.05-.05-.06-.07-.08-.12-.15-.16-.19,0,0,0-.01-.01-.01l-9.04,18.15Z"/>
  <path class="cls-2" d="m54.62,170.84s0,0,0,0l-.02.13h0s.01-.09.02-.13Z"/>
  <path class="cls-2" d="m11.73,103.14c.09.11.24.27.34.41.1.11.21.25.32.39.04.05.08.09.12.15.33.4.73.89,1.2,1.47.04.05.08.1.12.15.19.25.39.5.61.77.68.85,1.34,1.71,2.01,2.58.32.42.65.87,1,1.32.06.07.12.16.18.23,1.22,1.62,2.43,3.29,3.61,4.95.85,1.2,1.7,2.42,2.54,3.66.74,1.09,1.47,2.17,2.19,3.27.06.09.12.18.17.26.72,1.09,1.43,2.19,2.13,3.3.04.05.07.11.11.16.96,1.52,1.93,3.09,2.86,4.65,1.07,1.78,2.11,3.56,3.13,5.38.64,1.11,1.26,2.24,1.87,3.37,0,0,0,0,0,0,.61,1.13,1.21,2.27,1.81,3.42.73,1.4,1.44,2.8,2.13,4.21.1.2.19.39.29.59,1.44,2.95,2.8,5.93,4.09,8.95.03.08.07.15.1.23.65,1.54,1.29,3.08,1.91,4.64.67,1.7,1.31,3.42,1.93,5.14.02.06.04.12.07.19.62,1.73,1.21,3.46,1.77,5.21h0s0,0,0,0h0l4-1.18-.44-2.32c-.94-2.79-1.94-5.57-3.01-8.31-3.88-9.81-8.57-19.25-13.88-28.34-1.47-2.5-2.97-5.01-4.53-7.44-.55-.88-1.1-1.72-1.65-2.58-2.88-4.41-5.9-8.75-9.06-12.94-.42-.57-.82-1.08-1.22-1.61-.34-.43-.65-.85-.98-1.26-.46-.6-.93-1.18-1.39-1.75-.05-.07-.11-.14-.17-.21-.23-.29-.44-.55-.64-.8-.34-.41-.67-.81-.99-1.2-.03-.04-.06-.08-.1-.12-.1-.12-.19-.22-.26-.31,0,0-.01-.02-.02-.03-.08-.09-.15-.17-.19-.22l-4.32,1.27s0,.01.01.01c.04.05.09.11.16.19.02.02.04.04.05.06Z"/>
  <polygon class="cls-2" points="62.68 76.99 45.64 59.88 41.32 61.15 58.37 78.27 62.68 76.99"/>
  <path class="cls-2" d="m59.85,84.4c.03.15.07.3.11.46,0,.02,0,.04.01.06.92,4.27,1.65,8.55,2.22,12.79,0,.06.02.11.02.17.58,4.32,1,8.58,1.28,12.72.01.22.03.43.04.65.08,1.25.15,2.48.21,3.71,0,.14.01.28.02.43.14,2.95.21,5.81.23,8.58,0,.22,0,.43,0,.65,0,1.48,0,2.94-.01,4.36,0,.08,0,.15,0,.23-.04,3.29-.15,6.38-.29,9.24,0,0,0,.01,0,.02,0,.04,0,.09,0,.13-.09,1.74-.19,3.39-.3,4.94,0,.07,0,.15-.02.22-.2,2.77-.42,5.2-.63,7.25-.02.15-.03.31-.05.46-.1.97-.2,1.84-.29,2.62-.01.11-.02.21-.04.32-.05.37-.09.73-.13,1.06-.07.55-.13,1.02-.19,1.41-.02.17-.05.34-.07.5-.03.15-.05.29-.06.4,0,.02,0,.03,0,.05-.01.07-.02.11-.02.16,0,.06-.02.12-.02.16,3.13-7.98,5.11-17.13,6.35-26.12.13-4.5.15-9.01.03-13.52,0-.14,0-.28,0-.43-.07-2.3-.18-4.66-.31-6.98-.32-5.41-.87-10.82-1.63-16.21-.88-6.02-2.05-12-3.61-17.89l-4.31,1.28c.54,2.04,1.03,4.09,1.48,6.14Z"/>
  <path class="cls-5" d="m59.58,170.12l23.4-33.83,14.33-20.72-.13-.12-27.39-26.52c.12,1.91,1.31,22.03-1.59,43.09-1.24,8.99-3.21,18.14-6.35,26.12,0-.03.02-.1.02-.16,0-.05.01-.09.02-.16.03-.22.08-.56.13-.95.05-.39.12-.85.19-1.41.05-.41.11-.88.17-1.38.09-.78.19-1.65.29-2.62.02-.15.03-.31.05-.46.21-2.05.43-4.48.63-7.25,0-.07.01-.15.02-.22.11-1.55.21-3.2.3-4.94,0-.05,0-.1,0-.15.14-2.86.25-5.96.29-9.24,0-.08,0-.15,0-.23.02-1.42.02-2.87.01-4.36,0-.22,0-.43,0-.65-.02-2.77-.1-5.63-.23-8.58,0-.14-.01-.28-.02-.43-.06-1.22-.13-2.46-.21-3.71-.01-.22-.03-.43-.04-.65-.28-4.14-.7-8.4-1.28-12.72,0-.06-.02-.11-.02-.17-.57-4.23-1.3-8.51-2.22-12.79-.04-.17-.08-.35-.12-.52-.45-2.05-.94-4.1-1.48-6.14,0,0,0,0,0,0l-17.05-17.11-5.55,9.61c1.25,1.75,25.08,35,23.81,99.36Z"/>
  <path class="cls-5" d="m69.79,88.85s0,.06,0,.08l.06-.02-.06-.06Z"/>
  <polygon class="cls-5" points="59.58 170.12 59.58 170.12 59.58 170.12 59.58 170.12"/>
  <polygon class="cls-2" points="97.31 115.57 97.31 115.57 99.27 114.99 101.63 114.3 74.11 87.57 69.85 88.91 69.8 88.93 69.79 88.93 69.8 88.93 97.19 115.45 97.31 115.57"/>
  <polygon class="cls-2" points="97.31 115.57 82.98 136.29 59.58 170.12 59.58 170.12 59.58 170.12 59.58 170.12 63.89 168.85 101.63 114.3 99.27 114.99 97.31 115.57 97.31 115.57"/>
  <path class="cls-6" d="m27.73,78.67s.02.03.02.04l.07.13h0c-.03-.06-.06-.11-.1-.17l-6.89,15.3h0s6.89-15.3,6.89-15.3Z"/>
  <path class="cls-6" d="m51.03,133.44s0-.02,0-.04l.8,3.2s0-.03,0-.04c-.25-1.02-.5-2.06-.78-3.13Z"/>
  <path class="cls-6" d="m54.41,150.81l.07.56s0-.07-.01-.1c-.02-.15-.04-.31-.06-.46Z"/>
  <path class="cls-6" d="m55.1,158.8c-.02-.49-.05-1-.08-1.52l.08,1.52Z"/>
  <path class="cls-6" d="m55.18,161.82v.36s0-.07,0-.1c0-.09,0-.18,0-.26Z"/>
  <path class="cls-6" d="m54.66,153c0-.05-.01-.11-.02-.16l.14,1.42c0-.06,0-.11-.01-.17-.03-.35-.07-.72-.11-1.09Z"/>
  <path class="cls-6" d="m27.73,78.87l3.03,5.38,1.17,2.19c-.39-.72-.76-1.44-1.16-2.17-.97-1.77-1.99-3.57-3.04-5.4l.1-.03-.07-.13s-.02-.03-.02-.04l-6.89,15.3h0s.05.07.06.09l6.82-15.19Z"/>
  <path class="cls-6" d="m50.61,131.87l.38,1.37s-.03-.09-.04-.14c-.11-.4-.23-.82-.34-1.23Z"/>
  <path class="cls-6" d="m48.96,126.16s-.03-.1-.05-.15l1.04,3.46s0,0,0-.01c-.31-1.08-.64-2.18-.99-3.3Z"/>
  <path class="cls-6" d="m54.91,155.76c0-.05,0-.11-.01-.16l.09,1.16s0-.05,0-.08c-.02-.3-.05-.61-.07-.92Z"/>
  <path class="cls-6" d="m42.93,109.52s-.03-.07-.04-.1l1.42,3.53c-.04-.11-.08-.21-.12-.32-.41-1.02-.82-2.06-1.25-3.11Z"/>
  <path class="cls-6" d="m33.58,89.52s0,0,0-.01l2.07,4.07c-.25-.49-.5-.99-.75-1.48-.44-.86-.86-1.71-1.31-2.58Z"/>
  <path class="cls-6" d="m36.16,94.6l1.12,2.32c-.36-.76-.72-1.52-1.1-2.29,0,0-.01-.02-.02-.03Z"/>
  <path class="cls-6" d="m47.98,123.14l.74,2.28c-.03-.09-.06-.18-.08-.27-.21-.66-.43-1.34-.66-2.01Z"/>
  <path class="cls-6" d="m44.54,113.54l.49,1.3c-.16-.42-.31-.82-.47-1.25,0-.02-.02-.04-.02-.06Z"/>
  <polygon class="cls-4" points="54.47 171.7 54.47 171.7 54.47 171.7 54.47 171.7"/>
  <path class="cls-4" d="m27.82,78.84l-.1.03c1.05,1.83,2.07,3.63,3.04,5.4.4.73.77,1.45,1.16,2.17l1.63,3.04.02.03s0,0,0,.01c.46.87.88,1.72,1.31,2.58.25.49.5.99.75,1.48l.5.97.02.04s.01.02.02.03c.39.77.74,1.53,1.1,2.29l1.24,2.57,2.18,4.78,1.98,4.62.21.53s.03.07.04.1c.43,1.05.85,2.09,1.25,3.11.04.1.08.21.12.32l.17.41.07.18s.02.04.02.06c.16.42.31.83.47,1.25l1.07,2.82,1.46,4.15.43,1.32c.22.68.45,1.35.66,2.01.03.09.06.18.08.27l.13.4.06.19s.03.1.05.15c.34,1.12.68,2.22.99,3.3,0,0,0,0,0,.01l.06.19.6,2.2c.11.41.23.83.34,1.23.01.05.02.09.04.14l.03.11v.05s.02.02.02.04c.28,1.07.53,2.11.78,3.13,0,.01,0,.03,0,.04l.07.27.75,3.35.63,3.2.53,3.03.43,2.87.18,1.49c.02.15.04.31.06.46,0,.03,0,.07.01.1l.08.65.08.82c0,.05.01.11.02.16.04.36.08.73.11,1.09,0,.06,0,.11.01.17l.03.29.08,1.06c0,.05,0,.11.01.16.02.31.05.62.07.92,0,.03,0,.05,0,.08v.15s.03.37.03.37c.03.52.06,1.03.08,1.52l.02.3.06,2.02v.7c0,.09,0,.17,0,.26,0,.03,0,.07,0,.1v.73s0,.07,0,.07v.59c-.01.19-.02.37-.02.56,0,.1,0,.18,0,.27v.24s-.02.38-.02.38c0,.08,0,.17,0,.25,0,.24-.02.49-.03.72,0,0,0,.02,0,.03v.13s-.08,1.06-.08,1.06c0,.04,0,.08,0,.11,0,.07,0,.14-.01.21-.03.38-.06.74-.09,1.06,0,.05-.01.09-.02.14-.03.28-.06.53-.08.77,0,.02,0,.04,0,.06v.04s-.06.39-.06.39c-.02.12-.03.26-.05.37,0,.01,0,.03,0,.04-.02.16-.05.29-.07.43,0,.04-.01.09-.02.12,0,.01,0,.03,0,.04,0,.01,0,.03,0,.04-.03.15-.05.29-.07.39,0,0,0,0,0,.01l-.05.25,4.23-1.22s.02-.1.03-.17c.01-.06.02-.12.03-.19,0-.02,0-.03.01-.06,0-.03.01-.06.01-.09.01-.07.02-.14.04-.23.03-.16.05-.33.09-.53,0-.05,0-.1.02-.15.02-.17.05-.35.07-.55,0-.09.02-.18.04-.27.02-.19.05-.4.07-.62.01-.09.02-.18.03-.28.03-.3.06-.63.08-.97,0-.12.02-.25.03-.38.02-.25.03-.52.05-.79.01-.16.02-.32.03-.49,0-.09.01-.17.02-.26,0-.1,0-.21,0-.31.02-.41.03-.82.04-1.26,0-.21,0-.42.01-.64,0-.45,0-.93,0-1.42,0-.22,0-.43,0-.65,0-.69-.03-1.4-.06-2.15,0-.04,0-.07,0-.11-.03-.79-.08-1.63-.14-2.49,0-.06,0-.11,0-.18-.01-.19-.04-.39-.05-.58-.05-.6-.09-1.21-.15-1.84-.03-.32-.06-.66-.1-1-.06-.6-.13-1.21-.2-1.83-.04-.37-.09-.73-.14-1.11-.08-.64-.18-1.3-.27-1.97-.06-.37-.11-.75-.17-1.13-.11-.74-.25-1.51-.38-2.28-.04-.27-.08-.52-.13-.79-.02-.1-.04-.2-.06-.3-.03-.2-.07-.4-.11-.6-.16-.81-.32-1.65-.5-2.5-.03-.14-.06-.28-.09-.42-.2-.94-.42-1.9-.65-2.89-.06-.23-.11-.47-.17-.71-.24-1-.49-2.01-.76-3.06-.04-.14-.08-.28-.11-.42-.26-.97-.53-1.96-.81-2.96-.06-.21-.12-.41-.18-.63-.26-.91-.53-1.83-.82-2.76-.05-.17-.11-.34-.16-.5-.11-.35-.23-.71-.34-1.06-.27-.86-.56-1.73-.85-2.62-.13-.4-.27-.8-.4-1.2-.33-.97-.68-1.96-1.04-2.96-.1-.29-.2-.56-.31-.85-.46-1.27-.95-2.56-1.46-3.88-.13-.34-.27-.69-.4-1.03-.4-1-.8-2.01-1.22-3.04l-1.87-4.39c-.18-.42-.36-.84-.55-1.26-.61-1.38-1.24-2.77-1.9-4.19-.01-.03-.03-.07-.05-.09-.47-1-.97-2.04-1.47-3.05-.31-.64-.6-1.26-.92-1.9-.52-1.05-1.08-2.13-1.63-3.21-.33-.64-.63-1.26-.97-1.91-.61-1.17-1.26-2.37-1.91-3.57-.3-.57-.59-1.12-.91-1.69-.97-1.78-1.99-3.58-3.05-5.41l-4.13,1.2h0Z"/>
  <polygon class="cls-3" points="54.47 171.7 54.47 171.7 54.47 171.7 54.47 171.7 54.52 171.45 54.52 171.45 54.59 171.02 54.6 170.96 54.62 170.83 54.69 170.4 54.74 170 54.8 169.61 54.8 169.57 54.9 168.63 55 167.48 55.02 167.22 55.09 166.15 55.09 166.02 55.13 165.03 55.15 164.65 55.15 164.41 55.17 163.58 55.18 162.99 55.18 162.91 55.18 162.18 55.18 161.82 55.17 161.12 55.12 159.1 55.1 158.8 55.02 157.28 55 156.91 54.99 156.76 54.9 155.61 54.82 154.54 54.79 154.25 54.64 152.83 54.56 152.02 54.48 151.37 54.41 150.81 54.23 149.32 53.8 146.45 53.27 143.42 52.64 140.22 51.89 136.87 51.82 136.6 51.02 133.4 51.01 133.35 50.98 133.24 50.61 131.87 50 129.67 49.95 129.48 48.91 126.02 48.85 125.82 48.72 125.42 47.98 123.14 47.55 121.82 46.1 117.67 45.03 114.84 44.54 113.54 44.47 113.36 44.31 112.94 42.88 109.41 42.67 108.89 40.69 104.26 38.52 99.49 37.28 96.92 36.16 94.6 36.14 94.56 35.65 93.58 33.57 89.51 33.56 89.48 31.93 86.44 30.75 84.25 27.73 78.87 20.9 94.06 20.84 94.2 21.03 94.49 21.36 94.97 21.82 95.64 22.39 96.5 23.07 97.54 23.86 98.75 24.73 100.14 25.7 101.68 26.74 103.39 27.86 105.24 29.04 107.23 30.27 109.36 31.55 111.63 32.87 114.02 34.22 116.53 35.6 119.15 36.99 121.88 38.39 124.72 39.79 127.64 41.18 130.67 42.56 133.77 43.92 136.95 45.24 140.2 46.53 143.52 47.76 146.9 48.95 150.33 50.07 153.81 51.12 157.33 52.09 160.89 52.98 164.47 53.78 168.08 53.9 168.71 54.35 171.04 54.47 171.7"/>
  <polygon class="cls-1" points="91.12 85.74 103.92 85.74 103.92 132.33 111.19 132.33 111.19 85.74 124.03 85.74 124.03 78.37 91.12 78.37 91.12 85.74"/>
  <polygon class="cls-1" points="131.72 132.33 161.55 132.33 161.55 125.04 138.99 125.04 138.99 106.49 161.55 106.49 161.55 99.21 138.99 99.21 138.99 85.74 161.55 85.74 161.55 78.37 131.72 78.37 131.72 132.33"/>
  <path class="cls-1" d="m194.12,123.95c-1.77,1.61-4,2.41-6.68,2.41-5.52,0-9.62-3.03-12.29-9.1l-7.35,2.07c1.86,4.94,4.51,8.65,7.96,11.12,3.45,2.47,7.43,3.71,11.94,3.71s8.55-1.58,11.81-4.74c3.25-3.16,4.88-6.98,4.88-11.47,0-1.92-.3-3.74-.91-5.46-.6-1.72-1.52-3.36-2.76-4.91-1.24-1.55-2.82-2.97-4.74-4.25-1.93-1.29-4.62-2.67-8.08-4.16-3.46-1.49-5.91-2.86-7.34-4.11-1.43-1.25-2.15-2.7-2.15-4.33,0-1.89.82-3.43,2.46-4.62,1.64-1.2,3.79-1.79,6.43-1.79,2.42,0,4.26.4,5.54,1.21,1.28.8,2.71,2.03,4.28,3.66l5.96-4.78c-2-2.6-4.51-4.53-7.52-5.8-3.01-1.27-5.99-1.91-8.91-1.91-4.42,0-8.18,1.36-11.28,4.09-3.1,2.72-4.65,6.02-4.65,9.88,0,1.61.27,3.12.83,4.53.55,1.41,1.42,2.83,2.61,4.25,1.19,1.43,2.59,2.65,4.22,3.68,1.63,1.03,3.94,2.16,6.96,3.4,3.01,1.24,5.21,2.34,6.59,3.29,1.38.96,2.54,2.18,3.47,3.65.93,1.48,1.4,2.95,1.4,4.41,0,2.45-.89,4.48-2.66,6.08Z"/>
  <path class="cls-1" d="m219.62,85.06c-5.82,5.59-8.72,12.3-8.72,20.14s2.96,14.81,8.87,20.46c5.91,5.66,13.04,8.49,21.38,8.49,5.69,0,10.97-1.3,15.85-3.89v-8.43c-5.35,3.02-10.42,4.53-15.21,4.53-6.59,0-12.08-2.01-16.46-6.03-4.38-4.02-6.57-9.03-6.57-15.04s2.14-10.87,6.42-14.91c4.28-4.05,9.55-6.07,15.8-6.07,4.87,0,10.21,1.43,16.01,4.28v-8.34c-5.64-2.37-11.09-3.56-16.35-3.56-8.19,0-15.2,2.79-21.02,8.38Z"/>
  <path class="cls-1" d="m314.15,85.08c-5.8-5.6-12.72-8.4-20.74-8.4s-15.27,2.78-21.12,8.34c-5.86,5.56-8.79,12.23-8.79,20.02s2.89,14.94,8.66,20.61c5.77,5.67,12.77,8.51,21,8.51s15.37-2.81,21.1-8.44c5.73-5.63,8.6-12.52,8.6-20.67,0-7.7-2.9-14.35-8.7-19.95Zm-5.43,35.12c-4.21,4.16-9.22,6.24-15.02,6.24-6.31,0-11.64-2.04-15.99-6.11-4.35-4.08-6.53-9.06-6.53-14.96s2.12-10.79,6.36-14.94c4.24-4.15,9.33-6.22,15.27-6.22,6.25,0,11.52,2.04,15.8,6.11,4.28,4.08,6.42,9.09,6.42,15.04s-2.11,10.67-6.32,14.83Z"/>
  <polygon class="cls-1" points="98.97 166.74 98.97 165.44 93.73 165.44 93.73 174.92 98.97 174.92 98.97 173.64 95.01 173.64 95.01 170.38 98.97 170.38 98.97 169.1 95.01 169.1 95.01 166.74 98.97 166.74"/>
  <polygon class="cls-1" points="100.8 165.07 100.8 174.92 102.09 174.92 102.09 168.19 109.07 175.35 109.07 165.44 107.78 165.44 107.78 172.26 100.8 165.07"/>
  <path class="cls-1" d="m116.21,166.49c1.27,0,2.38.47,3.35,1.42l.96-.94c-.73-.7-1.44-1.18-2.13-1.43-.7-.25-1.46-.38-2.3-.38-1.41,0-2.62.49-3.61,1.47-.99.98-1.49,2.16-1.49,3.55s.49,2.5,1.46,3.53c.97,1.03,2.27,1.54,3.9,1.54.72,0,1.33-.08,1.85-.24.52-.16,1-.42,1.45-.79.45-.37.81-.79,1.09-1.25.27-.47.45-.89.54-1.28.08-.39.13-.9.13-1.55h-4.03v1.29h2.55c-.48,1.64-1.67,2.46-3.55,2.46-1.26,0-2.24-.38-2.96-1.12-.71-.75-1.07-1.59-1.07-2.53,0-1.07.37-1.96,1.1-2.67.74-.71,1.66-1.07,2.77-1.07Z"/>
  <rect class="cls-1" x="123.45" y="165.44" width="1.27" height="9.47"/>
  <polygon class="cls-1" points="127.11 165.07 127.11 174.92 128.4 174.92 128.4 168.19 135.38 175.35 135.38 165.44 134.09 165.44 134.09 172.26 127.11 165.07"/>
  <polygon class="cls-1" points="142.82 166.74 142.82 165.44 137.59 165.44 137.59 174.92 142.82 174.92 142.82 173.64 138.86 173.64 138.86 170.38 142.82 170.38 142.82 169.1 138.86 169.1 138.86 166.74 142.82 166.74"/>
  <polygon class="cls-1" points="149.86 166.74 149.86 165.44 144.62 165.44 144.62 174.92 149.86 174.92 149.86 173.64 145.9 173.64 145.9 170.38 149.86 170.38 149.86 169.1 145.9 169.1 145.9 166.74 149.86 166.74"/>
  <path class="cls-1" d="m157.45,168.16c0-.79-.32-1.44-.96-1.95-.64-.51-1.47-.76-2.49-.76h-2.05v9.47h1.29v-3.9h.29l2.62,3.9h1.48l-2.75-4.05c.88-.2,1.52-.54,1.94-1.03.41-.48.62-1.05.62-1.68Zm-4.2,1.73v-3.3c.72,0,1.26.04,1.63.14.37.09.67.26.89.52.22.26.33.58.33.98,0,1.15-.95,1.7-2.85,1.66Z"/>
  <rect class="cls-1" x="159.71" y="165.44" width="1.28" height="9.47"/>
  <polygon class="cls-1" points="163.37 165.07 163.37 174.92 164.66 174.92 164.66 168.19 171.64 175.35 171.64 165.44 170.35 165.44 170.35 172.26 163.37 165.07"/>
  <path class="cls-1" d="m178.78,166.49c1.27,0,2.38.47,3.35,1.42l.96-.94c-.73-.7-1.44-1.18-2.13-1.43-.7-.25-1.46-.38-2.3-.38-1.41,0-2.62.49-3.61,1.47-.99.98-1.49,2.16-1.49,3.55s.49,2.5,1.46,3.53c.97,1.03,2.27,1.54,3.9,1.54.72,0,1.33-.08,1.85-.24.52-.16,1-.42,1.45-.79.45-.37.81-.79,1.09-1.25.27-.47.45-.89.54-1.28.09-.39.13-.9.13-1.55h-4.03v1.29h2.55c-.48,1.64-1.67,2.46-3.55,2.46-1.26,0-2.24-.38-2.96-1.12-.72-.75-1.07-1.59-1.07-2.53,0-1.07.37-1.96,1.1-2.67.74-.71,1.66-1.07,2.77-1.07Z"/>
  <path class="cls-1" d="m193.64,173.87c-.97,0-1.69-.53-2.16-1.6l-1.29.36c.33.87.79,1.52,1.4,1.95.61.44,1.31.65,2.1.65s1.5-.28,2.07-.83c.57-.55.86-1.22.86-2.01,0-.34-.05-.66-.16-.96-.11-.3-.27-.59-.49-.86-.22-.27-.49-.52-.83-.75-.34-.22-.81-.47-1.42-.73-.61-.26-1.04-.5-1.29-.72-.25-.22-.38-.47-.38-.76,0-.33.14-.6.43-.81.29-.21.66-.31,1.13-.31.42,0,.75.07.97.21.23.14.48.35.75.64l1.04-.84c-.35-.46-.79-.8-1.32-1.02-.53-.22-1.05-.33-1.56-.33-.78,0-1.44.24-1.98.72-.54.48-.81,1.05-.81,1.73,0,.28.05.55.15.79.1.25.25.5.46.75.21.25.45.46.74.65.29.18.69.38,1.22.6.53.22.92.41,1.16.58.24.17.45.38.61.64.16.26.24.52.24.78,0,.43-.16.79-.47,1.07-.31.28-.7.42-1.17.42Z"/>
  <polygon class="cls-1" points="203.72 166.74 203.72 165.44 198.48 165.44 198.48 174.92 203.72 174.92 203.72 173.64 199.76 173.64 199.76 170.38 203.72 170.38 203.72 169.1 199.76 169.1 199.76 166.74 203.72 166.74"/>
  <path class="cls-1" d="m210.36,166.21c-.64-.51-1.47-.76-2.49-.76h-2.05v9.47h1.29v-3.9h.29l2.62,3.9h1.48l-2.75-4.05c.88-.2,1.53-.54,1.94-1.03.41-.48.62-1.05.62-1.68,0-.79-.32-1.44-.96-1.95Zm-3.25,3.68v-3.3c.72,0,1.26.04,1.63.14.37.09.67.26.89.52.22.26.33.58.33.98,0,1.15-.95,1.7-2.86,1.66Z"/>
  <polygon class="cls-1" points="213.87 165.46 212.5 165.46 216.82 175.24 221.2 165.46 219.82 165.46 216.83 172.17 213.87 165.46"/>
  <rect class="cls-1" x="222.82" y="165.44" width="1.27" height="9.47"/>
  <path class="cls-1" d="m231.38,166.49c.86,0,1.79.25,2.81.75v-1.46c-.99-.42-1.95-.62-2.87-.62-1.44,0-2.67.49-3.69,1.47-1.02.98-1.53,2.16-1.53,3.54s.52,2.6,1.56,3.59c1.04.99,2.29,1.49,3.75,1.49,1,0,1.93-.23,2.78-.68v-1.48c-.94.53-1.83.79-2.67.79-1.16,0-2.12-.35-2.89-1.06-.77-.7-1.15-1.58-1.15-2.64s.37-1.91,1.13-2.62c.75-.71,1.68-1.07,2.77-1.07Z"/>
  <polygon class="cls-1" points="241.24 166.74 241.24 165.44 236 165.44 236 174.92 241.24 174.92 241.24 173.64 237.28 173.64 237.28 170.38 241.24 170.38 241.24 169.1 237.28 169.1 237.28 166.74 241.24 166.74"/>
  <path class="cls-1" d="m246.17,173.87c-.97,0-1.69-.53-2.16-1.6l-1.29.36c.32.87.79,1.52,1.4,1.95.6.44,1.3.65,2.09.65s1.5-.28,2.07-.83c.57-.55.86-1.22.86-2.01,0-.34-.05-.66-.16-.96-.11-.3-.27-.59-.48-.86-.22-.27-.5-.52-.83-.75-.34-.22-.81-.47-1.42-.73-.6-.26-1.04-.5-1.29-.72-.25-.22-.38-.47-.38-.76,0-.33.14-.6.43-.81.29-.21.66-.31,1.13-.31.42,0,.75.07.97.21.23.14.47.35.75.64l1.05-.84c-.35-.46-.79-.8-1.32-1.02-.53-.22-1.05-.33-1.57-.33-.78,0-1.44.24-1.98.72-.55.48-.82,1.05-.82,1.73,0,.28.05.55.15.79.09.25.25.5.46.75.21.25.45.46.74.65.28.18.69.38,1.22.6.53.22.92.41,1.16.58.24.17.45.38.61.64.16.26.24.52.24.78,0,.43-.15.79-.46,1.07-.31.28-.7.42-1.17.42Z"/>
  <path class="cls-1" d="m260.51,166.49c.86,0,1.79.25,2.81.75v-1.46c-.99-.42-1.95-.62-2.87-.62-1.44,0-2.67.49-3.69,1.47-1.02.98-1.53,2.16-1.53,3.54s.52,2.6,1.56,3.59c1.04.99,2.29,1.49,3.75,1.49,1,0,1.93-.23,2.78-.68v-1.48c-.94.53-1.83.79-2.67.79-1.16,0-2.12-.35-2.89-1.06-.77-.7-1.15-1.58-1.15-2.64s.38-1.91,1.13-2.62c.75-.71,1.68-1.07,2.78-1.07Z"/>
  <path class="cls-1" d="m270.09,165.15c-1.44,0-2.68.49-3.71,1.46-1.03.98-1.54,2.15-1.54,3.52s.51,2.62,1.52,3.62c1.02,1,2.24,1.5,3.69,1.5s2.7-.5,3.7-1.48c1.01-.99,1.51-2.2,1.51-3.63,0-1.35-.51-2.52-1.53-3.5-1.02-.98-2.23-1.48-3.64-1.48Zm2.69,7.64c-.74.73-1.62,1.1-2.64,1.1-1.11,0-2.04-.36-2.81-1.07-.76-.71-1.14-1.59-1.14-2.62s.37-1.9,1.12-2.62c.74-.73,1.64-1.09,2.68-1.09,1.1,0,2.02.36,2.78,1.07.75.71,1.13,1.59,1.13,2.64s-.37,1.87-1.11,2.6Z"/>
  <polygon class="cls-1" points="279.49 168.84 282.19 175.28 284.88 168.89 286.45 174.92 287.71 174.92 285.13 165.05 282.19 172.11 279.23 165.05 276.65 174.92 277.9 174.92 279.49 168.84"/>
  <path class="cls-1" d="m291.62,165.44h-1.9v9.47h1.27v-3.9c1.41.02,2.47-.25,3.16-.8.69-.55,1.04-1.23,1.04-2.04s-.33-1.46-.98-1.97c-.66-.5-1.53-.76-2.6-.76Zm1.53,4.03c-.47.27-1.18.4-2.15.41v-3.32c1.2,0,1.97.16,2.32.49.36.32.53.7.53,1.14,0,.58-.23,1.01-.7,1.27Z"/>
  <path class="cls-1" d="m296.62,174.92l1.08-2.42h4.01l1.1,2.42h1.35l-4.46-9.84-4.42,9.84h1.34Zm3.08-6.88l1.53,3.38h-3.04l1.51-3.38Z"/>
  <polygon class="cls-1" points="305.66 165.07 305.66 174.92 306.95 174.92 306.95 168.19 313.93 175.35 313.93 165.44 312.64 165.44 312.64 172.26 305.66 165.07"/>
  <polygon class="cls-1" points="319.43 169.26 317.1 165.44 315.68 165.44 318.76 170.59 318.76 174.92 320.06 174.92 320.06 170.57 323.15 165.44 321.72 165.44 319.43 169.26"/>
</svg>