<svg xmlns="http://www.w3.org/2000/svg" xmlns:xlink="http://www.w3.org/1999/xlink" viewBox="0 0 3710 3710"><defs><style>.cls-1{fill:none;}.cls-2,.cls-20{fill:#fff;}.cls-3{clip-path:url(#clip-path);}.cls-4{fill:url(#linear-gradient);}.cls-5{fill:url(#linear-gradient-2);}.cls-6{fill:#c3001e;}.cls-7{fill:url(#linear-gradient-3);}.cls-8{fill:url(#linear-gradient-4);}.cls-9{fill:url(#linear-gradient-5);}.cls-10{fill:url(#linear-gradient-6);}.cls-11{fill:#ab001e;}.cls-12{fill:#920000;}.cls-13{fill:url(#linear-gradient-7);}.cls-14{fill:url(#linear-gradient-8);}.cls-15{fill:url(#linear-gradient-9);}.cls-16{fill:#666;}.cls-17{fill:#ccc;}.cls-18{fill:url(#linear-gradient-10);}.cls-19{fill:url(#linear-gradient-11);}.cls-20{opacity:0.79;}.cls-21{fill:#30261a;}.cls-22{fill:#3a2e24;}.cls-23{fill:#da1f1f;}.cls-24{fill:#e1e1e1;}.cls-25{fill:#ab1414;}.cls-26{fill:#f04141;}.cls-27{fill:#afafaf;}</style><clipPath id="clip-path"><rect class="cls-1" x="526.39" y="1308.24" width="2682.61" height="1964.54"/></clipPath><linearGradient id="linear-gradient" x1="2641.45" y1="3381.23" x2="2122.09" y2="4168.84" gradientUnits="userSpaceOnUse"><stop offset="0" stop-color="#cb236d"/><stop offset="1" stop-color="#4c246d"/></linearGradient><linearGradient id="linear-gradient-2" x1="2856.78" y1="3812.91" x2="1359.41" y2="4233.7" xlink:href="#linear-gradient"/><linearGradient id="linear-gradient-3" x1="1859.7" y1="2547.55" x2="2266.98" y2="2547.55" gradientUnits="userSpaceOnUse"><stop offset="0" stop-color="#febbba"/><stop offset="1" stop-color="#ff928e"/></linearGradient><linearGradient id="linear-gradient-4" x1="1623.46" y1="1347.94" x2="2005.3" y2="956.19" gradientTransform="translate(221.09 393.24) rotate(15.65)" xlink:href="#linear-gradient-3"/><linearGradient id="linear-gradient-5" x1="-1331.19" y1="2031.33" x2="-1814.64" y2="2670.89" gradientTransform="matrix(0.8, -0.6, 0.6, 0.8, 1683.01, -865.04)" xlink:href="#linear-gradient-3"/><linearGradient id="linear-gradient-6" x1="-2039.25" y1="2537.81" x2="-1651.48" y2="2139.98" gradientTransform="matrix(0.8, -0.6, 0.6, 0.8, 1683.01, -865.04)" xlink:href="#linear-gradient-3"/><linearGradient id="linear-gradient-7" x1="1556.6" y1="-511.8" x2="1815.62" y2="-511.8" gradientTransform="matrix(0.07, -1, 1, 0.07, 1854.12, 4752.75)" xlink:href="#linear-gradient-3"/><linearGradient id="linear-gradient-8" x1="1751.37" y1="4087.45" x2="2566.82" y2="4087.45" gradientUnits="userSpaceOnUse"><stop offset="0" stop-color="#9cfffb"/><stop offset="1" stop-color="#9bfffa"/></linearGradient><linearGradient id="linear-gradient-9" x1="1845.54" y1="4087.45" x2="2660.99" y2="4087.45" xlink:href="#linear-gradient-8"/><linearGradient id="linear-gradient-10" x1="3300.48" y1="463.89" x2="2445.9" y2="1212.27" gradientUnits="userSpaceOnUse"><stop offset="0" stop-color="#e1473d"/><stop offset="1" stop-color="#e9605a"/></linearGradient><linearGradient id="linear-gradient-11" x1="3252.26" y1="408.83" x2="2397.68" y2="1157.22" xlink:href="#linear-gradient-10"/></defs><g id="Background"><rect class="cls-2" width="3710" height="3710"/></g><g id="Illustration"><g class="cls-3"><path class="cls-4" d="M3002.89,4508.93C2315,3660.52,1466,3439.58,1466,3439.58l21.53,210.05,1429.56,999.75c47.8-25.63,75-72.55,90.14-105.54A33.37,33.37,0,0,0,3002.89,4508.93Z"/><path class="cls-5" d="M2988,4600.66C2773.5,4365.51,2245.44,3853.54,1665.43,3641a197.27,197.27,0,0,1-109.75-100.12L1468.91,3360S1046,3260.91,785.4,3533.76c0,0,15.88,259.54,343.17,354.41,305.51,88.57,1210.83,448.19,1744.8,851.15,12.25,9.24,29.24,9.68,41.37.27,42.45-32.93,69.05-74,80.36-103A34.74,34.74,0,0,0,2988,4600.66Z"/><path class="cls-6" d="M739.43,3530.29s86.28,37.75,234.19-30.61,550.09-75.19,550.09-75.19S1393.42,2936.86,1683,2588c0,0,233.2,436.49,397.09,501.63l73.4,3.37V2781.61s-62.25-384.41-456-671.47l-122.6-110.5S1143.72,1912.72,850.56,2427,739.43,3530.29,739.43,3530.29Z"/><path class="cls-7" d="M2178.22,2185.68c4.1-21.61,5.64-72.16-46.49-133.77-69.76-82.43-159.25-40.4-159.25-40.4-79.28,44.4-112.78,189.38-112.78,189.38l83.83-44.74c12.7,36.88,136.51,76.64,136.51,76.64l.69-.26c1.19,80.2-.75,314.07-57.62,476.74-22.28,63.73-67.6,182.13,82,385l82.45-3.37S2372.32,2777.34,2178.22,2185.68Z"/><path class="cls-8" d="M1759.15,1710.31l-229.57,324.16a54.24,54.24,0,0,0,4.76,68.49c30.93,33,83.09,79.54,139.32,90.16a43.76,43.76,0,0,0,44.92-18.91l122.09-187.42S1864.05,1692.39,1759.15,1710.31Z"/><path class="cls-9" d="M1911.59,1499.61c3.83,5.1,128,407.81,128,407.81l-231.45,66-174.42-364.2S1847.55,1414.26,1911.59,1499.61Z"/><path d="M1725.61,1669l73.66,190.77a43.82,43.82,0,0,0,6.6,11.49c12.36,15.51,48.33,52.07,88.15,13,30.17-29.64,58.62-56.88,85.71-70.5,23.87-12,52.79,1.08,60.4,26.7,11.41,38.39,29.38,104.31,38.76,167.14a43.37,43.37,0,0,1-34,48.87c-47.12,9.86-129.33,24.24-201.37,22.56a43,43,0,0,1-37.38-24.11c-26.66-53.89-93.61-187.65-118.81-223.28-23.16-32.76-75.46-32.57-102.12-30.06a43.15,43.15,0,0,1-33.66-11.49c-21.27-20-49.76-60.2-9.19-110.18a43.72,43.72,0,0,0-2.6-58.23c-22.45-23.31-41-60.52-5.59-107.26,37.58-49.52,88.37-46.84,122.6-37,16.69,4.79,33.72-2.52,44.69-16a22.14,22.14,0,0,1,14.14-8c20.92-3.37,37-19.46,37.6-40.64.88-31.3,14.4-67.68,66-85.42,100.94-34.67,167.33,61.88,175.76,135.13s-103.15,104.61-169.38,101.58c-45.9-2.1-79.75,40-96.21,66A43.45,43.45,0,0,0,1725.61,1669Z"/><path class="cls-10" d="M1716.06,1903.77s-20.17-127-73.38-131.7-103.56,40.38-48.75,110.4C1662.1,1969.56,1716.06,1903.77,1716.06,1903.77Z"/><path class="cls-11" d="M1140.08,2046.72S677.32,2341.86,576,2684.52s125.42,410.07,341.31,440.42l16.24-261.65s-151.23,0-54.76-143,355.72-238.37,355.72-238.37S1891.39,1862.14,1140.08,2046.72Z"/><path class="cls-12" d="M933.57,2869.25c-2.65,0-65.15-.45-86.22-40.09-14.38-27-5.46-64.81,26.52-112.22,96.45-143,347.95-236.71,358.61-240.63a6,6,0,0,1,4.11,11.18c-2.58,1-258.56,96.35-352.83,236.11-29.32,43.46-38,77.08-25.9,99.94,17.68,33.32,75.14,33.79,75.72,33.79a6,6,0,0,1,0,11.92Z"/><path class="cls-13" d="M917.33,3124.94s-67.61-111.73,21.43-245.24l597.62,99s286.07-48.4,299.75-47.42,200.39,116,200.39,116-6.27,13.34-50.7,10.88-15.27,5.37-15.27,5.37l-1.61,22.44s-30.93,7.09-55.74-19.3-93.76-39.17-93.76-39.17-146.58,108.31-290.57,55.91Z"/><path class="cls-14" d="M1786.86,5010.15a34.77,34.77,0,0,1-14-3c-18-7.93-26.33-29.32-18.58-47.77l744.44-1772.66c7.75-18.44,28.61-26.95,46.64-19s26.32,29.32,18.58,47.77L1819.49,4988.15A35.49,35.49,0,0,1,1786.86,5010.15Z"/><path class="cls-15" d="M2625.5,5010.15a35.47,35.47,0,0,1-32.62-22L1848.44,3215.49c-7.75-18.45.57-39.84,18.58-47.77s38.88.58,46.63,19l744.44,1772.66c7.75,18.45-.57,39.84-18.58,47.77A34.73,34.73,0,0,1,2625.5,5010.15Z"/><path class="cls-16" d="M3176.16,3133.82c1.08-11-.39-22.36-4-31s-9-13.63-14.72-13.63h-1929c-7.49,0-14.46,7.5-18.5,19.9s-4.57,28-1.43,41.35l20.9,88.93c4.79,20.36,15.16,33.4,26.57,33.4H3144.19c10.62,0,19.75-14.8,21.76-35.29Z"/></g><path class="cls-17" d="M2341.81,992.72c-252.53,120.56-418.45,371.47-222.34,359.76,368.16-22,119.67,183.06,313.3,177s493.34-47.33,689.45-250.54,5.49-251.79-74-243.92C2786.51,1061,3132.84,615.08,2341.81,992.72Z"/><path class="cls-17" d="M2256.26,1629.36c.52,28.59,21.57,75.53,68.82,74.66s102.82-49.22,102.29-77.82-39.26-51.07-86.51-50.2S2255.73,1600.76,2256.26,1629.36Z"/><path class="cls-17" d="M2185.32,1744.61c.26,13.84,12.44,24.85,27.21,24.57s44-15,43.72-28.83-18.57-27.69-33.34-27.42S2185.07,1730.76,2185.32,1744.61Z"/><path d="M2730.42,1219.87c-.39-4.8-5.29-8.95-13.59-12.28,9-5,14-10.3,13.59-15.53-1.28-15.81-51.37-24.68-111.88-19.8s-108.53,21.65-107.25,37.47c.38,4.8,5.28,9,13.58,12.28-9,5-14,10.3-13.58,15.53.38,4.79,5.28,9,13.58,12.27-9,5-14,10.31-13.58,15.53.38,4.8,5.28,9,13.58,12.28-9,5-14,10.3-13.58,15.53.56,7,10.68,12.63,27,16.32a140.41,140.41,0,0,0,.42,17.09c2.36,29.14,35.15,52,78.5,52s80.89-31.16,81.32-60.39a149.88,149.88,0,0,0-.85-19.08c20.74-6.93,33.38-15.39,32.72-23.6-.39-4.79-5.29-9-13.59-12.28,9-5,14-10.3,13.59-15.52-.39-4.8-5.29-9-13.59-12.28C2725.85,1230.42,2730.84,1225.1,2730.42,1219.87Z"/><path d="M2590.54,1315.76c-18,0-34.41-1.32-48-3.92a1.46,1.46,0,0,1,.55-2.86c21.26,4.07,49.65,5,79.95,2.53,24.8-2,48-6,67.06-11.57a1.45,1.45,0,0,1,.81,2.79c-19.26,5.62-42.65,9.66-67.63,11.67C2612,1315.31,2601,1315.76,2590.54,1315.76Z"/><path d="M2590.84,1287.93c-23.35,0-44.21-2.2-58.93-6.39a1.46,1.46,0,1,1,.8-2.8c21,6,54.74,7.83,90.33,5,35.21-2.84,68.05-10,87.84-19.11a1.45,1.45,0,1,1,1.22,2.64c-20.09,9.26-53.29,16.5-88.82,19.37C2612.19,1287.49,2601.27,1287.93,2590.84,1287.93Z"/><path d="M2590.55,1260.14c-25.22,0-47.28-2.58-62.13-7.47a1.46,1.46,0,0,1-.92-1.84,1.44,1.44,0,0,1,1.83-.92c20.67,6.81,55.7,9,93.71,6,35.21-2.84,68-10,87.84-19.11a1.45,1.45,0,1,1,1.22,2.64c-20.09,9.26-53.3,16.5-88.82,19.37C2612,1259.7,2601,1260.14,2590.55,1260.14Z"/><path d="M2590.74,1232.32c-20,0-38.19-1.62-52.33-4.76a1.45,1.45,0,0,1,.63-2.84c21.27,4.73,51.88,6,84,3.36,34.9-2.81,67.56-9.88,87.39-18.9a1.45,1.45,0,1,1,1.2,2.64c-20.11,9.16-53.14,16.32-88.35,19.16C2612.15,1231.88,2601.2,1232.32,2590.74,1232.32Z"/><path class="cls-6" d="M2470.67,1079.5A204.65,204.65,0,0,0,2434,1008c-36-45.4-94.79-137.73-102-263.75-10.52-183.29,152-275.06,300.38-262.6S2927.1,604.52,2911.07,775c-9.86,104.92-68.58,184.5-112.31,230.21a242.86,242.86,0,0,0-58.29,103.27c-13.12,47.38-44.35,106.42-118.57,110C2525.86,1223.2,2486,1133.67,2470.67,1079.5Z"/><path class="cls-18" d="M2646.43,1182l51.91-337.59c1.07-7,4.5-11.66,7.66-10.46s4.86,7.82,3.78,14.79c0,.19-.06.42-.09.6l-59.13,334.45c-.44,2.52-1.72,4.1-2.85,3.55S2646.06,1184.42,2646.43,1182Z"/><path class="cls-19" d="M2592.55,1184.67l-51.9-337.59c-1.07-7-4.5-11.66-7.67-10.46s-4.85,7.82-3.78,14.79l.1.6,59.12,334.45c.45,2.52,1.72,4.11,2.86,3.55S2592.93,1187.1,2592.55,1184.67Z"/><path class="cls-20" d="M2698,815.41a5.44,5.44,0,0,0-6.81-1.76l-28.9,13.5-10-28.58a6.1,6.1,0,0,0-3.52-3.54c-3.32-1.37-7.3-.15-8.88,2.74l-.05.09L2616,841.2,2594,779.5l0-.1a7,7,0,0,0-3.34-3.76c-3.7-2-8.58-1.06-10.91,2.15l-33.23,45.74a4,4,0,0,0,1.17,5.77,5.57,5.57,0,0,0,7.07-.77l29.25-32.63,26.35,58.69,0,0a4.59,4.59,0,0,0,2.32,2.27,5.5,5.5,0,0,0,6.89-1.78l25.42-40.79,9.57,20.63.08.19a4.63,4.63,0,0,0,.24.43,5.44,5.44,0,0,0,6.81,1.77l34.3-16A4.08,4.08,0,0,0,2698,815.41Z"/><path class="cls-20" d="M2799.89,960.19a5,5,0,0,1-4-8.07A384.09,384.09,0,0,0,2820,915.4a5.06,5.06,0,0,1,8.76,5.06A396.16,396.16,0,0,1,2804,958.15,5.05,5.05,0,0,1,2799.89,960.19Z"/><path class="cls-20" d="M2842.59,886.92a5.07,5.07,0,0,1-4.64-7.08c55-126.73,7.54-233.57,7.05-234.63a5.06,5.06,0,0,1,9.2-4.21c.51,1.1,49.93,111.85-7,242.87A5.05,5.05,0,0,1,2842.59,886.92Z"/><polygon class="cls-21" points="3018.4 3068.28 2607.68 3087.17 2606.62 3063.97 2646.67 3062.12 2646.18 3051.53 2878.85 3040.83 2879.34 3051.42 2888.74 3050.99 2888.25 3040.39 3050.02 3032.95 3050.9 3052.15 3034.55 3052.9 3018.4 3068.28"/><rect class="cls-22" x="2888.47" y="3039.33" width="46.25" height="10.61" transform="translate(-136.83 137.01) rotate(-2.63)"/><path class="cls-23" d="M3058.19,3081l-116.29,5.35s-.85-6.23,11.31-9.29c4.44-1.12,10.61-1.81,19.19-1.62l2.1.64,5.61,1.72,66.66-3.07,2.6-2.09,7.43-6,.18-.15.07-.08,5.53-6.34,6.05-6.94a1.1,1.1,0,0,0-.88-1.82l-29,1.34a11.13,11.13,0,0,0-7.19,3.07l-5.37,5.11-7.76,7.39-2.32,2.21a3.5,3.5,0,0,1-2.25,1l-92.32,4.25-1.82-39.7,149.63-6.88a8.07,8.07,0,0,1,8.43,7.69l1.12,24.37a6.85,6.85,0,0,1-.08,1.44.68.68,0,0,1,0,.15,7.26,7.26,0,0,1-6.71,6h-.16Z"/><path class="cls-21" d="M3056.51,3067.09l-38.74,1.79,16.5-15.71a1,1,0,0,1,.67-.29l33-1.51a1,1,0,0,1,.83,1.71Z"/><path class="cls-23" d="M2647.74,3085.33l-56.19,2.58a10.65,10.65,0,0,1-11.14-10.15l-.56-12.3a2.17,2.17,0,0,1,0-.26l66.83-3.08Z"/><rect class="cls-24" x="2879.87" y="3051.19" width="9.41" height="23.23" transform="translate(-137.69 135.79) rotate(-2.63)"/><path class="cls-25" d="M3016.08,3070.49a3.5,3.5,0,0,1-2.25,1l-92.32,4.25-.45-10,105.1-4.83-7.76,7.39Z"/><path class="cls-25" d="M2972.4,3075.48l2.1.64-21.29,1C2957.65,3076,2963.82,3075.29,2972.4,3075.48Z"/><path class="cls-26" d="M3077.81,3038.06l-157.69,7.25-.43-9.32,149.63-6.88a8.07,8.07,0,0,1,8.43,7.69Z"/><rect class="cls-27" x="2879.09" y="3040.6" width="9.41" height="10.61" transform="matrix(1, -0.05, 0.05, 1, -136.92, 135.73)"/><path class="cls-26" d="M2646.67,3062.12l-66.83,3.08a10.88,10.88,0,0,1,10.37-11.1l56-2.57Z"/><rect class="cls-22" x="2646.3" y="3046.17" width="232.92" height="10.61" transform="translate(-137.3 130.18) rotate(-2.63)"/></g></svg>