<?xml version="1.0" encoding="UTF-8"?>
<svg xmlns="http://www.w3.org/2000/svg" viewBox="0 0 500 500">
  <defs>
    <style>
      .cls-1 {
        opacity: .4;
      }

      .cls-1, .cls-2, .cls-3, .cls-4, .cls-5, .cls-6, .cls-7, .cls-8, .cls-9, .cls-10, .cls-11, .cls-12, .cls-13, .cls-14, .cls-15, .cls-16 {
        stroke-width: 0px;
      }

      .cls-1, .cls-10 {
        fill: #fff;
      }

      .cls-2 {
        fill: #e6e6e6;
      }

      .cls-3 {
        fill: #dd4b39;
      }

      .cls-4 {
        fill: #37474f;
      }

      .cls-5 {
        fill: #e0e0e0;
      }

      .cls-6 {
        fill: #f5f5f5;
      }

      .cls-7 {
        fill: #f0f0f0;
      }

      .cls-8 {
        opacity: .2;
      }

      .cls-9 {
        fill: #ffa8a7;
      }

      .cls-17 {
        fill: none;
        stroke: #dd4b39;
        stroke-miterlimit: 10;
      }

      .cls-11 {
        fill: #fafafa;
      }

      .cls-12 {
        fill: #f28f8f;
      }

      .cls-13 {
        fill: #263238;
      }

      .cls-14 {
        fill: #ebebeb;
      }

      .cls-15 {
        fill: #455a64;
      }

      .cls-16 {
        opacity: .1;
      }
    </style>
  </defs>
  <g id="Floor">
    <path id="Floor-2" data-name="Floor" class="cls-7" d="m101.24,426.64c85.13,45.44,223.17,45.44,308.3,0,85.13-45.44,85.13-119.12,0-164.56-85.13-45.44-223.17-45.44-308.3,0-85.13,45.44-85.13,119.12,0,164.56Z"/>
  </g>
  <g id="Shadow">
    <path id="Shadow-2" data-name="Shadow" class="cls-5" d="m252.7,365.39l62.21,35.77c.72.41,1.88.41,2.6,0l110.12-63.58c.72-.41.72-1.09,0-1.5l-62.21-35.77c-.72-.41-1.88-.41-2.6,0l-110.12,63.58c-.72.41-.72,1.09,0,1.5Z"/>
    <path id="Shadow-3" data-name="Shadow" class="cls-5" d="m442.76,383.96c-.2-1.59-2.11-2.4-3.16-3.01l-42.48-24.6c-1.88-1.08-4.2-1.13-6.08-.04l-42.47,24.5c-1.25.72-3.3,2.1-3.3,3.72s1.12,1.97,3.18,3.16c2.06,1.19,42.17,24.36,42.17,24.36,2.15,1.24,4.8,1.24,6.95,0l43.51-24.93c1.43-.98,1.82-2.13,1.68-3.16Z"/>
  </g>
  <g id="Servers">
    <g id="Server">
      <g>
        <path class="cls-17" d="m297.73,257.89l10.02-5.79c1.2-.69,3.13-.69,4.33,0l62.83,36.27"/>
        <path class="cls-17" d="m293.67,255.55l14.08-8.13c1.2-.69,3.13-.69,4.33,0l66.89,38.62"/>
        <path class="cls-17" d="m383.03,283.69l-70.95-40.96c-1.2-.69-3.13-.69-4.33,0l-18.14,10.47"/>
        <path class="cls-17" d="m387.09,281.35l-75.01-43.31c-1.2-.69-3.13-.69-4.33,0l-22.22,12.82"/>
      </g>
      <g>
        <path class="cls-4" d="m234.62,45.75l-64.73,37.37c-1.2.69-2.16,2.37-2.16,3.75v177.93c0,1.38.97,3.06,2.16,3.75l64.73,37.37c1.2.69,3.13.69,4.33,0l64.72-37.37c1.2-.69,2.17-2.37,2.17-3.75V86.87c0-1.38-.97-3.06-2.17-3.75l-64.72-37.37c-1.2-.69-3.13-.69-4.33,0Z"/>
        <path class="cls-13" d="m305.84,86.86v177.93c0,1.38-.97,3.06-2.16,3.75l-64.73,37.37c-.59.35-1.38.52-2.16.52V123.5c.78,0,1.56-.18,2.16-.52l64.73-37.37.59-.49.77-.64c.49.74.8,1.6.8,2.38Z"/>
        <g>
          <path class="cls-15" d="m178.02,104.38l48.48,27.99c1.2.69,2.16,2.37,2.16,3.75v18.45c0,1.38-.97,1.94-2.17,1.25l-48.48-27.99c-1.2-.69-2.17-2.37-2.17-3.75v-18.45c0-1.38.97-1.94,2.16-1.25Z"/>
          <path class="cls-3" d="m179.91,112.51c0,1.3.97,2.9,2.17,3.6l40.35,23.3c1.2.69,2.17.2,2.16-1.1,0-1.3-.97-2.9-2.17-3.6l-40.35-23.3c-1.2-.69-2.17-.2-2.17,1.1Z"/>
          <path class="cls-13" d="m179.91,121.89c0,1.3.97,2.9,2.17,3.6l40.35,23.3c1.2.69,2.17.2,2.16-1.1,0-1.3-.97-2.9-2.17-3.6l-40.35-23.3c-1.2-.69-2.17-.2-2.17,1.1Z"/>
          <path class="cls-3" d="m182.08,120.79l22.21,12.82v4.69s-22.21-12.82-22.21-12.82c-1.2-.69-2.17-2.3-2.17-3.6s.97-1.79,2.17-1.1Z"/>
        </g>
        <g>
          <path class="cls-15" d="m178.02,137.21l48.48,27.99c1.2.69,2.16,2.37,2.16,3.75v18.45c0,1.38-.97,1.94-2.17,1.25l-48.48-27.99c-1.2-.69-2.17-2.37-2.17-3.75v-18.45c0-1.38.97-1.94,2.16-1.25Z"/>
          <path class="cls-3" d="m179.91,145.34c0,1.3.97,2.9,2.17,3.6l40.35,23.3c1.2.69,2.17.2,2.16-1.1,0-1.3-.97-2.9-2.17-3.6l-40.35-23.3c-1.2-.69-2.17-.2-2.17,1.1Z"/>
          <path class="cls-13" d="m179.91,154.72c0,1.3.97,2.9,2.17,3.6l40.35,23.3c1.2.69,2.17.2,2.16-1.1,0-1.3-.97-2.9-2.17-3.6l-40.35-23.3c-1.2-.69-2.17-.2-2.17,1.1Z"/>
          <path class="cls-3" d="m182.08,153.63l34.39,19.86v4.69s-34.39-19.86-34.39-19.86c-1.2-.69-2.17-2.3-2.17-3.6s.97-1.79,2.17-1.1Z"/>
        </g>
        <g>
          <path class="cls-15" d="m178.02,170.04l48.48,27.99c1.2.69,2.16,2.37,2.16,3.75v18.45c0,1.38-.97,1.94-2.17,1.25l-48.48-27.99c-1.2-.69-2.17-2.37-2.17-3.75v-18.45c0-1.38.97-1.94,2.16-1.25Z"/>
          <path class="cls-3" d="m179.91,178.17c0,1.3.97,2.9,2.17,3.6l40.35,23.3c1.2.69,2.17.2,2.16-1.1,0-1.3-.97-2.9-2.17-3.6l-40.35-23.3c-1.2-.69-2.17-.2-2.17,1.1Z"/>
          <path class="cls-13" d="m179.91,187.56c0,1.3.97,2.9,2.17,3.6l40.35,23.3c1.2.69,2.17.2,2.16-1.1,0-1.3-.97-2.9-2.17-3.6l-40.35-23.3c-1.2-.69-2.17-.2-2.17,1.1Z"/>
          <path class="cls-3" d="m182.08,186.46l14.08,8.13v4.69s-14.08-8.13-14.08-8.13c-1.2-.69-2.17-2.3-2.17-3.6s.97-1.79,2.17-1.1Z"/>
        </g>
        <g>
          <path class="cls-15" d="m178.02,202.88l48.48,27.99c1.2.69,2.16,2.37,2.16,3.75v18.45c0,1.38-.97,1.94-2.17,1.25l-48.48-27.99c-1.2-.69-2.17-2.37-2.17-3.75v-18.45c0-1.38.97-1.94,2.16-1.25Z"/>
          <path class="cls-3" d="m179.91,211.01c0,1.3.97,2.9,2.17,3.6l40.35,23.3c1.2.69,2.17.2,2.16-1.1,0-1.3-.97-2.9-2.17-3.6l-40.35-23.3c-1.2-.69-2.17-.2-2.17,1.1Z"/>
          <path class="cls-13" d="m179.91,220.39c0,1.3.97,2.9,2.17,3.6l40.35,23.3c1.2.69,2.17.2,2.16-1.1,0-1.3-.97-2.9-2.17-3.6l-40.35-23.3c-1.2-.69-2.17-.2-2.17,1.1Z"/>
          <path class="cls-3" d="m182.08,219.29l22.21,12.82v4.69s-22.21-12.82-22.21-12.82c-1.2-.69-2.17-2.3-2.17-3.6s.97-1.79,2.17-1.1Z"/>
        </g>
        <g>
          <path class="cls-15" d="m178.02,235.71l48.48,27.99c1.2.69,2.16,2.37,2.16,3.75v18.45c0,1.38-.97,1.94-2.17,1.25l-48.48-27.99c-1.2-.69-2.17-2.37-2.17-3.75v-18.45c0-1.38.97-1.94,2.16-1.25Z"/>
          <path class="cls-3" d="m179.91,243.84c0,1.3.97,2.9,2.17,3.6l40.35,23.3c1.2.69,2.17.2,2.16-1.1,0-1.3-.97-2.9-2.17-3.6l-40.35-23.3c-1.2-.69-2.17-.2-2.17,1.1Z"/>
          <path class="cls-13" d="m179.91,253.22c0,1.3.97,2.9,2.17,3.6l40.35,23.3c1.2.69,2.17.2,2.16-1.1,0-1.3-.97-2.9-2.17-3.6l-40.35-23.3c-1.2-.69-2.17-.2-2.17,1.1Z"/>
          <path class="cls-3" d="m182.08,252.13l30.33,17.51v4.69s-30.33-17.51-30.33-17.51c-1.2-.69-2.17-2.3-2.17-3.6s.97-1.79,2.17-1.1Z"/>
        </g>
        <g>
          <path class="cls-4" d="m246.94,134.8c2.24-1.3,4.06-.12,4.06,2.65v107.27c0,2.76-1.82,6.05-4.06,7.35-2.24,1.3-4.06.12-4.06-2.65v-107.27c0-2.76,1.82-6.05,4.06-7.35Z"/>
          <path class="cls-13" d="m246.94,249.69c1.12-.65,2.03-2.29,2.03-3.67v-107.57c0-1.38-.91-1.98-2.03-1.33-1.12.65-2.03,2.29-2.03,3.67v107.57c0,1.38.91,1.97,2.03,1.33Z"/>
          <path class="cls-3" d="m246.94,249.69c1.12-.65,2.03-2.29,2.03-3.67v-51.43s-4.06,2.35-4.06,2.35v51.43c0,1.38.91,1.97,2.03,1.33Z"/>
          <path class="cls-4" d="m259.12,127.76c2.24-1.3,4.06-.12,4.06,2.65v107.27c0,2.76-1.82,6.05-4.06,7.36s-4.06.12-4.06-2.65v-107.27c0-2.76,1.82-6.05,4.06-7.35Z"/>
          <path class="cls-3" d="m259.13,242.66c1.12-.65,2.03-2.29,2.03-3.67v-107.57c0-1.38-.91-1.98-2.03-1.33-1.12.65-2.03,2.29-2.03,3.67v107.57c0,1.38.91,1.98,2.03,1.33Z"/>
          <path class="cls-4" d="m271.31,120.73c2.24-1.3,4.06-.12,4.06,2.65v107.27c0,2.76-1.82,6.05-4.06,7.35-2.24,1.3-4.06.12-4.06-2.65v-107.27c0-2.76,1.82-6.05,4.06-7.35Z"/>
          <path class="cls-13" d="m271.31,235.62c1.12-.65,2.03-2.29,2.03-3.67v-107.57c0-1.38-.91-1.98-2.03-1.33-1.12.65-2.03,2.29-2.03,3.67v107.57c0,1.38.91,1.97,2.03,1.33Z"/>
          <path class="cls-3" d="m271.31,235.62c1.12-.65,2.03-2.29,2.03-3.67v-83.09s-4.06,2.35-4.06,2.35v83.09c0,1.38.91,1.97,2.03,1.33Z"/>
          <path class="cls-4" d="m283.5,113.69c2.24-1.3,4.06-.12,4.06,2.65v107.27c0,2.76-1.82,6.05-4.06,7.36s-4.06.12-4.06-2.65v-107.27c0-2.76,1.82-6.05,4.06-7.35Z"/>
          <path class="cls-13" d="m283.5,228.59c1.12-.65,2.03-2.29,2.03-3.67v-107.57c0-1.38-.91-1.98-2.03-1.33-1.12.65-2.03,2.29-2.03,3.67v107.57c0,1.38.91,1.98,2.03,1.33Z"/>
          <path class="cls-3" d="m283.5,228.59c1.12-.65,2.03-2.29,2.03-3.67v-18.16s-4.06,2.35-4.06,2.35v18.16c0,1.38.91,1.98,2.03,1.33Z"/>
          <path class="cls-4" d="m295.68,106.66c2.24-1.3,4.06-.12,4.06,2.65v107.27c0,2.76-1.82,6.05-4.06,7.35-2.24,1.3-4.06.12-4.06-2.65v-107.27c0-2.76,1.82-6.05,4.06-7.35Z"/>
          <path class="cls-13" d="m295.68,221.55c1.12-.65,2.03-2.29,2.03-3.67v-107.57c0-1.38-.91-1.98-2.03-1.33-1.12.65-2.03,2.29-2.03,3.67v107.57c0,1.38.91,1.98,2.03,1.33Z"/>
          <path class="cls-3" d="m295.68,221.55c1.12-.65,2.03-2.29,2.03-3.67v-56.12s-4.06,2.35-4.06,2.35v56.12c0,1.38.91,1.98,2.03,1.33Z"/>
        </g>
        <g>
          <path class="cls-4" d="m244.61,265.12l53.4-30.83c.96-.55,1.73-.1,1.73,1v19.45c0,1.1-.78,2.45-1.73,3l-53.4,30.83c-.96.55-1.73.1-1.73-1v-19.45c0-1.1.78-2.45,1.73-3Z"/>
          <g>
            <path class="cls-13" d="m246.8,270.89c0,1.3.97,1.79,2.17,1.1l44.68-25.81c1.2-.69,2.17-2.3,2.17-3.59,0-1.3-.97-1.79-2.16-1.1l-44.68,25.81c-1.2.69-2.16,2.3-2.16,3.6Z"/>
            <path class="cls-3" d="m246.8,270.89c0,1.3.97,1.79,2.17,1.09l32.5-18.77v-4.69s-32.5,18.77-32.5,18.77c-1.2.69-2.16,2.3-2.16,3.6Z"/>
          </g>
          <g>
            <path class="cls-13" d="m246.8,280.27c0,1.3.97,1.79,2.17,1.1l44.68-25.81c1.2-.69,2.17-2.3,2.17-3.6,0-1.3-.97-1.79-2.16-1.09l-44.68,25.81c-1.2.69-2.16,2.3-2.16,3.59Z"/>
            <path class="cls-3" d="m246.8,280.27c0,1.3.97,1.79,2.17,1.1l12.19-7.04v-4.69s-12.19,7.04-12.19,7.04c-1.2.69-2.16,2.3-2.16,3.59Z"/>
          </g>
        </g>
        <path class="cls-15" d="m303.67,83.12l-64.72-37.37c-1.2-.69-3.13-.69-4.33,0l-64.72,37.37c-1.2.69-1.2,1.81,0,2.5l64.73,37.37c1.2.69,3.13.69,4.33,0l64.72-37.37c1.2-.69,1.2-1.81,0-2.5Z"/>
      </g>
      <g>
        <path class="cls-13" d="m235.48,114.1l-50.21-28.99c-.72-.41-1.3-1.42-1.3-2.25v-1.69c0-.83.58-1.84,1.3-2.25l50.21-28.99c.72-.41,1.88-.41,2.6,0l50.21,28.99c.72.41,1.3,1.42,1.3,2.25v1.69c0,.83-.58,1.84-1.3,2.25l-50.21,28.99c-.72.41-1.88.41-2.6,0Z"/>
        <path class="cls-15" d="m185.28,80.42l50.21,28.99c.72.41,1.88.41,2.6,0l50.21-28.99c.72-.41.72-1.09,0-1.5l-50.21-27.99c-.72-.41-1.88-.41-2.6,0l-50.21,27.99c-.72.41-.72,1.09,0,1.5Z"/>
        <path class="cls-4" d="m236.79,109.72v4.69c-.47,0-.94-.1-1.3-.31l-50.21-28.99c-.72-.41-1.3-1.42-1.3-2.25v-1.69c0-.73.45-1.6,1.06-2.08-.47.41-.39.97.24,1.33l50.21,28.99c.36.21.83.31,1.3.31Z"/>
      </g>
      <g>
        <path class="cls-13" d="m235.48,100.03l-33.96-19.61c-.72-.41-1.3-1.42-1.3-2.25v-1.69c0-.83.58-1.84,1.3-2.25l21.77-12.57c.72-.41,1.7-1.29,2.19-1.95l10.4-14.01c.49-.67,1.48-.87,2.19-.45l33.96,19.61c.72.41,1.3,1.42,1.3,2.25v11.07c0,.83-.58,1.84-1.3,2.25l-33.96,19.61c-.72.41-1.88.41-2.6,0Z"/>
        <path class="cls-15" d="m238.08,95.34l21.77-12.57c.35-.2.75-.51,1.14-.84.41-.36.8-.77,1.06-1.11l10.4-14.01c.49-.67.31-1.54-.4-1.95l-33.96-19.61c-.72-.41-1.7-.21-2.19.45l-10.4,14.01c-.49.67-1.3,1.62-2.01,2.03l-21.95,12.49c-.72.41-.72,1.09,0,1.5l33.96,19.61c.72.41,1.88.41,2.6,0Z"/>
        <path class="cls-4" d="m272.04,64.85l-33.96-19.61c-.72-.41-1.7-.21-2.19.45l-10.4,14.01c-.26.35-.65.74-1.06,1.11,0,0,36.55,21.12,36.56,21.11.41-.36.8-.76,1.06-1.11l10.4-14.01c.49-.67.31-1.54-.41-1.95Z"/>
        <g>
          <path class="cls-3" d="m209.76,74.58c.84-.49,2.21-.49,3.05,0s.84,1.27,0,1.76-2.21.49-3.05,0c-.84-.49-.84-1.27,0-1.76Z"/>
          <path class="cls-3" d="m215.86,78.1c.84-.49,2.21-.49,3.05,0,.84.49.84,1.27,0,1.76-.84.49-2.21.49-3.05,0s-.84-1.27,0-1.76Z"/>
          <path class="cls-13" d="m221.95,81.61c.84-.49,2.21-.49,3.05,0s.84,1.27,0,1.76-2.21.49-3.05,0c-.84-.49-.84-1.27,0-1.76Z"/>
          <path class="cls-13" d="m228.04,85.13c.84-.49,2.21-.49,3.05,0,.84.49.84,1.27,0,1.76-.84.49-2.21.49-3.05,0s-.84-1.27,0-1.76Z"/>
          <ellipse class="cls-3" cx="215.86" cy="72.82" rx="2.15" ry="1.24"/>
          <path class="cls-13" d="m220.43,75.46c.84-.49,2.21-.49,3.05,0s.84,1.27,0,1.76-2.21.49-3.05,0c-.84-.49-.84-1.27,0-1.76Z"/>
          <ellipse class="cls-3" cx="228.04" cy="79.86" rx="2.15" ry="1.24"/>
          <path class="cls-13" d="m232.61,82.49c.84-.49,2.21-.49,3.05,0s.84,1.27,0,1.76-2.21.49-3.05,0c-.84-.49-.84-1.27,0-1.76Z"/>
          <path class="cls-13" d="m218.9,69.3c.84-.49,2.21-.49,3.05,0,.84.49.84,1.27,0,1.76-.84.49-2.21.49-3.05,0s-.84-1.27,0-1.76Z"/>
          <path class="cls-3" d="m225,72.82c.84-.49,2.21-.49,3.05,0s.84,1.27,0,1.76-2.21.49-3.05,0c-.84-.49-.84-1.27,0-1.76Z"/>
          <path class="cls-13" d="m231.09,76.34c.84-.49,2.21-.49,3.05,0,.84.49.84,1.27,0,1.76-.84.49-2.21.49-3.05,0s-.84-1.27,0-1.76Z"/>
          <path class="cls-3" d="m234.17,88.58c.84-.49,2.21-.49,3.05,0s.84,1.27,0,1.76-2.21.49-3.05,0c-.84-.49-.84-1.27,0-1.76Z"/>
          <path class="cls-13" d="m238.74,85.94c.84-.49,2.21-.49,3.05,0,.84.49.84,1.27,0,1.76-.84.49-2.21.49-3.05,0-.84-.49-.84-1.27,0-1.76Z"/>
          <path class="cls-13" d="m237.18,79.86c.84-.49,2.21-.49,3.05,0s.84,1.27,0,1.76-2.21.49-3.05,0c-.84-.49-.84-1.27,0-1.76Z"/>
          <path class="cls-3" d="m223.47,66.67c.84-.49,2.21-.49,3.05,0s.84,1.27,0,1.76-2.21.49-3.05,0c-.84-.49-.84-1.27,0-1.76Z"/>
          <ellipse class="cls-13" cx="231.09" cy="71.06" rx="2.15" ry="1.24"/>
          <path class="cls-3" d="m235.66,73.7c.84-.49,2.21-.49,3.05,0s.84,1.27,0,1.76-2.21.49-3.05,0c-.84-.49-.84-1.27,0-1.76Z"/>
          <ellipse class="cls-13" cx="243.27" cy="78.1" rx="2.15" ry="1.24"/>
          <path class="cls-3" d="m243.31,83.31c.84-.49,2.21-.49,3.05,0,.84.49.84,1.27,0,1.76-.84.49-2.21.49-3.05,0s-.84-1.27,0-1.76Z"/>
          <path class="cls-13" d="m247.88,80.67c.84-.49,2.21-.49,3.05,0s.84,1.27,0,1.76-2.21.49-3.05,0c-.84-.49-.84-1.27,0-1.76Z"/>
        </g>
        <path class="cls-4" d="m236.86,95.65v4.68c-.49.01-.99-.08-1.37-.3l-33.96-19.61c-.72-.41-1.3-1.42-1.3-2.25v-1.69c0-.73.45-1.6,1.06-2.08-.47.41-.39.97.24,1.33l33.96,19.61c.38.22.88.32,1.37.31Z"/>
        <g>
          <path class="cls-13" d="m229.98,59.12l.03-.04c.33-.44.98-.58,1.46-.3l29.55,17.06c.48.28.6.86.27,1.3l-.03.04c-.33.44-.99.58-1.46.3l-29.55-17.06c-.48-.28-.6-.86-.27-1.3Z"/>
          <path class="cls-3" d="m229.98,59.12l.03-.04c.33-.44.98-.58,1.46-.3l21.97,12.69-1.23,1.64-21.96-12.68c-.48-.28-.6-.86-.27-1.3Z"/>
          <path class="cls-13" d="m232.43,55.84l.03-.04c.33-.44.98-.58,1.46-.3l29.55,17.06c.48.28.6.86.27,1.3l-.03.04c-.33.44-.99.58-1.46.3l-29.55-17.06c-.48-.28-.6-.86-.27-1.3Z"/>
          <path class="cls-3" d="m232.43,55.84l.03-.04c.33-.44.98-.58,1.46-.3l7.35,4.24-1.23,1.64-7.34-4.23c-.48-.28-.6-.86-.27-1.3Z"/>
          <path class="cls-13" d="m234.87,52.57l.03-.04c.33-.44.98-.58,1.46-.3l29.55,17.06c.48.28.6.86.27,1.3l-.03.04c-.33.44-.99.58-1.46.3l-29.55-17.06c-.48-.28-.6-.86-.27-1.3Z"/>
          <path class="cls-3" d="m234.87,52.57l.03-.04c.33-.44.98-.58,1.46-.31l15.39,8.86-1.23,1.64-15.39-8.86c-.48-.28-.6-.86-.27-1.3Z"/>
          <path class="cls-13" d="m237.31,49.29l.03-.04c.33-.44.98-.58,1.46-.3l29.55,17.06c.48.28.6.86.27,1.3l-.03.04c-.33.44-.99.58-1.46.3l-29.55-17.06c-.48-.28-.6-.86-.27-1.3Z"/>
          <path class="cls-3" d="m237.31,49.29l.03-.04c.33-.44.98-.58,1.46-.3l26.83,15.49-1.23,1.64-26.82-15.48c-.48-.28-.6-.86-.27-1.3Z"/>
        </g>
      </g>
    </g>
    <g id="Server-2" data-name="Server">
      <g>
        <path class="cls-17" d="m183.98,323.57l10.02-5.79c1.19-.69,3.14-.69,4.33,0l59.52,34.37c1.47.85,3.3-.21,3.3-1.91v-49.23"/>
        <path class="cls-17" d="m179.91,321.22l14.08-8.13c1.19-.69,3.14-.69,4.33,0l63.59,36.71c1.47.85,3.3-.21,3.3-1.91v-46.89"/>
        <path class="cls-17" d="m175.85,318.87l18.14-10.47c1.19-.69,3.14-.69,4.33,0l67.65,39.06c1.47.85,3.3-.21,3.3-1.91v-44.26"/>
        <path class="cls-17" d="m171.78,316.53l22.22-12.82c1.19-.69,3.14-.69,4.33,0l71.71,41.4c1.47.85,3.3-.21,3.3-1.91v-41.92"/>
      </g>
      <g>
        <path class="cls-4" d="m116.82,113.75l-64.73,37.37c-1.2.69-2.17,2.37-2.17,3.75v177.93c0,1.38.97,3.06,2.17,3.75l64.73,37.37c1.2.69,3.13.69,4.33,0l64.72-37.37c1.2-.69,2.16-2.37,2.16-3.75v-177.93c0-1.38-.97-3.06-2.16-3.75l-64.72-37.37c-1.2-.69-3.13-.69-4.33,0Z"/>
        <path class="cls-13" d="m188.04,154.86v177.93c0,1.38-.97,3.06-2.16,3.75l-64.73,37.37c-.59.35-1.38.52-2.16.52v-182.93c.78,0,1.56-.18,2.16-.52l64.73-37.37.59-.49.77-.64c.49.74.8,1.6.8,2.38Z"/>
        <g>
          <path class="cls-15" d="m60.22,172.38l48.48,27.99c1.2.69,2.17,2.37,2.16,3.75v18.45c0,1.38-.97,1.94-2.17,1.25l-48.48-27.99c-1.2-.69-2.17-2.37-2.17-3.75v-18.45c0-1.38.97-1.94,2.16-1.25Z"/>
          <path class="cls-3" d="m62.12,180.51c0,1.3.97,2.9,2.17,3.6l40.35,23.3c1.2.69,2.16.2,2.16-1.1,0-1.3-.97-2.9-2.17-3.6l-40.35-23.3c-1.2-.69-2.17-.2-2.17,1.1Z"/>
          <path class="cls-13" d="m62.12,189.89c0,1.3.97,2.9,2.17,3.6l40.35,23.3c1.2.69,2.16.2,2.16-1.1,0-1.3-.97-2.9-2.17-3.6l-40.35-23.3c-1.2-.69-2.17-.2-2.17,1.1Z"/>
          <path class="cls-3" d="m64.28,188.79l22.21,12.82v4.69s-22.21-12.82-22.21-12.82c-1.2-.69-2.17-2.3-2.17-3.6s.97-1.79,2.17-1.1Z"/>
        </g>
        <g>
          <path class="cls-15" d="m60.22,205.21l48.48,27.99c1.2.69,2.17,2.37,2.16,3.75v18.45c0,1.38-.97,1.94-2.17,1.25l-48.48-27.99c-1.2-.69-2.17-2.37-2.17-3.75v-18.45c0-1.38.97-1.94,2.16-1.25Z"/>
          <path class="cls-3" d="m62.12,213.34c0,1.3.97,2.9,2.17,3.6l40.35,23.3c1.2.69,2.16.2,2.16-1.1,0-1.3-.97-2.9-2.17-3.6l-40.35-23.3c-1.2-.69-2.17-.2-2.17,1.1Z"/>
          <path class="cls-13" d="m62.12,222.72c0,1.3.97,2.9,2.17,3.6l40.35,23.3c1.2.69,2.16.2,2.16-1.1,0-1.3-.97-2.9-2.17-3.6l-40.35-23.3c-1.2-.69-2.17-.2-2.17,1.1Z"/>
          <path class="cls-3" d="m64.28,221.63l34.39,19.86v4.69s-34.39-19.86-34.39-19.86c-1.2-.69-2.17-2.3-2.17-3.6s.97-1.79,2.17-1.1Z"/>
        </g>
        <g>
          <path class="cls-15" d="m60.22,238.04l48.48,27.99c1.2.69,2.17,2.37,2.16,3.75v18.45c0,1.38-.97,1.94-2.17,1.25l-48.48-27.99c-1.2-.69-2.17-2.37-2.17-3.75v-18.45c0-1.38.97-1.94,2.16-1.25Z"/>
          <path class="cls-3" d="m62.12,246.17c0,1.3.97,2.9,2.17,3.6l40.35,23.3c1.2.69,2.16.2,2.16-1.1,0-1.3-.97-2.9-2.17-3.6l-40.35-23.3c-1.2-.69-2.17-.2-2.17,1.1Z"/>
          <path class="cls-13" d="m62.12,255.56c0,1.3.97,2.9,2.17,3.6l40.35,23.3c1.2.69,2.16.2,2.16-1.1,0-1.3-.97-2.9-2.17-3.6l-40.35-23.3c-1.2-.69-2.17-.2-2.17,1.1Z"/>
          <path class="cls-3" d="m64.28,254.46l14.08,8.13v4.69s-14.08-8.13-14.08-8.13c-1.2-.69-2.17-2.3-2.17-3.6s.97-1.79,2.17-1.1Z"/>
        </g>
        <g>
          <path class="cls-15" d="m60.22,270.88l48.48,27.99c1.2.69,2.17,2.37,2.16,3.75v18.45c0,1.38-.97,1.94-2.17,1.25l-48.48-27.99c-1.2-.69-2.17-2.37-2.17-3.75v-18.45c0-1.38.97-1.94,2.16-1.25Z"/>
          <path class="cls-3" d="m62.12,279.01c0,1.3.97,2.9,2.17,3.6l40.35,23.3c1.2.69,2.16.2,2.16-1.1,0-1.3-.97-2.9-2.17-3.6l-40.35-23.3c-1.2-.69-2.17-.2-2.17,1.1Z"/>
          <path class="cls-13" d="m62.12,288.39c0,1.3.97,2.9,2.17,3.6l40.35,23.3c1.2.69,2.16.2,2.16-1.1,0-1.3-.97-2.9-2.17-3.6l-40.35-23.3c-1.2-.69-2.17-.2-2.17,1.1Z"/>
          <path class="cls-3" d="m64.28,287.29l22.21,12.82v4.69s-22.21-12.82-22.21-12.82c-1.2-.69-2.17-2.3-2.17-3.6s.97-1.79,2.17-1.1Z"/>
        </g>
        <g>
          <path class="cls-15" d="m60.22,303.71l48.48,27.99c1.2.69,2.17,2.37,2.16,3.75v18.45c0,1.38-.97,1.94-2.17,1.25l-48.48-27.99c-1.2-.69-2.17-2.37-2.17-3.75v-18.45c0-1.38.97-1.94,2.16-1.25Z"/>
          <path class="cls-3" d="m62.12,311.84c0,1.3.97,2.9,2.17,3.6l40.35,23.3c1.2.69,2.16.2,2.16-1.1,0-1.3-.97-2.9-2.17-3.6l-40.35-23.3c-1.2-.69-2.17-.2-2.17,1.1Z"/>
          <path class="cls-13" d="m62.12,321.22c0,1.3.97,2.9,2.17,3.6l40.35,23.3c1.2.69,2.16.2,2.16-1.1,0-1.3-.97-2.9-2.17-3.6l-40.35-23.3c-1.2-.69-2.17-.2-2.17,1.1Z"/>
          <path class="cls-3" d="m64.28,320.13l30.33,17.51v4.69s-30.33-17.51-30.33-17.51c-1.2-.69-2.17-2.3-2.17-3.6s.97-1.79,2.17-1.1Z"/>
        </g>
        <g>
          <path class="cls-4" d="m129.14,202.8c2.24-1.3,4.06-.12,4.06,2.65v107.27c0,2.76-1.82,6.05-4.06,7.35-2.24,1.3-4.06.12-4.06-2.65v-107.27c0-2.76,1.82-6.05,4.06-7.35Z"/>
          <path class="cls-13" d="m129.14,317.69c1.12-.65,2.03-2.29,2.03-3.67v-107.57c0-1.38-.91-1.98-2.03-1.33-1.12.65-2.03,2.29-2.03,3.67v107.57c0,1.38.91,1.97,2.03,1.33Z"/>
          <path class="cls-3" d="m129.14,317.69c1.12-.65,2.03-2.29,2.03-3.67v-51.43s-4.06,2.35-4.06,2.35v51.43c0,1.38.91,1.97,2.03,1.33Z"/>
          <path class="cls-4" d="m141.33,195.76c2.24-1.3,4.06-.12,4.06,2.65v107.27c0,2.76-1.82,6.05-4.06,7.36-2.24,1.3-4.06.12-4.06-2.65v-107.27c0-2.76,1.82-6.05,4.06-7.35Z"/>
          <path class="cls-3" d="m141.33,310.66c1.12-.65,2.03-2.29,2.03-3.67v-107.57c0-1.38-.91-1.98-2.03-1.33s-2.03,2.29-2.03,3.67v107.57c0,1.38.91,1.98,2.03,1.33Z"/>
          <path class="cls-4" d="m153.51,188.73c2.24-1.3,4.06-.12,4.06,2.65v107.27c0,2.76-1.82,6.05-4.06,7.35-2.24,1.3-4.06.12-4.06-2.65v-107.27c0-2.76,1.82-6.05,4.06-7.35Z"/>
          <path class="cls-13" d="m153.51,303.62c1.12-.65,2.03-2.29,2.03-3.67v-107.57c0-1.38-.91-1.98-2.03-1.33-1.12.65-2.03,2.29-2.03,3.67v107.57c0,1.38.91,1.98,2.03,1.33Z"/>
          <path class="cls-3" d="m153.51,303.62c1.12-.65,2.03-2.29,2.03-3.67v-83.09s-4.06,2.35-4.06,2.35v83.09c0,1.38.91,1.98,2.03,1.33Z"/>
          <path class="cls-4" d="m165.7,181.69c2.24-1.3,4.06-.12,4.06,2.65v107.27c0,2.76-1.82,6.05-4.06,7.35-2.24,1.3-4.06.12-4.06-2.65v-107.27c0-2.76,1.82-6.05,4.06-7.35Z"/>
          <path class="cls-13" d="m165.7,296.59c1.12-.65,2.03-2.29,2.03-3.67v-107.57c0-1.38-.91-1.98-2.03-1.33s-2.03,2.29-2.03,3.67v107.57c0,1.38.91,1.97,2.03,1.33Z"/>
          <path class="cls-3" d="m165.7,296.59c1.12-.65,2.03-2.29,2.03-3.67v-18.16s-4.06,2.35-4.06,2.35v18.16c0,1.38.91,1.97,2.03,1.33Z"/>
          <path class="cls-4" d="m177.88,174.66c2.24-1.3,4.06-.12,4.06,2.65v107.27c0,2.76-1.82,6.05-4.06,7.35-2.24,1.3-4.06.12-4.06-2.65v-107.27c0-2.76,1.82-6.05,4.06-7.35Z"/>
          <path class="cls-13" d="m177.88,289.55c1.12-.65,2.03-2.29,2.03-3.67v-107.57c0-1.38-.91-1.98-2.03-1.33-1.12.65-2.03,2.29-2.03,3.67v107.57c0,1.38.91,1.98,2.03,1.33Z"/>
          <path class="cls-3" d="m177.88,289.55c1.12-.65,2.03-2.29,2.03-3.67v-56.12s-4.06,2.35-4.06,2.35v56.12c0,1.38.91,1.98,2.03,1.33Z"/>
        </g>
        <g>
          <path class="cls-4" d="m126.81,333.12l53.4-30.83c.96-.55,1.73-.1,1.73,1v19.45c0,1.1-.78,2.45-1.73,3l-53.4,30.83c-.96.55-1.73.1-1.73-1v-19.45c0-1.1.78-2.45,1.73-3Z"/>
          <g>
            <path class="cls-13" d="m129,338.89c0,1.3.97,1.79,2.17,1.1l44.68-25.81c1.2-.69,2.17-2.3,2.17-3.6s-.97-1.79-2.16-1.1l-44.68,25.81c-1.2.69-2.16,2.3-2.16,3.6Z"/>
            <path class="cls-3" d="m129,338.89c0,1.3.97,1.79,2.17,1.09l32.5-18.77v-4.69s-32.5,18.77-32.5,18.77c-1.2.69-2.16,2.3-2.16,3.6Z"/>
          </g>
          <g>
            <path class="cls-13" d="m129,348.27c0,1.3.97,1.79,2.17,1.1l44.68-25.81c1.2-.69,2.17-2.3,2.17-3.6s-.97-1.79-2.16-1.1l-44.68,25.81c-1.2.69-2.16,2.3-2.16,3.59Z"/>
            <path class="cls-3" d="m129,348.27c0,1.3.97,1.79,2.17,1.1l12.19-7.04v-4.69s-12.19,7.04-12.19,7.04c-1.2.69-2.16,2.3-2.16,3.59Z"/>
          </g>
        </g>
        <path class="cls-15" d="m185.87,151.12l-64.72-37.37c-1.2-.69-3.13-.69-4.33,0l-64.72,37.37c-1.2.69-1.2,1.81,0,2.5l64.73,37.37c1.2.69,3.13.69,4.33,0l64.72-37.37c1.2-.69,1.2-1.81,0-2.5Z"/>
      </g>
      <g>
        <path class="cls-13" d="m117.68,182.1l-50.21-28.99c-.72-.41-1.3-1.42-1.3-2.25v-1.69c0-.83.58-1.84,1.3-2.25l50.21-28.99c.72-.41,1.88-.41,2.6,0l50.21,28.99c.72.41,1.3,1.42,1.3,2.25v1.69c0,.83-.58,1.84-1.3,2.25l-50.21,28.99c-.72.41-1.88.41-2.6,0Z"/>
        <path class="cls-15" d="m67.48,148.43l50.21,28.99c.72.41,1.88.41,2.6,0l50.21-28.99c.72-.41.72-1.09,0-1.5l-50.21-27.99c-.72-.41-1.88-.41-2.6,0l-50.21,27.99c-.72.41-.72,1.09,0,1.5Z"/>
        <path class="cls-4" d="m118.99,177.72v4.69c-.47,0-.94-.1-1.3-.31l-50.21-28.99c-.72-.41-1.3-1.42-1.3-2.25v-1.69c0-.73.45-1.6,1.06-2.08-.47.41-.39.97.24,1.33l50.21,28.99c.36.21.83.31,1.3.31Z"/>
      </g>
      <g>
        <path class="cls-13" d="m117.68,168.03l-33.96-19.61c-.72-.41-1.3-1.42-1.3-2.25v-1.69c0-.83.58-1.84,1.3-2.25l21.77-12.57c.72-.41,1.7-1.29,2.19-1.95l10.4-14.01c.49-.67,1.48-.87,2.19-.45l33.96,19.61c.72.41,1.3,1.42,1.3,2.25v11.07c0,.83-.58,1.84-1.3,2.25l-33.96,19.61c-.72.41-1.88.41-2.6,0Z"/>
        <path class="cls-15" d="m120.28,163.34l21.77-12.57c.35-.2.75-.51,1.14-.84.41-.36.8-.77,1.06-1.11l10.4-14.01c.49-.67.31-1.54-.4-1.95l-33.96-19.61c-.72-.41-1.7-.21-2.19.45l-10.4,14.01c-.49.67-1.3,1.62-2.01,2.03l-21.95,12.49c-.72.41-.72,1.09,0,1.5l33.96,19.61c.72.41,1.88.41,2.6,0Z"/>
        <path class="cls-4" d="m154.24,132.85l-33.96-19.61c-.72-.41-1.7-.21-2.19.45l-10.4,14.01c-.26.35-.65.74-1.06,1.11,0,0,36.55,21.12,36.56,21.11.41-.36.8-.76,1.06-1.11l10.4-14.01c.49-.67.31-1.54-.4-1.95Z"/>
        <g>
          <path class="cls-3" d="m91.96,142.58c.84-.49,2.21-.49,3.05,0,.84.49.84,1.27,0,1.76-.84.49-2.21.49-3.05,0s-.84-1.27,0-1.76Z"/>
          <path class="cls-3" d="m98.06,146.1c.84-.49,2.21-.49,3.05,0s.84,1.27,0,1.76-2.21.49-3.05,0c-.84-.49-.84-1.27,0-1.76Z"/>
          <path class="cls-13" d="m104.15,149.61c.84-.49,2.21-.49,3.05,0,.84.49.84,1.27,0,1.76-.84.49-2.21.49-3.05,0s-.84-1.27,0-1.76Z"/>
          <path class="cls-13" d="m110.24,153.13c.84-.49,2.21-.49,3.05,0s.84,1.27,0,1.76-2.21.49-3.05,0c-.84-.49-.84-1.27,0-1.76Z"/>
          <path class="cls-3" d="m96.53,139.94c.84-.49,2.21-.49,3.05,0s.84,1.27,0,1.76-2.21.49-3.05,0c-.84-.49-.84-1.27,0-1.76Z"/>
          <ellipse class="cls-13" cx="104.15" cy="144.34" rx="2.15" ry="1.24"/>
          <path class="cls-3" d="m108.72,146.98c.84-.49,2.21-.49,3.05,0s.84,1.27,0,1.76-2.21.49-3.05,0c-.84-.49-.84-1.27,0-1.76Z"/>
          <ellipse class="cls-13" cx="116.34" cy="151.37" rx="2.15" ry="1.24"/>
          <path class="cls-13" d="m101.1,137.3c.84-.49,2.21-.49,3.05,0s.84,1.27,0,1.76-2.21.49-3.05,0c-.84-.49-.84-1.27,0-1.76Z"/>
          <path class="cls-3" d="m107.2,140.82c.84-.49,2.21-.49,3.05,0,.84.49.84,1.27,0,1.76-.84.49-2.21.49-3.05,0s-.84-1.27,0-1.76Z"/>
          <path class="cls-13" d="m113.29,144.34c.84-.49,2.21-.49,3.05,0s.84,1.27,0,1.76-2.21.49-3.05,0c-.84-.49-.84-1.27,0-1.76Z"/>
          <path class="cls-3" d="m116.37,156.58c.84-.49,2.21-.49,3.05,0,.84.49.84,1.27,0,1.76-.84.49-2.21.49-3.05,0s-.84-1.27,0-1.76Z"/>
          <path class="cls-13" d="m120.94,153.94c.84-.49,2.21-.49,3.05,0s.84,1.27,0,1.76-2.21.49-3.05,0c-.84-.49-.84-1.27,0-1.76Z"/>
          <path class="cls-13" d="m119.38,147.86c.84-.49,2.21-.49,3.05,0,.84.49.84,1.27,0,1.76-.84.49-2.21.49-3.05,0s-.84-1.27,0-1.76Z"/>
          <ellipse class="cls-3" cx="107.2" cy="135.55" rx="2.15" ry="1.24"/>
          <path class="cls-13" d="m111.77,138.18c.84-.49,2.21-.49,3.05,0s.84,1.27,0,1.76-2.21.49-3.05,0c-.84-.49-.84-1.27,0-1.76Z"/>
          <ellipse class="cls-3" cx="119.38" cy="142.58" rx="2.15" ry="1.24"/>
          <path class="cls-13" d="m123.95,145.22c.84-.49,2.21-.49,3.05,0s.84,1.27,0,1.76-2.21.49-3.05,0c-.84-.49-.84-1.27,0-1.76Z"/>
          <path class="cls-3" d="m125.51,151.31c.84-.49,2.21-.49,3.05,0s.84,1.27,0,1.76-2.21.49-3.05,0c-.84-.49-.84-1.27,0-1.76Z"/>
          <ellipse class="cls-13" cx="131.6" cy="149.55" rx="2.15" ry="1.24"/>
        </g>
        <path class="cls-4" d="m119.06,163.65v4.68c-.49,0-.99-.08-1.37-.3l-33.96-19.61c-.72-.41-1.3-1.42-1.3-2.25v-1.69c0-.73.45-1.6,1.06-2.08-.47.41-.39.97.24,1.33l33.96,19.61c.38.22.88.32,1.37.31Z"/>
        <g>
          <path class="cls-13" d="m112.18,127.12l.03-.04c.33-.44.98-.58,1.46-.3l29.55,17.06c.48.28.6.86.27,1.3l-.03.04c-.33.44-.99.58-1.46.3l-29.55-17.06c-.48-.28-.6-.86-.27-1.3Z"/>
          <path class="cls-3" d="m112.18,127.12l.03-.04c.33-.44.98-.58,1.46-.3l21.97,12.69-1.23,1.64-21.96-12.68c-.48-.28-.6-.86-.27-1.3Z"/>
          <path class="cls-13" d="m114.63,123.84l.03-.04c.33-.44.98-.58,1.46-.3l29.55,17.06c.48.28.6.86.27,1.3l-.03.04c-.33.44-.99.58-1.46.3l-29.55-17.06c-.48-.28-.6-.86-.27-1.3Z"/>
          <path class="cls-3" d="m114.63,123.84l.03-.04c.33-.44.98-.58,1.46-.3l7.35,4.24-1.23,1.64-7.34-4.23c-.48-.28-.6-.86-.27-1.3Z"/>
          <path class="cls-13" d="m117.07,120.57l.03-.04c.33-.44.98-.58,1.46-.3l29.55,17.06c.48.28.6.86.27,1.3l-.03.04c-.33.44-.99.58-1.46.3l-29.55-17.06c-.48-.28-.6-.86-.27-1.3Z"/>
          <path class="cls-3" d="m117.07,120.57l.03-.04c.33-.44.98-.58,1.46-.31l15.39,8.86-1.23,1.64-15.39-8.86c-.48-.28-.6-.86-.27-1.3Z"/>
          <path class="cls-13" d="m119.51,117.29l.03-.04c.33-.44.98-.58,1.46-.3l29.55,17.06c.48.28.6.86.27,1.3l-.03.04c-.33.44-.99.58-1.46.3l-29.55-17.06c-.48-.28-.6-.86-.27-1.3Z"/>
          <path class="cls-3" d="m119.51,117.29l.03-.04c.33-.44.98-.58,1.46-.3l26.83,15.49-1.23,1.64-26.82-15.48c-.48-.28-.6-.86-.27-1.3Z"/>
        </g>
      </g>
    </g>
  </g>
  <g id="Desk">
    <g id="Desk-2" data-name="Desk">
      <g id="Desk-3" data-name="Desk">
        <g>
          <path class="cls-11" d="m256.52,308.8v54.77c0,.41.29.92.65,1.12l52.5,30.27c.36.21.94.21,1.3,0l1.75-1.01c.36-.21.65-.71.65-1.12v-54.77c0-.41-.34-.75-.75-.75l-55.34-29.26c-.41,0-.75.34-.75.75Z"/>
          <path class="cls-6" d="m312.62,337.31h-1.55c-.41,0-.75.34-.75.75v56.53c0,.41.29.58.65.38l1.75-1.01c.36-.21.65-.71.65-1.12v-54.77c0-.41-.34-.75-.75-.75Z"/>
        </g>
        <g>
          <path class="cls-5" d="m361.07,246.05v54.77c0,.41.29.92.65,1.12l54.57,31.48c.36.21.94.21,1.3,0l1.75-1.01c.36-.21.65-.71.65-1.12v-54.77c0-.41-.34-.75-.75-.75l-57.41-30.47c-.41,0-.75.34-.75.75Z"/>
          <path class="cls-14" d="m419.23,275.77h-1.55c-.41,0-.75.34-.75.75v56.53c0,.41.29.58.65.38l1.75-1.01c.36-.21.65-.71.65-1.12v-54.77c0-.41-.34-.75-.75-.75Z"/>
        </g>
        <g>
          <path class="cls-6" d="m251.4,307.08v-.52c0-.83.58-1.84,1.3-2.25l110.12-63.58c.72-.41,1.88-.41,2.6,0l58.33,33.68c.72.41,1.3,1.42,1.3,2.25v.52c0,.83-.58,1.84-1.3,2.25l-110.12,63.58c-.72.41-1.88.41-2.6,0l-58.33-33.68c-.72-.41-1.3-1.42-1.3-2.25Z"/>
          <path class="cls-14" d="m312.34,339.81v3.52c-.47,0-.94-.11-1.3-.31l-58.33-33.68c-.72-.42-1.3-1.42-1.3-2.25v-.52c0-.73.45-1.61,1.06-2.08-.47.4-.39.96.24,1.33l58.33,33.68c.36.21.83.31,1.3.31Z"/>
          <path class="cls-11" d="m252.7,305.82l58.33,33.68c.72.41,1.88.41,2.6,0l110.12-63.58c.72-.41.72-1.09,0-1.5l-58.33-33.68c-.72-.41-1.88-.41-2.6,0l-110.12,63.58c-.72.41-.72,1.09,0,1.5Z"/>
          <path class="cls-14" d="m346.72,282.3l32.98-19.08c.59-.34,1.54-.34,2.13,0l10.44,6.1c.59.34.59.89,0,1.23l-32.98,19.08c-.59.34-1.54.34-2.13,0l-10.44-6.1c-.59-.34-.59-.89,0-1.23Z"/>
          <path class="cls-14" d="m352.57,270.47l-.03-.02-3.49-2.02c-.48-.28-.48-.72,0-1l27.4-15.82c.48-.28.48-.72,0-1l-.28-.16c-.48-.28-1.25-.28-1.73,0l-26.63,15.38c-.48.28-.92.3-.94.05,0-.15,0-.31.03-.46l1.51-7.82c.1-.54-.2-1.2-.68-1.48l-.27-.16c-.48-.27-.95-.06-1.06.49l-1.74,9.08c-.06.32-.07.67-.02,1.01.08.55-.12,1.18-.59,1.46l-16.62,9.6c-.48.28-.48.72,0,1l.28.16c.48.28,1.25.28,1.73,0l15.89-9.17c.48-.28.9-.48.93-.45.02.02.04.03.07.05l5.4,3.12c.48.28,1.25.28,1.73,0,2.37-1.36,8.93-5.14,11.3-6.51.48-.28.64-.63.35-.79s-.92-.1-1.42.14l-10.2,4.91c-.5.24-.91.43-.93.42Z"/>
        </g>
      </g>
      <g id="Device">
        <g id="Keyboard">
          <path class="cls-4" d="m381.69,260.7l9.88,5.7c.59.34,1.07,1.13,1.07,1.77s-.48,1.43-1.07,1.77l-31.9,18.42c-.59.34-1.54.34-2.13,0l-9.88-5.7c-.59-.34-1.07-1.13-1.07-1.77s.48-1.43,1.07-1.77l31.9-18.42c.59-.34,1.54-.34,2.13,0Z"/>
          <path class="cls-13" d="m358.6,288.62c-.39,0-.77-.09-1.07-.26l-9.88-5.7c-.59-.34-1.07-1.13-1.07-1.77s.48-1.43,1.07-1.77l1.03-.59h9.92v10.09Z"/>
          <path class="cls-15" d="m347.65,279.12l31.9-18.42c.59-.34,1.54-.34,2.13,0l9.88,5.7c.59.34.59.89,0,1.23l-31.9,18.42c-.59.34-1.54.34-2.13,0l-9.88-5.7c-.59-.34-.59-.89,0-1.23Z"/>
          <path class="cls-3" d="m376.81,269.2l1-.58s.04-.07,0-.09l-1.16-.67s-.12-.03-.16,0l-1,.58s-.04.07,0,.09l1.16.67s.12.03.16,0Zm-1.98-2.3l-1,.58s-.04.07,0,.09l1.16.67s.12.03.16,0l1-.58s.04-.07,0-.09l-1.16-.67s-.12-.03-.16,0Zm-3.24,1.87l-1.7.98s-.04.07,0,.09l1.16.67s.12.03.16,0l1.7-.98s.04-.07,0-.09l-1.16-.67s-.12-.03-.16,0Zm1.78-1.03l-1,.58s-.04.07,0,.09l1.16.67s.12.03.16,0l1-.58s.04-.07,0-.09l-1.16-.67s-.12-.03-.16,0Zm-3.94,2.27l-1,.58s-.04.07,0,.09l1.16.67s.12.03.16,0l1-.58s.04-.07,0-.09l-1.16-.67s-.12-.03-.16,0Zm-1.47.85l-1,.58s-.04.07,0,.09l1.16.67s.12.03.16,0l1-.58s.04-.07,0-.09l-1.16-.67s-.12-.03-.16,0Zm4.57,2.73l1-.58s.04-.07,0-.09l-1.16-.67s-.12-.03-.16,0l-1,.58s-.04.07,0,.09l1.16.67s.12.03.16,0Zm-1.47.85l1-.58s.04-.07,0-.09l-1.16-.67s-.12-.03-.16,0l-1,.58s-.04.07,0,.09l1.16.67s.12.03.16,0Zm-1.47.85l1-.58s.04-.07,0-.09l-1.16-.67s-.12-.03-.16,0l-1,.58s-.04.07,0,.09l1.16.67s.12.03.16,0Zm-1.47.85l1-.58s.04-.07,0-.09l-1.16-.67s-.12-.03-.16,0l-1,.58s-.04.07,0,.09l1.16.67s.12.03.16,0Zm7.23-6.09l1-.58s.04-.07,0-.09l-1.16-.67s-.12-.03-.16,0l-1,.58s-.04.07,0,.09l1.16.67s.12.03.16,0Zm-1.35,2.7l2.24-1.29s.04-.07,0-.09l-2.82-1.63s-.12-.03-.16,0l-1.16.67s-.04.07,0,.09l1.49.86s.05.07,0,.09l-.93.54s-.04.07,0,.09l1.16.67s.12.03.16,0Zm-7.5-1.03l-1,.58s-.04.07,0,.09l1.16.67s.12.03.16,0l1-.58s.04-.07,0-.09l-1.16-.67s-.12-.03-.16,0Zm-1.47.85l-1,.58s-.04.07,0,.09l1.16.67s.12.03.16,0l1-.58s.04-.07,0-.09l-1.16-.67s-.12-.03-.16,0Zm-7.34,9.5s.12.03.16,0l1-.58s.04-.07,0-.09l-1.16-.67s-.12-.03-.16,0l-1,.58s-.04.07,0,.09l1.16.67Zm-4.41-2.72l-1,.58s-.04.07,0,.09l1.16.67s.12.03.16,0l1-.58s.04-.07,0-.09l-1.16-.67s-.12-.03-.16,0Zm2.36,1.99s.12.03.16,0l1-.58s.04-.07,0-.09l-1.16-.67s-.12-.03-.16,0l-1,.58s-.04.07,0,.09l1.16.67Zm4.64,1.25l1-.58s.04-.07,0-.09l-1.16-.67s-.12-.03-.16,0l-1,.58s-.04.07,0,.09l1.16.67s.12.03.16,0Zm-1.63.84s.12.03.16,0l1-.58s.04-.07,0-.09l-1.16-.67s-.12-.03-.16,0l-1,.58s-.04.07,0,.09l1.16.67Zm-3.9-4.93l-1,.58s-.04.07,0,.09l1.16.67s.12.03.16,0l1-.58s.04-.07,0-.09l-1.16-.67s-.12-.03-.16,0Zm7.34-4.24l-1,.58s-.04.07,0,.09l1.16.67s.12.03.16,0l1-.58s.04-.07,0-.09l-1.16-.67s-.12-.03-.16,0Zm-5.87,3.39l-1,.58s-.04.07,0,.09l1.16.67s.12.03.16,0l1-.58s.04-.07,0-.09l-1.16-.67s-.12-.03-.16,0Zm7.34-4.24l-1,.58s-.04.07,0,.09l1.16.67s.12.03.16,0l1-.58s.04-.07,0-.09l-1.16-.67s-.12-.03-.16,0Zm-2.94,1.7l-1,.58s-.04.07,0,.09l1.16.67s.12.03.16,0l1-.58s.04-.07,0-.09l-1.16-.67s-.12-.03-.16,0Zm-1.47.85l-1,.58s-.04.07,0,.09l1.16.67s.12.03.16,0l1-.58s.04-.07,0-.09l-1.16-.67s-.12-.03-.16,0Zm-1.47.85l-1,.58s-.04.07,0,.09l1.16.67s.12.03.16,0l1-.58s.04-.07,0-.09l-1.16-.67s-.12-.03-.16,0Zm7.5,1.03l1-.58s.04-.07,0-.09l-1.16-.67s-.12-.03-.16,0l-1,.58s-.04.07,0,.09l1.16.67s.12.03.16,0Zm12.89-12.81l-1,.58s-.04.07,0,.09l1.16.67s.12.03.16,0l1-.58s.04-.07,0-.09l-1.16-.67s-.12-.03-.16,0Zm-1.78,1.03l-1,.58s-.04.07,0,.09l1.16.67s.12.03.16,0l1-.58s.04-.07,0-.09l-1.16-.67s-.12-.03-.16,0Zm3.24-1.87l-1,.58s-.04.07,0,.09l1.16.67s.12.03.16,0l1-.58s.04-.07,0-.09l-1.16-.67s-.12-.03-.16,0Zm-7.6,7.84l1-.58s.04-.07,0-.09l-1.16-.67s-.12-.03-.16,0l-1,.58s-.04.07,0,.09l1.16.67s.12.03.16,0Zm9.23-8.68s-.12-.03-.16,0l-1,.58s-.04.07,0,.09l1.16.67s.12.03.16,0l1-.58s.04-.07,0-.09l-1.16-.67Zm-14.52,13.65l1-.58s.04-.07,0-.09l-1.16-.67s-.12-.03-.16,0l-1,.58s-.04.07,0,.09l1.16.67s.12.03.16,0Zm18-10.39l1-.58s.04-.07,0-.09l-1.16-.67s-.12-.03-.16,0l-1,.58s-.04.07,0,.09l1.16.67s.12.03.16,0Zm-3.13-.11l1-.58s.04-.07,0-.09l-1.16-.67s-.12-.03-.16,0l-1,.58s-.04.07,0,.09l1.16.67s.12.03.16,0Zm1.31-2.19s-.12-.03-.16,0l-1,.58s-.04.07,0,.09l1.16.67s.12.03.16,0l1-.58s.04-.07,0-.09l-1.16-.67Zm.31-.18l2.82,1.63s.12.03.16,0l1-.58s.04-.07,0-.09l-2.82-1.63s-.12-.03-.16,0l-1,.58s-.04.07,0,.09Zm-3.41,1.87l-1,.58s-.04.07,0,.09l1.16.67s.12.03.16,0l1-.58s.04-.07,0-.09l-1.16-.67s-.12-.03-.16,0Zm-11.05,6.38l-1,.58s-.04.07,0,.09l1.16.67s.12.03.16,0l1-.58s.04-.07,0-.09l-1.16-.67s-.12-.03-.16,0Zm14.34-4.93s.12.03.16,0l1-.58s.04-.07,0-.09l-1.16-.67s-.12-.03-.16,0l-1,.58s-.04.07,0,.09l1.16.67Zm-12.87,4.08l-1,.58s-.04.07,0,.09l1.16.67s.12.03.16,0l1-.58s.04-.07,0-.09l-1.16-.67s-.12-.03-.16,0Zm-11,9.71s.12.03.16,0l1-.58s.04-.07,0-.09l-1.16-.67s-.12-.03-.16,0l-1,.58s-.04.07,0,.09l1.16.67Zm-2.21-2.08l-1,.58s-.04.07,0,.09l1.16.67s.12.03.16,0l1-.58s.04-.07,0-.09l-1.16-.67s-.12-.03-.16,0Zm3.84,1.23l1-.58s.04-.07,0-.09l-1.16-.67s-.12-.03-.16,0l-1,.58s-.04.07,0,.09l1.16.67s.12.03.16,0Zm1.47-.85l1-.58s.04-.07,0-.09l-1.16-.67s-.12-.03-.16,0l-1,.58s-.04.07,0,.09l1.16.67s.12.03.16,0Zm1.47-.85l1-.58s.04-.07,0-.09l-1.16-.67s-.12-.03-.16,0l-1,.58s-.04.07,0,.09l1.16.67s.12.03.16,0Zm-5.3-.39l-1,.58s-.04.07,0,.09l1.16.67s.12.03.16,0l1-.58s.04-.07,0-.09l-1.16-.67s-.12-.03-.16,0Zm1.47-.85l-1,.58s-.04.07,0,.09l1.16.67s.12.03.16,0l1-.58s.04-.07,0-.09l-1.16-.67s-.12-.03-.16,0Zm5.87-3.39l-1,.58s-.04.07,0,.09l1.16.67s.12.03.16,0l1-.58s.04-.07,0-.09l-1.16-.67s-.12-.03-.16,0Zm-1.47.85l-1,.58s-.04.07,0,.09l1.16.67s.12.03.16,0l1-.58s.04-.07,0-.09l-1.16-.67s-.12-.03-.16,0Zm2.94-1.7l-1,.58s-.04.07,0,.09l1.16.67s.12.03.16,0l1-.58s.04-.07,0-.09l-1.16-.67s-.12-.03-.16,0Zm-5.87,3.39l-1,.58s-.04.07,0,.09l1.16.67s.12.03.16,0l1-.58s.04-.07,0-.09l-1.16-.67s-.12-.03-.16,0Zm1.47-.85l-1,.58s-.04.07,0,.09l1.16.67s.12.03.16,0l1-.58s.04-.07,0-.09l-1.16-.67s-.12-.03-.16,0Zm-1.07,5.98l1-.58s.04-.07,0-.09l-1.16-.67s-.12-.03-.16,0l-1,.58s-.04.07,0,.09l1.16.67s.12.03.16,0Zm-8.61-.87l-1.16-.67s-.12-.03-.16,0l-1,.58s-.04.07,0,.09l1.16.67s.12.03.16,0l1-.58s.04-.07,0-.09Zm2.2.65l-1.16-.67s-.12-.03-.16,0l-1.55.89s-.04.07,0,.09l1.16.67s.12.03.16,0l1.55-.89s.04-.07,0-.09Zm-3.98-1.94l-1.16-.67s-.12-.03-.16,0l-1.24.71s-.04.07,0,.09l1.16.67s.12.03.16,0l1.24-.71s.04-.07,0-.09Zm.95-.55s.12.03.16,0l1-.58s.04-.07,0-.09l-1.16-.67s-.12-.03-.16,0l-1,.58s-.04.07,0,.09l1.16.67Zm5.08,3.22l-1.16-.67s-.12-.03-.16,0l-1.93,1.12s-.04.07,0,.09l1.16.67s.12.03.16,0l1.93-1.12s.04-.07,0-.09Zm.96,1.36l-1.16-.67s-.12-.03-.16,0l-1.24.71s-.04.07,0,.09l1.16.67s.12.03.16,0l1.24-.71s.04-.07,0-.09Zm4.87-10.89s.12.03.16,0l1-.58s.04-.07,0-.09l-1.16-.67s-.12-.03-.16,0l-1,.58s-.04.07,0,.09l1.16.67Zm-2.94,1.7s.12.03.16,0l1-.58s.04-.07,0-.09l-1.16-.67s-.12-.03-.16,0l-1,.58s-.04.07,0,.09l1.16.67Zm-6.51,3.76s.12.03.16,0l1-.58s.04-.07,0-.09l-1.16-.67s-.12-.03-.16,0l-1,.58s-.04.07,0,.09l1.16.67Zm7.98-4.61s.12.03.16,0l1-.58s.04-.07,0-.09l-1.16-.67s-.12-.03-.16,0l-1,.58s-.04.07,0,.09l1.16.67Zm-2.94,1.7s.12.03.16,0l1-.58s.04-.07,0-.09l-1.16-.67s-.12-.03-.16,0l-1,.58s-.04.07,0,.09l1.16.67Zm.34,8.45s-.12-.03-.16,0l-1.55.89s-.04.07,0,.09l1.16.67s.12.03.16,0l1.55-.89s.04-.07,0-.09l-1.16-.67Zm-2.45-7.24s.12.03.16,0l1-.58s.04-.07,0-.09l-1.16-.67s-.12-.03-.16,0l-1,.58s-.04.07,0,.09l1.16.67Zm-1.47.85s.12.03.16,0l1-.58s.04-.07,0-.09l-1.16-.67s-.12-.03-.16,0l-1,.58s-.04.07,0,.09l1.16.67Zm31.11-9.31s-.12-.03-.16,0l-2.47,1.43s-.04.07,0,.09l1.16.67s.12.03.16,0l2.47-1.43s.04-.07,0-.09l-1.16-.67Zm-3.24,1.87s-.12-.03-.16,0l-1,.58s-.04.07,0,.09l1.16.67s.12.03.16,0l1-.58s.04-.07,0-.09l-1.16-.67Zm-19.89,11l1-.58s.04-.07,0-.09l-1.16-.67s-.12-.03-.16,0l-1,.58s-.04.07,0,.09l1.16.67s.12.03.16,0Zm16.95-9.31s-.12-.03-.16,0l-1,.58s-.04.07,0,.09l1.16.67s.12.03.16,0l1-.58s.04-.07,0-.09l-1.16-.67Zm7.65-4.42s-.12-.03-.16,0l-1,.58s-.04.07,0,.09l1.16.67s.12.03.16,0l1-.58s.04-.07,0-.09l-1.16-.67Zm2.63-.18l-2.82-1.63s-.12-.03-.16,0l-1,.58s-.04.07,0,.09l2.82,1.63s.12.03.16,0l1-.58s.04-.07,0-.09Zm-15.76,7.76s-.12-.03-.16,0l-1.24.71s-.04.07,0,.09l1.16.67s.12.03.16,0l1.24-.71s.04-.07,0-.09l-1.16-.67Zm3.71-2.14s-.12-.03-.16,0l-1.55.89s-.04.07,0,.09l1.16.67s.12.03.16,0l1.55-.89s.04-.07,0-.09l-1.16-.67Zm-7.11,4.1s-.12-.03-.16,0l-8.27,4.77s-.04.07,0,.09l1.16.67s.12.03.16,0l8.27-4.77s.04-.07,0-.09l-1.16-.67Zm-8.73,5.04s-.12-.03-.16,0l-1.24.71s-.04.07,0,.09l1.16.67s.12.03.16,0l1.24-.71s.04-.07,0-.09l-1.16-.67Zm10.43-6.02s-.12-.03-.16,0l-1.24.71s-.04.07,0,.09l1.16.67s.12.03.16,0l1.24-.71s.04-.07,0-.09l-1.16-.67Zm-12.13,7s-.12-.03-.16,0l-1.24.71s-.04.07,0,.09l1.16.67s.12.03.16,0l1.24-.71s.04-.07,0-.09l-1.16-.67Zm15.53-8.97s-.12-.03-.16,0l-1.24.71s-.04.07,0,.09l1.16.67s.12.03.16,0l1.24-.71s.04-.07,0-.09l-1.16-.67Zm5.25-3.03s-.12-.03-.16,0l-1,.58s-.04.07,0,.09l1.16.67s.12.03.16,0l1-.58s.04-.07,0-.09l-1.16-.67Zm3.22-2.34l1-.58s.04-.07,0-.09l-1.16-.67s-.12-.03-.16,0l-1,.58s-.04.07,0,.09l1.16.67s.12.03.16,0Zm-6.56-.04l1-.58s.04-.07,0-.09l-1.16-.67s-.12-.03-.16,0l-1,.58s-.04.07,0,.09l1.16.67s.12.03.16,0Zm-3.33,5.75l2.94-1.7s.04-.07,0-.09l-1.16-.67s-.12-.03-.16,0l-2.94,1.7s-.04.07,0,.09l1.16.67s.12.03.16,0Zm8.26-4.87s.12.03.16,0l1-.58s.04-.07,0-.09l-1.16-.67s-.12-.03-.16,0l-1,.58s-.04.07,0,.09l1.16.67Zm-1.5-.95l1-.58s.04-.07,0-.09l-1.16-.67s-.12-.03-.16,0l-1,.58s-.04.07,0,.09l1.16.67s.12.03.16,0Zm-8.23,6.67l1-.58s.04-.07,0-.09l-1.16-.67s-.12-.03-.16,0l-1,.58s-.04.07,0,.09l1.16.67s.12.03.16,0Zm6.48-3.84s.12.03.16,0l1-.58s.04-.07,0-.09l-1.16-.67s-.12-.03-.16,0l-1,.58s-.04.07,0,.09l1.16.67Zm-13.82,8.08l1-.58s.04-.07,0-.09l-1.16-.67s-.12-.03-.16,0l-1,.58s-.04.07,0,.09l1.16.67s.12.03.16,0Zm1.47-.85l1-.58s.04-.07,0-.09l-1.16-.67s-.12-.03-.16,0l-1,.58s-.04.07,0,.09l1.16.67s.12.03.16,0Zm-2.94,1.7l1-.58s.04-.07,0-.09l-1.16-.67s-.12-.03-.16,0l-1,.58s-.04.07,0,.09l1.16.67s.12.03.16,0Zm5.87-3.39l1-.58s.04-.07,0-.09l-1.16-.67s-.12-.03-.16,0l-1,.58s-.04.07,0,.09l1.16.67s.12.03.16,0Zm-1.47.85l1-.58s.04-.07,0-.09l-1.16-.67s-.12-.03-.16,0l-1,.58s-.04.07,0,.09l1.16.67s.12.03.16,0Zm2.94-1.7l1-.58s.04-.07,0-.09l-1.16-.67s-.12-.03-.16,0l-1,.58s-.04.07,0,.09l1.16.67s.12.03.16,0Zm6.72-12.54s.12.03.16,0l1-.58s.04-.07,0-.09l-.31-.18s-.12-.03-.16,0l-1,.58s-.04.07,0,.09l.31.18Zm-7.22,4.66s.12.03.16,0l1-.58s.04-.07,0-.09l-1.16-.67s-.12-.03-.16,0l-1,.58s-.04.07,0,.09l1.16.67Zm2.94-1.7s.12.03.16,0l1-.58s.04-.07,0-.09l-1.16-.67s-.12-.03-.16,0l-1,.58s-.04.07,0,.09l1.16.67Zm-4.73,2.73s.12.03.16,0l1-.58s.04-.07,0-.09l-1.16-.67s-.12-.03-.16,0l-1,.58s-.04.07,0,.09l1.16.67Zm3.26-1.88s.12.03.16,0l1-.58s.04-.07,0-.09l-1.16-.67s-.12-.03-.16,0l-1,.58s-.04.07,0,.09l1.16.67Zm-6.2,3.58s.12.03.16,0l1-.58s.04-.07,0-.09l-1.16-.67s-.12-.03-.16,0l-1,.58s-.04.07,0,.09l1.16.67Zm1.47-.85s.12.03.16,0l1-.58s.04-.07,0-.09l-1.16-.67s-.12-.03-.16,0l-1,.58s-.04.07,0,.09l1.16.67Zm7.55-4.85s.12.03.16,0l1-.58s.04-.07,0-.09l-.31-.18s-.12-.03-.16,0l-1,.58s-.04.07,0,.09l.31.18Zm4.4-2.54s.12.03.16,0l1-.58s.04-.07,0-.09l-.31-.18s-.12-.03-.16,0l-1,.58s-.04.07,0,.09l.31.18Zm2.44,1.41s.12.03.16,0l1-.58s.04-.07,0-.09l-1.16-.67s-.12-.03-.16,0l-1,.58s-.04.07,0,.09l1.16.67Zm3.67,3.72l1-.58s.04-.07,0-.09l-1.16-.67s-.12-.03-.16,0l-1,.58s-.04.07,0,.09l1.16.67s.12.03.16,0Zm-9.05-3.44s.12.03.16,0l1-.58s.04-.07,0-.09l-.31-.18s-.12-.03-.16,0l-1,.58s-.04.07,0,.09l.31.18Zm-11.95,7.39s.12.03.16,0l1-.58s.04-.07,0-.09l-1.16-.67s-.12-.03-.16,0l-1,.58s-.04.07,0,.09l1.16.67Z"/>
        </g>
        <g id="Computer">
          <g>
            <path class="cls-15" d="m364.6,262.4l-12,6.93-.06-.03-4.53-2.62c-.78-.45-1.28-1.54-1.11-2.42l1.7-8.8,10-8.09,2,1.16-1.69,8.8c-.17.88.32,1.97,1.1,2.42l4.59,2.65Z"/>
            <path class="cls-13" d="m352.6,269.33v2.31s-6.27-3.62-6.27-3.62c-1.18-.67-1.93-2.32-1.67-3.65l1.93-10.06,2.01,1.15-1.7,8.8c-.17.88.33,1.97,1.11,2.42l4.53,2.62.06.03Z"/>
            <polygon class="cls-4" points="364.6 262.4 352.6 269.33 352.6 271.64 364.6 264.71 364.6 262.4"/>
          </g>
          <g>
            <path class="cls-15" d="m375.62,204.02c.55.32,1,1.13,1,1.81v36.84c0,.68-.48,1.51-1.07,1.85l-45.92,26.51c-.59.34-1.52.36-2.07.04-.55-.32-1-1.13-1-1.81v-36.84c0-.68.48-1.51,1.07-1.85l45.92-26.51c.59-.34,1.52-.36,2.07-.04Z"/>
            <path class="cls-13" d="m329.64,271.03c-.59.34-1.52.36-2.07.04-.55-.32-1-1.13-1-1.81v-36.84c0-.34.12-.72.31-1.05l35.72,20.63-32.97,19.03Z"/>
            <path class="cls-4" d="m376.62,242.67v-36.84c0-.68-.48-.96-1.07-.62l-45.91,26.51c-.59.34-1.07,1.17-1.07,1.85v36.84c0,.68.48.96,1.07.62l45.92-26.51c.59-.34,1.07-1.17,1.07-1.85Z"/>
            <path class="cls-10" d="m374.01,207.27l-43.58,25.15c-.47.27-.85.93-.85,1.48v32.7c0,.54.38.77.85.49l43.58-25.15c.47-.27.85-.93.85-1.48v-32.7c0-.54-.38-.77-.85-.49Z"/>
          </g>
        </g>
      </g>
      <g id="Box">
        <path class="cls-13" d="m313.08,326.59l-25.85-14.91c-.72-.41-1.3-1.42-1.3-2.25v-15.76c0-.83.58-1.84,1.3-2.25l17.72-10.22c.72-.41,1.88-.41,2.6,0l25.83,14.91c.72.41,1.3,1.42,1.3,2.25v15.76c0,.83-.57,1.84-1.29,2.25l-17.71,10.22c-.72.41-1.88.41-2.6,0Z"/>
        <path class="cls-15" d="m315.67,307.82l17.7-10.23c.72-.41.72-1.09,0-1.5l-25.83-14.91c-.72-.41-1.88-.41-2.6,0l-17.72,10.22c-.72.41-.72,1.09,0,1.5l25.84,14.92c.72.41,1.88.41,2.6,0Z"/>
        <path class="cls-4" d="m314.38,308.14v18.76c-.47,0-.94-.11-1.3-.31l-25.84-14.91c-.72-.42-1.3-1.42-1.3-2.25v-15.77c-.01-.69.42-1.5.98-1.99-.36.4-.27.91.31,1.24l25.85,14.92c.36.2.82.31,1.3.31Z"/>
        <g>
          <path class="cls-4" d="m293.7,292.36c.46-.27,1.23-.27,1.71,0l18.58,10.73c.48.28.49.72.03.99s-1.23.27-1.71,0l-18.58-10.73c-.48-.28-.49-.72-.03-.99Z"/>
          <path class="cls-3" d="m293.7,292.36c.46-.27,1.23-.27,1.71,0l11.31,6.53-1.68.99-11.31-6.53c-.48-.28-.49-.72-.03-.99Z"/>
          <path class="cls-4" d="m296.92,290.5c.46-.27,1.23-.27,1.71,0l18.58,10.73c.48.28.49.72.03.99-.46.27-1.23.27-1.71,0l-18.58-10.73c-.48-.28-.49-.72-.03-.99Z"/>
          <path class="cls-3" d="m296.92,290.5c.46-.27,1.23-.27,1.71,0l1.52.87-1.68.99-1.51-.87c-.48-.28-.49-.72-.03-.99Z"/>
          <path class="cls-4" d="m300.15,288.64c.46-.27,1.23-.27,1.71,0l18.58,10.73c.48.28.49.72.03.99-.46.27-1.23.27-1.71,0l-18.58-10.73c-.48-.28-.49-.72-.03-.99Z"/>
          <path class="cls-3" d="m300.15,288.64c.46-.27,1.23-.27,1.71,0l6.57,3.79-1.68.99-6.57-3.79c-.48-.28-.49-.72-.03-.99Z"/>
          <g>
            <path class="cls-4" d="m303.37,286.78c.46-.27,1.23-.27,1.71,0l18.58,10.73c.48.28.49.72.03.99s-1.23.27-1.71,0l-18.58-10.73c-.48-.28-.49-.72-.03-.99Z"/>
            <path class="cls-3" d="m303.37,286.78c.46-.27,1.23-.27,1.71,0l13.31,7.68-1.68.99-13.3-7.68c-.48-.28-.49-.72-.03-.99Z"/>
            <path class="cls-4" d="m306.59,284.92c.46-.27,1.23-.27,1.71,0l18.58,10.73c.48.28.49.72.03.99-.46.27-1.23.27-1.71,0l-18.58-10.73c-.48-.28-.49-.72-.03-.99Z"/>
            <path class="cls-3" d="m306.59,284.92c.46-.27,1.23-.27,1.71,0l16.73,9.66-1.68.99-16.73-9.66c-.48-.28-.49-.72-.03-.99Z"/>
          </g>
        </g>
        <g>
          <g>
            <path class="cls-4" d="m316.4,321.46v-3.19c0-.83.45-1.76,1.02-2.09.56-.32,1.02.09,1.02.91v3.19c0,.83-.45,1.76-1.02,2.09-.56.32-1.02-.09-1.02-.91Z"/>
            <path class="cls-3" d="m317.47,316.66c-.37.21-.67.74-.67,1.17,0,.43.3.6.67.39s.67-.74.67-1.17-.3-.6-.67-.39Z"/>
          </g>
          <g>
            <path class="cls-4" d="m319.61,319.62v-3.19c0-.83.45-1.76,1.02-2.09.56-.32,1.02.09,1.02.91v3.19c0,.83-.45,1.76-1.02,2.09-.56.32-1.02-.09-1.02-.91Z"/>
            <path class="cls-3" d="m320.62,318.5c-.37.21-.67.74-.67,1.17s.3.6.67.39.67-.74.67-1.17c0-.43-.3-.6-.67-.39Z"/>
          </g>
        </g>
      </g>
    </g>
  </g>
  <g id="Character">
    <g>
      <g id="Legs">
        <g>
          <path class="cls-13" d="m379.47,359.07c.38.5.45,1.67.84,3.25.39,1.58.52,2.8.26,3.57-.26.77-1.95,2.51-4.03,3.15-2.08.64-4.64.1-7.11-1.38-2.47-1.48-4.34-3.28-7.87-4.28-3.52-1-5.29-1.82-6.96-3.16-1.95-1.57-3.21-3.92.52-4.92,3.77-1.01,10.52.55,17.92.87l6.43,2.89Z"/>
          <path class="cls-9" d="m379.47,354.45v5.54s-.76,1.84-3.92,1.96c-1.93.07-3.33-.81-4.19-2.01v-5.49h8.11Z"/>
          <path class="cls-4" d="m368.89,318.2c-.04,6.89,1.94,38.67,1.94,38.67,0,0,2.82,3.57,8.94,0l2.08-35.27-12.95-3.41Z"/>
        </g>
        <g>
          <path class="cls-13" d="m362.84,369.9c.38.5.45,1.67.84,3.25.39,1.58.52,2.8.26,3.57-.26.77-1.95,2.51-4.03,3.15-2.08.64-4.64.1-7.11-1.38-2.47-1.48-4.34-3.28-7.87-4.28-3.52-1-5.29-1.82-6.96-3.16-1.95-1.57-3.21-3.92.52-4.92,3.77-1.01,10.52.55,17.92.87l6.43,2.89Z"/>
          <path class="cls-9" d="m362.84,365.28v5.54s-.76,1.84-3.92,1.96c-1.93.07-3.33-.81-4.19-2.01v-5.49h8.11Z"/>
          <path class="cls-4" d="m352.26,329.03c-.04,6.89,1.94,38.67,1.94,38.67,0,0,2.82,3.57,8.94,0l2.08-35.27-12.95-3.41Z"/>
        </g>
      </g>
      <g id="Chair">
        <g>
          <g>
            <g>
              <g>
                <g>
                  <path class="cls-15" d="m373.69,394.44c0,.28.03.54.08.77.12.49.37.86.7,1.08l.02.02c.54.35,1.31.32,2.15-.17,1.63-.94,2.95-3.23,2.95-5.11,0-.91-.32-1.55-.83-1.87h0s-.14-.09-.14-.09h0c-.36-.16-.78-.18-1.26-.05-.23.07-.47.17-.72.32-1.63.94-2.95,3.23-2.95,5.11Z"/>
                  <path class="cls-13" d="m374.5,388.1c.47-.27.91-.4,1.31-.4.31,0,.59.08.83.23l.07.04,1.9,1.1c-.36-.16-.78-.18-1.26-.05-.23.07-.47.17-.72.32-1.63.94-2.95,3.23-2.95,5.11,0,.28.03.54.08.77.12.49.37.86.7,1.08l-1.95-1.13-.03-.02-.17-.1s-.03-.02-.05-.03c-.45-.33-.72-.96-.72-1.81,0-1.88,1.32-4.17,2.95-5.11Z"/>
                </g>
                <g>
                  <path class="cls-15" d="m405.63,377.27c0,.28.03.54.08.77.12.49.37.86.7,1.08l.02.02c.54.35,1.31.32,2.15-.17,1.63-.94,2.95-3.23,2.95-5.11,0-.91-.32-1.55-.83-1.87h0s-.14-.09-.14-.09h0c-.36-.16-.78-.18-1.26-.05-.23.07-.47.17-.72.32-1.63.94-2.95,3.23-2.95,5.11Z"/>
                  <path class="cls-13" d="m406.44,370.92c.47-.27.91-.4,1.31-.4.31,0,.59.08.83.23l.07.04,1.9,1.1c-.36-.16-.78-.18-1.26-.05-.23.07-.47.17-.72.32-1.63.94-2.95,3.23-2.95,5.11,0,.28.03.54.08.77.12.49.37.86.7,1.08l-1.95-1.13-.03-.02-.17-.1s-.03-.02-.05-.03c-.45-.33-.72-.96-.72-1.81,0-1.88,1.32-4.17,2.95-5.11Z"/>
                </g>
                <g>
                  <path class="cls-15" d="m399.93,401.15c0,.28-.03.54-.08.77-.12.49-.37.86-.7,1.08l-.02.02c-.54.35-1.31.32-2.15-.17-1.63-.94-2.95-3.23-2.95-5.11,0-.91.32-1.55.83-1.87h0s.14-.09.14-.09h0c.36-.16.78-.18,1.26-.05.23.07.47.17.72.32,1.63.94,2.95,3.23,2.95,5.11Z"/>
                  <path class="cls-13" d="m399.13,394.8c-.47-.27-.91-.4-1.31-.4-.31,0-.59.08-.83.23l-.07.04-1.9,1.1c.36-.16.78-.18,1.26-.05.23.07.47.17.72.32,1.63.94,2.95,3.23,2.95,5.11,0,.28-.03.54-.08.77-.12.49-.37.86-.7,1.08l1.95-1.13.03-.02.17-.1s.03-.02.05-.03c.45-.33.72-.96.72-1.81,0-1.88-1.32-4.17-2.95-5.11Z"/>
                </g>
                <g>
                  <path class="cls-15" d="m420.67,390.99c0,.28-.03.54-.08.77-.12.49-.37.86-.7,1.08l-.02.02c-.54.35-1.31.32-2.15-.17-1.63-.94-2.95-3.23-2.95-5.11,0-.91.32-1.55.83-1.87h0s.14-.09.14-.09h0c.36-.16.78-.18,1.26-.05.23.07.47.17.72.32,1.63.94,2.95,3.23,2.95,5.11Z"/>
                  <path class="cls-13" d="m419.86,384.65c-.47-.27-.91-.4-1.31-.4-.31,0-.59.08-.83.23l-.07.04-1.9,1.1c.36-.16.78-.18,1.26-.05.23.07.47.17.72.32,1.63.94,2.95,3.23,2.95,5.11,0,.28-.03.54-.08.77-.12.49-.37.86-.7,1.08l1.95-1.13.03-.02.17-.1s.03-.02.05-.03c.45-.33.72-.96.72-1.81,0-1.88-1.32-4.17-2.95-5.11Z"/>
                </g>
                <g>
                  <path class="cls-15" d="m380.59,378.54c0,.28-.03.54-.08.77-.12.49-.37.86-.7,1.08l-.02.02c-.54.35-1.31.32-2.15-.17-1.63-.94-2.95-3.23-2.95-5.11,0-.91.32-1.55.83-1.87h0s.14-.09.14-.09h0c.36-.16.78-.18,1.26-.05.23.07.47.17.72.32,1.63.94,2.95,3.23,2.95,5.11Z"/>
                  <path class="cls-13" d="m379.78,372.19c-.47-.27-.91-.4-1.31-.4-.31,0-.59.08-.83.23l-.07.04-1.9,1.1c.36-.16.78-.18,1.26-.05.23.07.47.17.72.32,1.63.94,2.95,3.23,2.95,5.11,0,.28-.03.54-.08.77-.12.49-.37.86-.7,1.08l1.95-1.13.03-.02.17-.1s.03-.02.05-.03c.45-.33.72-.96.72-1.81,0-1.88-1.32-4.17-2.95-5.11Z"/>
                </g>
                <g>
                  <polygon class="cls-6" points="398.21 372.3 408.76 369.28 408.76 371.53 398.21 377.61 398.21 372.3"/>
                  <polygon class="cls-11" points="398.21 372.3 397.17 371.66 407.75 368.77 408.76 369.28 398.21 372.3"/>
                </g>
                <g>
                  <polygon class="cls-6" points="393.65 379.02 378.71 373.42 378.71 371.14 393.65 372.47 393.65 379.02"/>
                  <polygon class="cls-11" points="378.71 371.14 379.81 370.85 394.54 371.8 393.65 372.47 378.71 371.14"/>
                </g>
                <path class="cls-11" d="m393.25,378.3c0,1.69,5.2,1.69,5.2,0v-14.78h-5.2v14.78Z"/>
                <g>
                  <path class="cls-11" d="m397.15,374.45l2.86,18.56h-1.95l-2.67-18.56c.67.19,1.24.14,1.77,0Z"/>
                  <polygon class="cls-6" points="395.38 374.45 395.38 379.55 398.05 396.15 398.05 393.01 395.38 374.45"/>
                  <rect class="cls-14" x="398.05" y="393.01" width="1.95" height="3.14"/>
                </g>
                <g>
                  <polygon class="cls-6" points="394.49 379.4 375.22 389.5 375.22 386.39 394.49 374.47 394.49 379.4"/>
                  <path class="cls-11" d="m394.49,374.47c-.46-.07-.89-.22-1.24-.56l-19.24,11.67,1.2.81,19.27-11.92Z"/>
                  <polygon class="cls-14" points="375.22 389.5 375.22 386.39 374.02 385.57 374.02 388.59 375.22 389.5"/>
                </g>
                <polygon class="cls-6" points="418.79 385.93 398.2 378.88 398.2 374.26 418.79 382.82 418.79 385.93"/>
                <path class="cls-11" d="m398.2,374.26c.17-.05.24-.34.25-.8l20.94,9.11-.61.25-20.59-8.56Z"/>
                <polygon class="cls-14" points="419.4 382.57 419.4 385.58 418.79 385.93 418.79 382.82 419.4 382.57"/>
              </g>
              <path class="cls-7" d="m400.25,337.77h-8.8v30.48c0,2.53,8.8,2.53,8.8,0v-30.48Z"/>
            </g>
            <g>
              <path class="cls-3" d="m361.96,340.51h0c0-1.57.84-3.02,2.2-3.81l30.8-17.78c1.36-.79,3.04-.79,4.4,0l30.79,17.78c1.36.79,2.2,2.24,2.2,3.81h0l-35.19,20.32-35.19-20.32Z"/>
              <path class="cls-11" d="m361.96,340.51v2.54l33.02,19.06c.67.39,1.42.58,2.17.58s1.51-.19,2.18-.58l33.02-19.06v-2.54l-33.02,19.06c-.67.39-1.42.59-2.18.59s-1.5-.2-2.17-.59l-33.02-19.06Z"/>
              <path class="cls-6" d="m361.96,340.51v2.54l33.02,19.06c.67.39,1.42.58,2.17.58v-2.54c-.75,0-1.5-.2-2.17-.59l-33.02-19.06Z"/>
            </g>
          </g>
          <path class="cls-16" d="m361.96,340.51c0-.69.17-1.36.47-1.96l33.27,19.21c.9.52,2,.52,2.9,0l33.28-19.2c.3.6.47,1.26.47,1.95l-35.19,20.32-35.19-20.32h0Z"/>
        </g>
      </g>
      <g id="Character-2" data-name="Character">
        <g>
          <path class="cls-13" d="m421.69,326.65s-28.57-8.62-33.53-9.98c-4.97-1.36-14.49-3.65-17.28-2.4s-4.2,2.69-4.45,6.71c-.05.75,0,4.43,0,4.43,0,0,13.81,4.27,25.12,4.27s30.14-3.03,30.14-3.03Z"/>
          <polygon class="cls-9" points="397.27 278.09 399.17 288.34 409.67 289.55 408.16 275.41 397.27 278.09"/>
          <g>
            <path class="cls-12" d="m387.47,269.92s-1.38,4.22-.96,4.48c.42.26,2.3.13,2.3.13l-1.34-4.62Z"/>
            <path class="cls-9" d="m390.18,256.38c-1.81,1.9-3.53,5.09-2.77,13.16.83,8.84,3.47,11.2,4.59,11.72,1.66.78,7.33-.58,9.17-1.94,2.3-1.7,6.64-5.93,7.77-11.14,1.33-6.13-.37-13.09-4.85-14.5-6.3-1.98-12.38,1.08-13.91,2.69Z"/>
            <path class="cls-13" d="m386.05,260.73c1.07,2.03,3.1,7.06,8.85,8.49,0,0,.32-3.43,3.16-3.47,2.86-.03,3.82,3.47,2.4,5.92-1.41,2.45-3.19,1.88-3.19,1.88,0,0,.28,4.82,3.77,6.54,0,0,4.18,1.9,8-.53,1.72-1.1,3.7-5.84,4.72-9.65,2.17-8.06,1.78-14.24-3.35-15.49-1.08-3.38-2.81-4.47-6.04-4.68-6.94-.46-11.43,4.68-17.2,4.68-3.01,0-2.35,3.99-1.12,6.3Z"/>
            <path class="cls-13" d="m410.29,255l3.47-1.49c-.41-.96-1.52-1.4-2.48-.99-.96.41-1.4,1.52-.99,2.48Z"/>
          </g>
          <path class="cls-4" d="m421.62,323.21c0,5.49.52,11.2-1.77,15.22-2.21,3.89-12.65,12.3-24.33,10.33-7.63-1.28-32.27-10.68-32.27-10.68,0,0-10.91-4.03-10.96-6.9-.01-.7-.08-1.43-.03-2.19.23-3.82,1.77-7.93,9.76-7.72,8.72.23,34.59,4.47,34.59,4.47l25.01-2.53Z"/>
          <path class="cls-15" d="m419.59,287.74c-.94-2.87-4.58-5.99-8.22-5.31-6.68,1.24-14,3.41-15.94,3.98h0s.87,14.73-6.69,19.19l-1,18.76s1.87,3.74,4.76,5.57c3.12,1.98,7.47,4.96,15.32,4.31,9.32-.77,13.87-7.59,13.87-7.59,0,0-.08-17.73-.38-25.66-.25-6.74-1.07-11.28-1.72-13.25Z"/>
          <path class="cls-4" d="m388.55,309.23s3.95-4.1,5.34-8.85c0,0,0,6.96-5.42,10.71l.08-1.86Z"/>
        </g>
        <g>
          <path class="cls-9" d="m395.43,286.41c-4.13,1.24-6.64,1.46-11.2,8.48-4.56,7.01-14.55,20.93-15.53,22.6-1.38,2.33-1.97,5.09-.78,7.23,1.11,1.99,4.34,1.12,8.86-2.85,4.37-3.84,13.04-14.7,13.04-14.7,0,0,4.52-9.89,5.61-20.76Z"/>
          <path class="cls-15" d="m395.43,286.41s-3.68.77-5.96,1.89c-.7.34-3.02,1.23-4.51,3.7-3.19,5.3-7.75,12.84-7.75,12.84,0,0-.78,6.57,7.2,8.86l4.24-4.58c1.73-1.87,3.17-3.98,4.23-6.3,1.8-3.95,3.85-10.22,2.55-16.42Z"/>
        </g>
        <path class="cls-9" d="m369.31,325.69c-3.82-.46-12.37-12.18-15.22-15.91s-5.24-5.94-7.81-7.35c-2.57-1.41-4.8-3.64-5.5-8.13-.65-4.18,3.24-6.85,6.43-2.64,2.02,2.67,4.06,4.35,4.17,3.91.11-.45-.63-2.3-.61-4.24.02-2.33,1.65-.8,2.14.02s1.06,2.14,1.72,3.85c.81,2.08.48,4.19,1.47,5.62.99,1.42,14.29,14.16,14.29,14.16l-1.08,10.72Z"/>
      </g>
      <g>
        <polygon class="cls-3" points="434.05 289.69 434.05 329.03 402.83 347.12 402.83 307.81 434.05 289.69"/>
        <polygon class="cls-16" points="434.05 289.69 434.05 329.03 402.83 347.12 402.83 307.81 434.05 289.69"/>
        <path class="cls-3" d="m399.99,345.48l2.84,1.64s0-31.01,0-36.05c0-1.71.52-2.56,1.2-2.93,2.38-1.47,5.53,1.65,5.53,1.65v-2.62s30.17-17.47,30.17-17.47c-2.84-1.64-4.7-2.71-10.43.54-5.73,3.25-22.53,12.97-25.19,14.61-2.13,1.31-4.12,2.85-4.12,6.42,0,6.19,0,34.23,0,34.23Z"/>
        <path class="cls-1" d="m404.11,304.84c2.62-1.7,19.47-11.36,25.19-14.61,5.73-3.25,7.59-2.17,10.43-.54l-30.16,17.47c-1.02-1.13-3.07-2.36-5.45-2.33Z"/>
        <polygon class="cls-3" points="409.55 309.78 439.73 292.25 439.73 289.7 409.56 307.16 409.55 309.78"/>
        <polygon class="cls-8" points="409.55 309.78 439.73 292.25 439.73 289.7 409.56 307.16 409.55 309.78"/>
        <path class="cls-2" d="m410.01,359.63c.47,0,.94-.12,1.37-.37.85-.49,1.37-1.38,1.37-2.37v-20.63c0-.77-.63-1.4-1.4-1.4s-1.4.63-1.4,1.4v20.52l-2.22-1.28c-.67-.39-1.52-.16-1.91.51-.39.67-.16,1.52.51,1.91l2.32,1.34c.43.25.9.37,1.37.37Z"/>
        <path class="cls-2" d="m427.08,349.69c.47,0,.94-.12,1.37-.37.85-.49,1.37-1.38,1.37-2.37v-20.63c0-.77-.63-1.4-1.4-1.4s-1.4.63-1.4,1.4v20.52l-2.22-1.28c-.67-.39-1.52-.16-1.91.51-.39.67-.16,1.52.51,1.91l2.32,1.34c.43.25.9.37,1.37.37Z"/>
      </g>
    </g>
  </g>
</svg>