<?xml version="1.0" encoding="UTF-8"?>
<svg xmlns="http://www.w3.org/2000/svg" viewBox="0 0 500 500">
  <defs>
    <style>
      .cls-1, .cls-2 {
        opacity: .7;
      }

      .cls-3 {
        fill-rule: evenodd;
      }

      .cls-3, .cls-4, .cls-5, .cls-6, .cls-7, .cls-8, .cls-9, .cls-10, .cls-11, .cls-12, .cls-13, .cls-14, .cls-15, .cls-16, .cls-17, .cls-18, .cls-19, .cls-20, .cls-21, .cls-22, .cls-23, .cls-24, .cls-25, .cls-26, .cls-27, .cls-28, .cls-29, .cls-30, .cls-31, .cls-32, .cls-2, .cls-33, .cls-34, .cls-35, .cls-36, .cls-37, .cls-38, .cls-39 {
        stroke-width: 0px;
      }

      .cls-3, .cls-9 {
        fill: #dd4b39;
      }

      .cls-4 {
        fill: #606060;
      }

      .cls-5, .cls-6, .cls-40 {
        opacity: .4;
      }

      .cls-5, .cls-7, .cls-21, .cls-24, .cls-25, .cls-35 {
        fill: #f0f0f0;
      }

      .cls-41, .cls-7, .cls-16, .cls-34 {
        opacity: .5;
      }

      .cls-8 {
        fill: #e6e6e6;
      }

      .cls-10, .cls-16, .cls-19, .cls-27, .cls-28, .cls-2, .cls-33 {
        fill: #fff;
      }

      .cls-10, .cls-24 {
        opacity: .9;
      }

      .cls-11 {
        opacity: .25;
      }

      .cls-42, .cls-22 {
        opacity: .2;
      }

      .cls-13, .cls-43 {
        opacity: .3;
      }

      .cls-14 {
        fill: #37474f;
      }

      .cls-15 {
        fill: #e0e0e0;
      }

      .cls-17 {
        fill: #b16668;
      }

      .cls-18 {
        fill: #ffbda7;
      }

      .cls-19, .cls-35 {
        opacity: .8;
      }

      .cls-20 {
        fill: #f5f5f5;
      }

      .cls-23 {
        fill: #ffa8a7;
      }

      .cls-25, .cls-28 {
        opacity: .6;
      }

      .cls-44, .cls-37 {
        opacity: .15;
      }

      .cls-26 {
        fill: #27debf;
      }

      .cls-29 {
        fill: #fafafa;
      }

      .cls-30 {
        fill: #f28f8f;
      }

      .cls-31 {
        fill: #263238;
      }

      .cls-45, .cls-39 {
        opacity: .1;
      }

      .cls-32 {
        opacity: .35;
      }

      .cls-33 {
        opacity: .75;
      }

      .cls-36 {
        fill: #ebebeb;
      }

      .cls-38 {
        fill: #455a64;
      }

      .cls-46 {
        fill: none;
        stroke: #dd4b39;
        stroke-linecap: round;
        stroke-linejoin: round;
        stroke-width: .34px;
      }
    </style>
  </defs>
  <g id="Floor">
    <ellipse id="Floor-2" data-name="Floor" class="cls-20" cx="250" cy="342.94" rx="230.29" ry="132.96"/>
  </g>
  <g id="Shadows">
    <path id="Shadow" class="cls-8" d="m451.5,324.25l-130.83,75.57c-1.12.65-2.94.65-4.07,0l-218.19-125.97c-1.12-.65-1.12-1.7,0-2.35l130.83-75.57c1.12-.65,2.94-.65,4.07,0l218.19,125.97c1.12.65,1.12,1.7,0,2.35Z"/>
    <ellipse id="Shadow-2" data-name="Shadow" class="cls-8" cx="166.81" cy="399.06" rx="81.41" ry="47"/>
    <ellipse id="Shadow-3" data-name="Shadow" class="cls-8" cx="249.45" cy="354.22" rx="58.96" ry="34.04"/>
  </g>
  <g id="Plants">
    <g id="Plants-2" data-name="Plants">
      <g>
        <path class="cls-9" d="m421.42,290.95s2.04-16.37,10.33-29c8.29-12.63,19.57-20.45,30.03-21.16,10.46-.71,18.8,8.99,7.54,15.47-11.25,6.48-31.19,13.01-40.6,37.61l-7.31-2.92Z"/>
        <g class="cls-43">
          <path class="cls-12" d="m421.42,290.95s2.04-16.37,10.33-29c8.29-12.63,19.57-20.45,30.03-21.16,10.46-.71,18.8,8.99,7.54,15.47-11.25,6.48-31.19,13.01-40.6,37.61l-7.31-2.92Z"/>
        </g>
        <path class="cls-27" d="m424.53,286.73s-.07-.02-.11-.03c-.28-.12-.42-.45-.3-.73,11.32-27.04,32.44-38.16,42.02-40.26.3-.07.6.13.66.43.07.3-.12.6-.43.66-9.39,2.06-30.09,12.98-41.23,39.6-.1.25-.37.38-.62.33Z"/>
      </g>
      <g>
        <path class="cls-9" d="m482.39,278.73c-.89,2.01-3.09,3.06-5.14,3.88-2.03.82-4.26,1.71-5.37,3.61-2.23,3.84,1.43,9.25-.96,12.99-1,1.57-2.87,2.4-4.7,2.72-1.52.28-3.07.28-4.62.41-.74-.02-1.48-.07-2.2-.17-2.12-.31-4.42-.41-6.36.68-3.05,1.72-3.99,5.57-5.85,8.55-2.23,3.56-6.16,5.89-10.29,6.45-2.43.32-4.72,1.03-6.42-1.26-.81-1.08-1.21-2.4-1.6-3.7-1.62-5.34-3.23-10.67-4.85-16.01-.63-2.07-1.23-4.4-.2-6.3.75-1.38,2.19-2.2,3.5-3.07,2.61-1.72,4.93-3.87,6.85-6.33,1.85-2.36,2.73-5.18,4.41-7.52,3.24-4.52,9.05-7.64,14.65-6.7,3.22.54,6.37,2.35,9.69,2.2,3.23-.15,6.39-1.01,9.69-.78,3.45.24,6.97,1.7,8.93,4.66,1.11,1.66,1.64,3.86.83,5.68Z"/>
        <g class="cls-45">
          <path class="cls-12" d="m482.39,278.73c-.89,2.01-3.09,3.06-5.14,3.88-2.03.82-4.26,1.71-5.37,3.61-2.23,3.84,1.43,9.25-.96,12.99-1,1.57-2.87,2.4-4.7,2.72-1.52.28-3.07.28-4.62.41-.74-.02-1.48-.07-2.2-.17-2.12-.31-4.42-.41-6.36.68-3.05,1.72-3.99,5.57-5.85,8.55-2.23,3.56-6.16,5.89-10.29,6.45-2.43.32-4.72,1.03-6.42-1.26-.81-1.08-1.21-2.4-1.6-3.7-1.62-5.34-3.23-10.67-4.85-16.01-.63-2.07-1.23-4.4-.2-6.3.75-1.38,2.19-2.2,3.5-3.07,2.61-1.72,4.93-3.87,6.85-6.33,1.85-2.36,2.73-5.18,4.41-7.52,3.24-4.52,9.05-7.64,14.65-6.7,3.22.54,6.37,2.35,9.69,2.2,3.23-.15,6.39-1.01,9.69-.78,3.45.24,6.97,1.7,8.93,4.66,1.11,1.66,1.64,3.86.83,5.68Z"/>
        </g>
        <path class="cls-27" d="m430.2,307.41s-.03,0-.04,0c-.26-.07-.42-.34-.35-.61,8.03-30.11,39.75-34.45,47.18-33.91.27.02.48.26.46.53-.02.27-.26.48-.53.46-7.26-.53-38.29,3.72-46.15,33.18-.07.25-.32.41-.57.36Z"/>
        <path class="cls-27" d="m465.45,292.16c-.1-.02-.19-.06-.26-.14-.08-.08-8.17-8.06-21.59-6.09-.27.04-.52-.15-.56-.42-.04-.27.15-.52.42-.56,13.94-2.05,22.35,6.29,22.44,6.37.19.19.19.51,0,.7-.12.12-.28.16-.44.13Z"/>
      </g>
    </g>
  </g>
  <g id="Desk">
    <g id="Desk-2" data-name="Desk">
      <g id="Table">
        <g>
          <path class="cls-14" d="m328.63,290.22v86.14c0,.71-.5,1.58-1.12,1.93l-2.38,1.37c-.62.36-1.62.36-2.23,0l-2.37-1.37c-.62-.36-1.12-1.22-1.12-1.93v-86.14c0-.71.5-1,1.12-.64l2.38,1.37c.62.36,1.62.36,2.23,0l2.38-1.37c.62-.36,1.12-.07,1.12.64Z"/>
          <path class="cls-38" d="m322.91,379.67l-2.37-1.37c-.62-.36-1.12-1.22-1.12-1.93v-86.14c0-.71.5-1,1.12-.64l2.38,1.37c.62.36,1.12,1.22,1.12,1.93v86.14c0,.71-.5,1-1.12.64Z"/>
        </g>
        <g>
          <path class="cls-14" d="m429.91,231.72v86.14c0,.71-.5,1.58-1.12,1.93l-2.38,1.37c-.62.36-1.62.36-2.23,0l-2.37-1.37c-.62-.36-1.12-1.22-1.12-1.93v-86.14c0-.71.5-1,1.12-.64l2.38,1.37c.62.36,1.62.36,2.23,0l2.38-1.37c.62-.36,1.12-.07,1.12.64Z"/>
          <path class="cls-38" d="m424.18,321.16l-2.37-1.37c-.62-.36-1.12-1.22-1.12-1.93v-86.14c0-.71.5-1,1.12-.64l2.38,1.37c.62.36,1.12,1.22,1.12,1.93v86.14c0,.71-.5,1-1.12.64Z"/>
        </g>
        <g>
          <path class="cls-14" d="m152.65,188.56v86.14c0,.71-.5,1.58-1.12,1.93l-2.38,1.37c-.62.36-1.62.36-2.23,0l-2.37-1.37c-.62-.36-1.12-1.22-1.12-1.93v-86.14c0-.71.5-1,1.12-.64l2.38,1.37c.62.36,1.62.36,2.23,0l2.38-1.37c.62-.36,1.12-.07,1.12.64Z"/>
          <path class="cls-38" d="m146.93,278l-2.37-1.37c-.62-.36-1.12-1.22-1.12-1.93v-86.14c0-.71.5-1,1.12-.64l2.38,1.37c.62.36,1.12,1.22,1.12,1.93v86.14c0,.71-.5,1-1.12.64Z"/>
        </g>
        <g id="Desk-3" data-name="Desk">
          <g>
            <path class="cls-14" d="m451.95,239.59v-.81c0-1.3-.91-2.87-2.03-3.52l-218.19-125.97c-1.12-.65-2.94-.65-4.07,0l-109.87,63.46c-1.12.65-2.03,2.22-2.03,3.52v.81c0,1.3.91,2.87,2.03,3.52l218.19,125.97c1.12.65,2.94.65,4.07,0l109.87-63.46c1.12-.65,2.03-2.22,2.03-3.52Z"/>
            <path class="cls-26" d="m338.01,301.55v5.51c.74,0,1.47-.17,2.03-.49l109.87-63.46c1.13-.66,2.03-2.22,2.03-3.52v-.81c0-1.14-.7-2.52-1.66-3.26.74.63.61,1.5-.38,2.08l-109.87,63.46c-.56.33-1.3.49-2.03.49Z"/>
            <path class="cls-31" d="m338.01,301.55v5.51c.74,0,1.47-.17,2.03-.49l109.87-63.46c1.13-.66,2.03-2.22,2.03-3.52v-.81c0-1.14-.7-2.52-1.66-3.26.74.63.61,1.5-.38,2.08l-109.87,63.46c-.56.33-1.3.49-2.03.49Z"/>
            <path class="cls-38" d="m449.91,237.6l-109.87,63.46c-1.12.65-2.94.65-4.07,0l-218.19-125.97c-1.12-.65-1.12-1.7,0-2.35l109.87-63.46c1.12-.65,2.94-.65,4.07,0l218.19,125.97c1.12.65,1.12,1.7,0,2.35Z"/>
          </g>
        </g>
      </g>
      <g id="Keyboard">
        <path id="Shadow-4" data-name="Shadow" class="cls-37" d="m280.88,194.13l-20.71,11.99c-.64.37-1.68.37-2.32,0l-61.18-35.28c-.64-.37-.64-.97,0-1.34l20.71-11.99c.64-.37,1.68-.37,2.32,0l61.18,35.28c.64.37.64.97,0,1.34Z"/>
        <g id="Keyboard-2" data-name="Keyboard">
          <g>
            <path class="cls-36" d="m197.92,167.38c0-.24.16-.49.48-.67l19.46-11.23c.64-.37,1.68-.37,2.32,0l59.37,34.33c.32.19.48.43.48.67,0,.24,0,1.8,0,2.04,0,.24-.16.49-.48.67l-19.45,11.23c-.64.37-1.68.37-2.32,0l-59.37-34.28c-.32-.18-.48-.43-.48-.67,0-.24,0-1.85,0-2.09Z"/>
            <path class="cls-27" d="m260.1,202.33l19.45-11.18c.64-.37.64-.97,0-1.34l-59.37-34.33c-.64-.37-1.68-.37-2.32,0l-19.46,11.23c-.64.37-.64.97,0,1.34l59.37,34.28c.64.37,1.68.37,2.32,0Z"/>
            <path class="cls-15" d="m259.01,202.61v2.09c.39,0,.79-.1,1.09-.27l19.44-11.23c.32-.19.48-.43.48-.67v-2.05c0,.24-.16.48-.48.67l-19.44,11.18c-.3.17-.7.26-1.09.27Z"/>
          </g>
          <path class="cls-38" d="m201.53,167.53s0-.02.01-.02l1.92-1.11,2.61,1.51-1.94,1.15-2.61-1.51h0Zm3.01-1.74s0-.02.01-.02l1.93-1.11,2.05,1.18-1.94,1.15-2.05-1.18h0Zm.63,3.85s0-.02.01-.02l1.93-1.11,2.05,1.18-1.94,1.15-2.05-1.18h0Zm2.38-5.59s0-.02.01-.03l1.93-1.11,3.31,1.91-1.94,1.15-3.31-1.91h0Zm.07,3.52s0-.02.01-.02l1.93-1.11,1.63.94-1.94,1.15-1.63-.94h0Zm.63,3.85s0-.02.01-.02l1.93-1.11,2.05,1.18-1.94,1.15-2.05-1.18h0Zm2.03-2.31s.01-.02.02-.03l1.93-1.11,1.63.94-1.94,1.15-1.63-.94h0Zm.27-6.8s0-.02.01-.03l1.93-1.11,2.61,1.51-1.94,1.15-2.61-1.51h0Zm.78,10.89s0-.02.01-.02l1.93-1.11,14.83,8.56-1.94,1.15-14.82-8.56h0Zm.55-6.64s0-.02.01-.03l1.92-1.11,1.63.94-1.94,1.15-1.63-.94h0Zm1.06,4.09s0-.02.01-.03l1.93-1.11,1.63.94-1.94,1.15-1.63-.94h0Zm.62-10.08s0-.02.01-.03l1.93-1.11,1.63.94-1.94,1.15-1.63-.94h0Zm.63,3.85s0-.02.01-.02l1.93-1.11,1.63.94-1.94,1.15-1.63-.94h0Zm.36,3.69s0-.02.01-.03l1.93-1.11,1.63.94-1.94,1.15-1.63-.94h0Zm1.06,4.09s0-.02.01-.03l1.93-1.11,1.63.94-1.94,1.15-1.63-.94h0Zm.62-10.08s0-.02.01-.03l1.93-1.11,1.63.94-1.94,1.15-1.63-.94h0Zm.63,3.85s0-.02.01-.02l1.93-1.11,1.63.94-1.94,1.15-1.63-.94h0Zm.35,3.69s.01-.02.02-.03l1.93-1.11,1.63.94-1.94,1.15-1.63-.94h0Zm0-11.19s0-.02.01-.03l1.93-1.11,2.05,1.18-1.94,1.15-2.05-1.18h0Zm1.05,15.28s0-.02.01-.03l1.92-1.11,1.63.94-1.94,1.15-1.63-.94h0Zm.62-10.08s0-.02.01-.03l1.93-1.11,1.63.94-1.94,1.15-1.63-.94h0Zm.63,3.85s0-.02.01-.03l1.93-1.11,1.63.94-1.94,1.15-1.63-.94h0Zm.36,3.69s0-.02.01-.02l1.93-1.11,1.63.94-1.94,1.15-1.63-.94h0Zm1.06,4.09s0-.02.01-.03l1.93-1.11,1.63.94-1.94,1.15-1.63-.94h0Zm.53-14.36s0-.02.01-.02l1.93-1.11,1.63.94-1.94,1.15-1.63-.94h0Zm.09,4.28s.01-.02.02-.03l1.93-1.11,1.63.94-1.94,1.15-1.63-.94h0Zm.64,3.85s0-.02.01-.03l1.93-1.11,1.63.94-1.94,1.15-1.63-.94h0Zm.35,3.69s.01-.02.02-.03l1.93-1.11,1.63.94-1.94,1.15-1.63-.94h0Zm1.06,4.09s.01-.02.01-.03l1.93-1.11,1.63.94-1.94,1.15-1.63-.94h0Zm.53-14.36s0-.02.01-.03l1.93-1.11,1.63.94-1.94,1.15-1.63-.94h0Zm.09,4.28s0-.02.01-.02l1.93-1.11,1.63.94-1.94,1.15-1.63-.94h0Zm.64,3.85s0-.02.01-.03l1.93-1.11,1.63.94-1.94,1.15-1.63-.94h0Zm.35,3.68s0-.02.01-.02l1.93-1.11,1.63.94-1.94,1.15-1.63-.94h0Zm1.06,4.09s0-.02.01-.02l1.93-1.11,1.63.94-1.94,1.15-1.63-.94h0Zm.53-14.36s0-.02.01-.03l1.93-1.11,1.63.94-1.94,1.15-1.63-.94h0Zm.1,4.28s0-.02.01-.03l1.93-1.11,1.63.94-1.94,1.15-1.63-.94h0Zm.29,14.09s0-.02.01-.03l1.93-1.11,2.05,1.18-1.94,1.15-2.05-1.18h0Zm.34-10.25s0-.02.01-.03l1.93-1.11,1.63.94-1.94,1.15-1.63-.94h0Zm.35,3.68s0-.02.01-.02l1.93-1.11,1.63.94-1.94,1.15-1.63-.94h0Zm1.06,4.09s0-.02.01-.03l1.93-1.11,1.63.94-1.94,1.15-1.63-.94h0Zm.53-14.36s0-.02.01-.02l1.93-1.11,1.63.94-1.94,1.15-1.63-.94h0Zm.09,4.28s.01-.02.02-.03l1.93-1.11,1.63.94-1.94,1.15-1.63-.94h0Zm.64,3.85s0-.02.01-.03l1.93-1.11,1.63.94-1.94,1.15-1.63-.94h0Zm.08,10.49s.01-.02.02-.03l1.93-1.11,2.05,1.18-1.94,1.15-2.05-1.18h0Zm.27-6.8s.01-.02.02-.03l1.93-1.11,1.63.94-1.94,1.15-1.63-.94h0Zm1.06,4.09s.01-.02.02-.03l1.93-1.11,1.63.94-1.94,1.15-1.63-.94h0Zm.62-10.08s0-.02.01-.02l1.93-1.11,1.63.94-1.94,1.15-1.63-.94h0Zm.64,3.85s0-.02.01-.02l1.93-1.11,1.63.94-1.94,1.15-1.63-.94h0Zm.35,3.69s0-.02.01-.02l1.93-1.11,1.63.94-1.94,1.15-1.63-.94h0Zm.08-11.14s0-.02.01-.02l1.93-1.11,1.63.94-1.94,1.15-1.63-.94h0Zm.07,18.19s0-.02.01-.03l1.93-1.11,2.05,1.18-1.94,1.15-2.05-1.18h0Zm.91-2.96s0-.02.01-.02l1.93-1.11,1.63.94-1.94,1.15-1.63-.94h0Zm.62-10.08s.01-.02.01-.03l1.92-1.11,1.63.94-1.94,1.15-1.63-.94h0Zm.64,3.85s0-.02.01-.02l1.92-1.11,1.63.94-1.94,1.15-1.63-.94h0Zm.35,3.69s0-.02.01-.02l1.93-1.11,1.63.94-1.94,1.15-1.63-.94h0Zm.08-11.14s0-.02.01-.02l1.93-1.11,1.63.94-1.94,1.15-1.63-.94h0Zm.49,18.43s0-.02.01-.03l1.93-1.11,2.61,1.51-1.94,1.15-2.61-1.51h0Zm.49-3.2s.01-.02.02-.03l1.93-1.11,5.14,2.97-1.94,1.15-5.14-2.97h0Zm.62-10.08s0-.02.01-.03l1.93-1.11,1.63.94-1.94,1.15-1.63-.94h0Zm.64,3.85s0-.02.01-.03l1.93-1.11,1.63.94-1.94,1.15-1.63-.94h0Zm.35,3.68s0-.02.01-.02l1.93-1.11,1.63.94-1.94,1.15-1.63-.94h0Zm.08-11.14s0-.02.01-.03l1.93-1.11,1.63.94-1.94,1.15-1.63-.94h0Zm1.6,5.15s0-.02.01-.03l1.93-1.11,1.63.94-1.94,1.15-1.63-.94h0Zm.44,14.17s0-.02.01-.02l1.93-1.11,1.63.94-1.94,1.15-1.63-.94h0Zm.2-10.33s0-.02.01-.03l1.93-1.11,1.63.94-1.94,1.15-1.63-.94h0Zm.35,3.69s0-.02.01-.02l1.93-1.11,1.49.86c.1.06.28.1.47.1s.38-.04.49-.1l2.53-1.46,1.91,1.1-4.95,2.89-3.87-2.24h0Zm.08-11.14s0-.02.01-.02l1.93-1.11,1.63.94-1.94,1.15-1.63-.94h0Zm1.6,5.15s0-.02.01-.02l1.93-1.11,1.63.94-1.94,1.15-1.63-.94h0Zm.44,14.17s0-.02.01-.03l1.93-1.11,1.63.94-1.94,1.15-1.63-.94h0Zm.2-10.33s0-.02.01-.03l1.93-1.11,1.63.94-1.94,1.15-1.63-.94h0Zm1.59-6.79s0-.02.01-.03l1.93-1.11,1.63.94-1.94,1.15-1.63-.94h0Zm.44,4.48s0-.02.01-.03l1.93-1.11,1.63.94-1.94,1.15-1.63-.94h0Zm.43,14.18s0-.02.02-.03l1.93-1.11,1.63.94-1.94,1.15-1.63-.94h0Zm.35-3.28s0-.02.01-.03l1.93-1.11,1.63.94-1.94,1.15-1.63-.94h0Zm1.44-13.83s0-.02.01-.03l1.93-1.11,1.63.94-1.94,1.15-1.63-.94h0Zm.44,4.48s0-.02.01-.03l1.93-1.11,2.89,1.67-1.94,1.15-2.89-1.67h0Zm1,14.5s0-.02.01-.02l1.93-1.11,4.3,2.48-1.94,1.15-4.29-2.48h0Zm.48-10.16s0-.02.01-.03l1.93-1.11,1.63.94-1.94,1.15-1.63-.94h0Zm.75-7.27s0-.02.01-.03l1.92-1.11,1.63.94-1.94,1.15-1.63-.94h0Zm1.78,15.7s0-.02.01-.03l1.93-1.11,1.63.94-1.94,1.15-1.63-.94h0Zm.13-6.88s0-.02.01-.03l1.93-1.11,1.63.94-1.94,1.15-1.63-.94h0Zm.35-3.28s0-.02.01-.03l1.93-1.11,1.63.94-1.94,1.15-1.63-.94h0Zm.4-3.99s0-.02.01-.03l1.92-1.11,1.63.94-1.94,1.15-1.63-.94h0Zm1.44,18.98s0-.02.01-.03l1.93-1.11,1.63.94-1.94,1.15-1.63-.94h0Zm.35-3.28s0-.02.01-.03l1.93-1.11,1.63.94-1.94,1.15-1.63-.94h0Zm.13-6.88s0-.02.01-.03l1.93-1.11,1.63.94-1.94,1.15-1.63-.94h0Zm.21,3.6s0-.02.01-.03l1.93-1.11,1.63.94-1.94,1.15-1.63-.94h0Zm.13-6.88s0-.02.01-.03l1.93-1.11,1.63.94-1.94,1.15-1.63-.94h0Zm.99-3.65s0-.02.01-.03l1.93-1.11,1.63.94-1.94,1.15-1.63-.94h0Zm.85,18.64s0-.02.01-.03l4.94-2.85,1.63.94-4.95,2.89-1.63-.94h0Zm.35-3.28s0-.02.01-.03l1.92-1.11,1.63.94-1.94,1.15-1.63-.94h0Zm.35-3.28s0-.02.01-.03l1.92-1.11,1.63.94-1.94,1.15-1.63-.94h0Zm.13-6.88s0-.02.01-.03l1.93-1.11,1.63.94-1.94,1.15-1.63-.94h0Zm.21,3.6s0-.02.01-.02l1.93-1.11,1.63.94-1.94,1.15-1.63-.94h0Zm.78-7.26s0-.02.01-.03l1.93-1.11,1.63.94-1.94,1.15-1.63-.94h0Zm1.54,12.08s0-.02.01-.03l1.93-1.11,1.63.94-1.94,1.15-1.63-.94h0Zm.35-3.28s0-.02.01-.02l1.93-1.11,1.63.94-1.94,1.15-1.63-.94h0Zm.35-3.28s0-.02.01-.02l1.93-1.11,1.63.94-1.94,1.15-1.63-.94h0Zm.43-3.98s0-.02.01-.03l1.93-1.11,1.63.94-1.94,1.15-1.63-.94h0Zm1.54,12.08s0-.02.01-.03l4.94-2.85,1.63.94-4.95,2.89-1.63-.94h0Zm.35-3.28s0-.02.01-.02l1.93-1.11,1.63.94-1.94,1.15-1.63-.94h0Zm.35-3.28s0-.02.01-.02l1.92-1.11,1.63.94-1.94,1.15-1.63-.94h0Zm1.77-4.1s0-.02.01-.03l.82-.48,1.63.94-.84.52-1.62-.94h0Zm.9,5.64s0-.02.01-.02l1.93-1.11,1.63.94-1.94,1.15-1.63-.94h0Zm1.77-4.1s0-.02.01-.03l.82-.48,1.63.94-.84.52-1.62-.94h0Zm.9,5.64s0-.02.01-.02l1.93-1.11,1.63.94-1.94,1.15-1.63-.94h0Zm1.77-4.1s0-.02.01-.03l.82-.48,1.63.94-.84.52-1.62-.94h0Zm2.67,1.54s.01-.02.02-.03l.82-.48,1.63.94-.84.52-1.62-.94h0Z"/>
        </g>
      </g>
      <g id="PC">
        <polygon id="Shadow-5" data-name="Shadow" class="cls-37" points="363.7 213.03 384.65 200.93 279.88 140.44 258.93 152.54 363.7 213.03"/>
        <g id="Monitor">
          <g>
            <path class="cls-8" d="m304.37,193.33l-14.96-8.65c-1.54-.89-2.31-2.06-2.31-3.22,0-1.17,0-2.08,0-2.08l14.08-7.99c.82-.47,1.49-1.63,1.49-2.58v-18.44l26.13,15.1v18.44c0,.95-.67,2.1-1.49,2.58l-11.76,6.85c-3.08,1.78-8.08,1.78-11.17,0Z"/>
            <path class="cls-15" d="m322.51,187.17v2.07l4.79-2.76c.82-.47,1.49-1.62,1.49-2.58v-18.44l-4.98-2.87c-.1,1.26-.21,2.57-.32,3.84l3.49,2.02v14.41c0,.95-.66,2.11-1.49,2.58l-2.98,1.73Z"/>
            <path class="cls-20" d="m326.98,182.87c0,.95-.67,2.1-1.49,2.58l-9.95,5.8c-3.08,1.78-8.08,1.78-11.17,0l-14.97-8.65c-3.08-1.78-3.08-4.67,0-6.45l9.96-5.81c.82-.47,1.49-1.63,1.49-2.58v-14.41s26.13,15.1,26.13,15.1v14.41Z"/>
            <path class="cls-36" d="m296.33,172.1h0s3.03-1.75,3.03-1.75c.82-.47,1.49-1.63,1.49-2.58v-14.41l26.13,15.1v14.41c0,.95-.67,2.1-1.49,2.58l-2.98,1.72-26.18-15.07Z"/>
            <path class="cls-36" d="m287.09,179.38v2.08c0,1.17.77,2.33,2.31,3.22l14.96,8.64c1.48.86,3.4,1.29,5.33,1.32v-2.07c-1.93-.03-3.85-.47-5.33-1.32l-14.96-8.65c-1.54-.89-2.31-2.05-2.31-3.22Z"/>
          </g>
          <path class="cls-38" d="m368.94,202.77c-.96.56-2.58.53-3.61-.07-12.85-7.42-88.2-50.92-101.05-58.34-1.03-.59-1.86-2.04-1.86-3.22V52.69c0-1.19.78-2.6,1.75-3.16s2.58-.53,3.61.07l101.05,58.34c1.03.59,1.86,2.04,1.86,3.22v88.44c0,1.19-.78,2.6-1.74,3.16Z"/>
          <path class="cls-9" d="m365.33,202.7l-101.05-58.34c-1.03-.59-1.86-2.04-1.86-3.22V52.69c0-1.19.83-1.67,1.86-1.07l101.05,58.34c1.03.59,1.86,2.04,1.86,3.22v88.44c0,1.19-.83,1.67-1.86,1.07Z"/>
          <path class="cls-14" d="m365.33,202.7l-101.05-58.34c-1.03-.59-1.86-2.04-1.86-3.22V52.69c0-1.19.83-1.67,1.86-1.07l101.05,58.34c1.03.59,1.86,2.04,1.86,3.22v88.44c0,1.19-.83,1.67-1.86,1.07Z"/>
          <path class="cls-15" d="m365.6,203.07c1.03.46,2.46.44,3.34-.07.96-.56,1.75-1.97,1.75-3.16v-9.95l-3.49,2.02v9.95c0,1.08-.69,1.57-1.59,1.21Z"/>
          <path class="cls-27" d="m367.19,191.9v9.95c0,1.19-.83,1.67-1.86,1.07l-101.05-58.34c-1.03-.59-1.86-2.04-1.86-3.22v-9.95l104.77,60.49Z"/>
          <path class="cls-9" d="m363.7,184.34v-70c0-.71-.5-1.58-1.12-1.93l-95.55-55.17c-.62-.36-1.12-.07-1.12.64v70c0,.71.5,1.58,1.11,1.93l95.55,55.16c.62.36,1.12.07,1.12-.64Z"/>
          <path class="cls-16" d="m363.7,184.34v-70c0-.71-.5-1.58-1.12-1.93l-95.55-55.17c-.62-.36-1.12-.07-1.12.64v70c0,.71.5,1.58,1.11,1.93l95.55,55.16c.62.36,1.12.07,1.12-.64Z"/>
          <path class="cls-38" d="m358.05,113.76l-85.07-49.12c-.62-.36-1.12-.07-1.12.64v61.94c0,.71.5,1.58,1.12,1.93l85.07,49.12c.62.36,1.12.07,1.12-.65v-61.94c0-.71-.5-1.58-1.12-1.93Z"/>
          <g>
            <path class="cls-31" d="m281.78,79.83v38.94c0,.24-.17.33-.37.21l-6.24-3.6c-.21-.12-.37-.41-.37-.64v-38.94c0-.24.17-.33.37-.21l6.24,3.6c.21.12.37.41.37.64Z"/>
            <g>
              <path class="cls-14" d="m280.91,80.75l-2.06-1.19c-.15-.09-.28-.02-.28.16v2.38c0,.18.12.39.28.48l2.06,1.19c.15.09.28.02.28-.16v-2.38c0-.18-.12-.39-.28-.48Z"/>
              <path class="cls-14" d="m277.73,78.91l-2.06-1.19c-.15-.09-.28-.02-.28.16v2.38c0,.18.12.39.28.48l2.06,1.19c.15.09.28.02.28-.16v-2.38c0-.18-.12-.39-.28-.48Z"/>
              <path class="cls-14" d="m280.91,84.36l-2.06-1.19c-.15-.09-.28-.02-.28.16v2.38c0,.18.12.39.28.48l2.06,1.19c.15.09.28.02.28-.16v-2.38c0-.18-.12-.39-.28-.48Z"/>
              <path class="cls-14" d="m277.73,82.52l-2.06-1.19c-.15-.09-.28-.02-.28.16v2.38c0,.18.12.39.28.48l2.06,1.19c.15.09.28.02.28-.16v-2.38c0-.18-.12-.39-.28-.48Z"/>
              <path class="cls-14" d="m280.91,87.97l-2.06-1.19c-.15-.09-.28-.02-.28.16v2.38c0,.18.12.39.28.48l2.06,1.19c.15.09.28.02.28-.16v-2.38c0-.18-.12-.39-.28-.48Z"/>
              <path class="cls-14" d="m277.73,86.13l-2.06-1.19c-.15-.09-.28-.02-.28.16v2.38c0,.18.12.39.28.48l2.06,1.19c.15.09.28.02.28-.16v-2.38c0-.18-.12-.39-.28-.48Z"/>
              <path class="cls-14" d="m280.91,91.58l-2.06-1.19c-.15-.09-.28-.02-.28.16v2.38c0,.18.12.39.28.48l2.06,1.19c.15.09.28.02.28-.16v-2.38c0-.18-.12-.39-.28-.48Z"/>
              <path class="cls-14" d="m277.73,89.74l-2.06-1.19c-.15-.09-.28-.02-.28.16v2.38c0,.18.12.39.28.48l2.06,1.19c.15.09.28.02.28-.16v-2.38c0-.18-.12-.39-.28-.48Z"/>
              <path class="cls-14" d="m280.91,95.19l-2.06-1.19c-.15-.09-.28-.02-.28.16v2.38c0,.18.12.39.28.48l2.06,1.19c.15.09.28.02.28-.16v-2.38c0-.18-.12-.39-.28-.48Z"/>
              <path class="cls-14" d="m277.73,93.35l-2.06-1.19c-.15-.09-.28-.02-.28.16v2.38c0,.18.12.39.28.48l2.06,1.19c.15.09.28.02.28-.16v-2.38c0-.18-.12-.39-.28-.48Z"/>
              <path class="cls-14" d="m280.91,98.8l-2.06-1.19c-.15-.09-.28-.02-.28.16v2.38c0,.18.12.39.28.48l2.06,1.19c.15.09.28.02.28-.16v-2.38c0-.18-.12-.39-.28-.48Z"/>
              <path class="cls-14" d="m277.73,96.96l-2.06-1.19c-.15-.09-.28-.02-.28.16v2.38c0,.18.12.39.28.48l2.06,1.19c.15.09.28.02.28-.16v-2.38c0-.18-.12-.39-.28-.48Z"/>
              <path class="cls-14" d="m280.91,102.41l-2.06-1.19c-.15-.09-.28-.02-.28.16v2.38c0,.18.12.39.28.48l2.06,1.19c.15.09.28.02.28-.16v-2.38c0-.18-.12-.39-.28-.48Z"/>
              <path class="cls-14" d="m277.73,100.57l-2.06-1.19c-.15-.09-.28-.02-.28.16v2.38c0,.18.12.39.28.48l2.06,1.19c.15.09.28.02.28-.16v-2.38c0-.18-.12-.39-.28-.48Z"/>
              <path class="cls-14" d="m280.91,106.02l-2.06-1.19c-.15-.09-.28-.02-.28.16v2.38c0,.18.12.39.28.48l2.06,1.19c.15.09.28.02.28-.16v-2.38c0-.18-.12-.39-.28-.48Z"/>
              <path class="cls-14" d="m277.73,104.18l-2.06-1.19c-.15-.09-.28-.02-.28.16v2.38c0,.18.12.39.28.48l2.06,1.19c.15.09.28.02.28-.16v-2.38c0-.18-.12-.39-.28-.48Z"/>
            </g>
            <path class="cls-15" d="m280.78,110.54l-3.07-1.77c-.23-.13-.42-.03-.42.24v3.55c0,.27.19.59.42.72l3.07,1.77c.23.13.42.03.42-.24v-3.55c0-.27-.19-.59-.42-.72Z"/>
            <path class="cls-38" d="m275.98,111.14l2.52,1.46s.09.12.09.17v2.91s-2.52-1.46-2.52-1.46c-.03-.02-.09-.12-.09-.17v-2.91m-.41-.93c-.14,0-.23.11-.23.3v3.55c0,.27.19.59.42.72l3.07,1.77c.07.04.13.06.19.06.14,0,.23-.11.23-.3v-3.55c0-.27-.19-.59-.42-.72l-3.07-1.77c-.07-.04-.13-.06-.19-.06h0Z"/>
          </g>
          <path class="cls-14" d="m346.42,120.2l-55.36-31.96c-1.17-.68-2.12-.13-2.12,1.22v41.01c0,1.35.95,2.99,2.12,3.67l55.35,31.94c1.17.67,2.12.13,2.12-1.22v-40.98c0-1.35-.95-2.99-2.12-3.67Z"/>
          <g>
            <g>
              <path class="cls-4" d="m294.13,96.54c-.09,0-.16-.07-.16-.16v-.64c0-.06.03-.11.08-.14.05-.03.11-.03.16,0l.56.32c.08.04.1.14.06.22-.05.08-.14.1-.22.06l-.31-.18v.36c0,.09-.07.16-.16.16Z"/>
              <path class="cls-4" d="m313.1,106.85s-.06,0-.08-.02l-1.15-.66c-.08-.04-.1-.14-.06-.22.04-.08.14-.1.22-.06l1.15.66c.08.04.1.14.06.22-.03.05-.08.08-.14.08Zm-2.3-1.33s-.06,0-.08-.02l-1.15-.66c-.08-.04-.1-.14-.06-.22.04-.08.14-.1.22-.06l1.15.66c.08.04.1.14.06.22-.03.05-.08.08-.14.08Zm-2.3-1.33s-.05,0-.08-.02l-1.15-.66c-.08-.04-.1-.14-.06-.22.04-.08.14-.1.22-.06l1.15.66c.08.04.1.14.06.22-.03.05-.08.08-.14.08Zm-2.3-1.33s-.05,0-.08-.02l-1.15-.66c-.08-.04-.1-.14-.06-.22.04-.08.14-.1.22-.06l1.15.66c.08.04.1.14.06.22-.03.05-.08.08-.14.08Zm-2.3-1.33s-.06,0-.08-.02l-1.15-.66c-.08-.04-.1-.14-.06-.22.05-.08.14-.1.22-.06l1.15.66c.08.04.1.14.06.22-.03.05-.08.08-.14.08Zm-2.3-1.33s-.06,0-.08-.02l-1.15-.66c-.08-.04-.1-.14-.06-.22.05-.08.14-.1.22-.06l1.15.66c.08.04.1.14.06.22-.03.05-.08.08-.14.08Zm-2.3-1.33s-.06,0-.08-.02l-1.15-.66c-.08-.04-.1-.14-.06-.22.04-.08.14-.1.22-.06l1.15.66c.08.04.1.14.06.22-.03.05-.08.08-.14.08Zm-2.3-1.33s-.05,0-.08-.02l-1.15-.66c-.08-.04-.1-.14-.06-.22.04-.08.14-.1.22-.06l1.15.66c.08.04.1.14.06.22-.03.05-.08.08-.14.08Z"/>
              <path class="cls-4" d="m314.8,108.47c-.09,0-.16-.07-.16-.16v-.55l-.48-.27c-.08-.04-.1-.14-.06-.22.05-.08.14-.1.22-.06l.56.32s.08.08.08.14v.64c0,.09-.07.16-.16.16Z"/>
              <path class="cls-4" d="m314.8,139.44c-.09,0-.16-.07-.16-.16v-1.29c0-.09.07-.16.16-.16s.16.07.16.16v1.29c0,.09-.07.16-.16.16Zm0-2.58c-.09,0-.16-.07-.16-.16v-1.29c0-.09.07-.16.16-.16s.16.07.16.16v1.29c0,.09-.07.16-.16.16Zm0-2.58c-.09,0-.16-.07-.16-.16v-1.29c0-.09.07-.16.16-.16s.16.07.16.16v1.29c0,.09-.07.16-.16.16Zm0-2.58c-.09,0-.16-.07-.16-.16v-1.29c0-.09.07-.16.16-.16s.16.07.16.16v1.29c0,.09-.07.16-.16.16Zm0-2.58c-.09,0-.16-.07-.16-.16v-1.29c0-.09.07-.16.16-.16s.16.07.16.16v1.29c0,.09-.07.16-.16.16Zm0-2.58c-.09,0-.16-.07-.16-.16v-1.29c0-.09.07-.16.16-.16s.16.07.16.16v1.29c0,.09-.07.16-.16.16Zm0-2.58c-.09,0-.16-.07-.16-.16v-1.29c0-.09.07-.16.16-.16s.16.07.16.16v1.29c0,.09-.07.16-.16.16Zm0-2.58c-.09,0-.16-.07-.16-.16v-1.29c0-.09.07-.16.16-.16s.16.07.16.16v1.29c0,.09-.07.16-.16.16Zm0-2.58c-.09,0-.16-.07-.16-.16v-1.29c0-.09.07-.16.16-.16s.16.07.16.16v1.29c0,.09-.07.16-.16.16Zm0-2.58c-.09,0-.16-.07-.16-.16v-1.29c0-.09.07-.16.16-.16s.16.07.16.16v1.29c0,.09-.07.16-.16.16Zm0-2.58c-.09,0-.16-.07-.16-.16v-1.29c0-.09.07-.16.16-.16s.16.07.16.16v1.29c0,.09-.07.16-.16.16Zm0-2.58c-.09,0-.16-.07-.16-.16v-1.29c0-.09.07-.16.16-.16s.16.07.16.16v1.29c0,.09-.07.16-.16.16Z"/>
              <path class="cls-4" d="m314.8,141.38s-.06,0-.08-.02l-.56-.32c-.08-.04-.1-.14-.06-.22.05-.08.14-.1.22-.06l.32.18v-.36c0-.09.07-.16.16-.16s.16.07.16.16v.64c0,.06-.03.11-.08.14-.03.01-.05.02-.08.02Z"/>
              <path class="cls-4" d="m313.1,140.39s-.05,0-.08-.02l-1.15-.66c-.08-.04-.1-.14-.06-.22.05-.08.14-.1.22-.06l1.15.66c.08.04.1.14.06.22-.03.05-.08.08-.14.08Zm-2.3-1.33s-.06,0-.08-.02l-1.15-.66c-.08-.04-.1-.14-.06-.22.04-.08.14-.1.22-.06l1.15.66c.08.04.1.14.06.22-.03.05-.08.08-.14.08Zm-2.3-1.33s-.05,0-.08-.02l-1.15-.66c-.08-.04-.1-.14-.06-.22.04-.08.14-.1.22-.06l1.15.66c.08.04.1.14.06.22-.03.05-.08.08-.14.08Zm-2.3-1.33s-.06,0-.08-.02l-1.15-.66c-.08-.04-.1-.14-.06-.22.04-.08.14-.1.22-.06l1.15.66c.08.04.1.14.06.22-.03.05-.08.08-.14.08Zm-2.3-1.33s-.05,0-.08-.02l-1.15-.66c-.08-.04-.1-.14-.06-.22.04-.08.14-.1.22-.06l1.15.66c.08.04.1.14.06.22-.03.05-.08.08-.14.08Zm-2.3-1.33s-.06,0-.08-.02l-1.15-.66c-.08-.04-.1-.14-.06-.22.05-.08.14-.1.22-.06l1.15.66c.08.04.1.14.06.22-.03.05-.08.08-.14.08Zm-2.3-1.33s-.06,0-.08-.02l-1.15-.66c-.08-.04-.1-.14-.06-.22.05-.08.14-.1.22-.06l1.15.66c.08.04.1.14.06.22-.03.05-.08.08-.14.08Zm-2.3-1.33s-.06,0-.08-.02l-1.15-.66c-.08-.04-.1-.14-.06-.22.04-.08.14-.1.22-.06l1.15.66c.08.04.1.14.06.22-.03.05-.08.08-.14.08Z"/>
              <path class="cls-4" d="m294.68,129.76s-.05,0-.08-.02l-.56-.32s-.08-.08-.08-.14v-.64c0-.09.07-.16.16-.16s.16.07.16.16v.55l.48.27c.08.04.1.14.06.22-.03.05-.08.08-.14.08Z"/>
              <path class="cls-4" d="m294.13,127.51c-.09,0-.16-.07-.16-.16v-1.29c0-.09.07-.16.16-.16s.16.07.16.16v1.29c0,.09-.07.16-.16.16Zm0-2.58c-.09,0-.16-.07-.16-.16v-1.29c0-.09.07-.16.16-.16s.16.07.16.16v1.29c0,.09-.07.16-.16.16Zm0-2.58c-.09,0-.16-.07-.16-.16v-1.29c0-.09.07-.16.16-.16s.16.07.16.16v1.29c0,.09-.07.16-.16.16Zm0-2.58c-.09,0-.16-.07-.16-.16v-1.29c0-.09.07-.16.16-.16s.16.07.16.16v1.29c0,.09-.07.16-.16.16Zm0-2.58c-.09,0-.16-.07-.16-.16v-1.29c0-.09.07-.16.16-.16s.16.07.16.16v1.29c0,.09-.07.16-.16.16Zm0-2.58c-.09,0-.16-.07-.16-.16v-1.29c0-.09.07-.16.16-.16s.16.07.16.16v1.29c0,.09-.07.16-.16.16Zm0-2.58c-.09,0-.16-.07-.16-.16v-1.29c0-.09.07-.16.16-.16s.16.07.16.16v1.29c0,.09-.07.16-.16.16Zm0-2.58c-.09,0-.16-.07-.16-.16v-1.29c0-.09.07-.16.16-.16s.16.07.16.16v1.29c0,.09-.07.16-.16.16Zm0-2.58c-.09,0-.16-.07-.16-.16v-1.29c0-.09.07-.16.16-.16s.16.07.16.16v1.29c0,.09-.07.16-.16.16Zm0-2.58c-.09,0-.16-.07-.16-.16v-1.29c0-.09.07-.16.16-.16s.16.07.16.16v1.29c0,.09-.07.16-.16.16Zm0-2.58c-.09,0-.16-.07-.16-.16v-1.29c0-.09.07-.16.16-.16s.16.07.16.16v1.29c0,.09-.07.16-.16.16Zm0-2.58c-.09,0-.16-.07-.16-.16v-1.29c0-.09.07-.16.16-.16s.16.07.16.16v1.29c0,.09-.07.16-.16.16Z"/>
            </g>
            <g>
              <path class="cls-9" d="m294.39,96.48c-.06,0-.12-.03-.15-.09l-.27-.58c-.04-.08,0-.18.08-.21.08-.04.18,0,.21.08l.27.58c.04.08,0,.18-.08.21-.02.01-.04.01-.07.01Z"/>
              <path class="cls-9" d="m313.99,139.59c-.06,0-.12-.03-.15-.09l-.54-1.2c-.04-.08,0-.18.08-.21.08-.04.18,0,.21.08l.54,1.2c.04.08,0,.18-.08.21-.02.01-.04.01-.07.01Zm-1.09-2.4c-.06,0-.12-.03-.15-.09l-.54-1.2c-.04-.08,0-.18.08-.21.08-.04.18,0,.21.08l.54,1.2c.04.08,0,.18-.08.21-.02.01-.04.01-.07.01Zm-1.09-2.4c-.06,0-.12-.03-.15-.09l-.55-1.2c-.04-.08,0-.18.08-.21.08-.04.18,0,.21.08l.54,1.2c.04.08,0,.18-.08.21-.02.01-.04.01-.07.01Zm-1.09-2.4c-.06,0-.12-.03-.15-.09l-.55-1.2c-.04-.08,0-.18.08-.21.08-.04.18,0,.21.08l.54,1.2c.04.08,0,.18-.08.21-.02.01-.04.01-.07.01Zm-1.09-2.4c-.06,0-.12-.03-.15-.09l-.55-1.2c-.04-.08,0-.18.08-.21.08-.04.18,0,.21.08l.54,1.2c.04.08,0,.18-.08.21-.02.01-.04.01-.07.01Zm-1.09-2.4c-.06,0-.12-.03-.15-.09l-.54-1.2c-.04-.08,0-.18.08-.21.08-.04.18,0,.21.08l.54,1.2c.04.08,0,.18-.08.21-.02.01-.04.01-.07.01Zm-1.09-2.4c-.06,0-.12-.03-.15-.09l-.54-1.2c-.04-.08,0-.18.08-.21.08-.04.18,0,.21.08l.54,1.2c.04.08,0,.18-.08.21-.02.01-.04.01-.07.01Zm-1.09-2.4c-.06,0-.12-.03-.15-.09l-.54-1.2c-.04-.08,0-.18.08-.21.08-.04.18,0,.21.08l.55,1.2c.04.08,0,.18-.08.21-.02.01-.04.01-.07.01Zm-1.09-2.4c-.06,0-.12-.03-.15-.09l-.54-1.2c-.04-.08,0-.18.08-.21.08-.04.18,0,.21.08l.54,1.2c.04.08,0,.18-.08.21-.02,0-.04.01-.07.01Zm-1.09-2.4c-.06,0-.12-.03-.15-.09l-.54-1.2c-.04-.08,0-.18.08-.21.08-.04.18,0,.21.08l.54,1.2c.04.08,0,.18-.08.21-.02.01-.04.01-.07.01Zm-1.09-2.4c-.06,0-.12-.03-.15-.09l-.54-1.2c-.04-.08,0-.18.08-.21.08-.04.18,0,.21.08l.54,1.2c.04.08,0,.18-.08.21-.02.01-.04.01-.07.01Zm-1.09-2.4c-.06,0-.12-.03-.15-.09l-.54-1.2c-.04-.08,0-.18.08-.21.08-.04.18,0,.21.08l.54,1.2c.04.08,0,.18-.08.21-.02.01-.04.01-.07.01Zm-1.09-2.4c-.06,0-.12-.03-.15-.09l-.54-1.2c-.04-.08,0-.18.08-.21.08-.04.18,0,.21.08l.54,1.2c.04.08,0,.18-.08.21-.02.01-.04.01-.07.01Zm-1.09-2.4c-.06,0-.12-.03-.15-.09l-.55-1.2c-.04-.08,0-.18.08-.21.08-.04.18,0,.21.08l.54,1.2c.04.08,0,.18-.08.21-.02.01-.04.01-.07.01Zm-1.09-2.4c-.06,0-.12-.03-.15-.09l-.54-1.2c-.04-.08,0-.18.08-.21.08-.04.18,0,.21.08l.54,1.2c.04.08,0,.18-.08.21-.02,0-.04.01-.07.01Zm-1.09-2.4c-.06,0-.12-.03-.15-.09l-.54-1.2c-.04-.08,0-.18.08-.21.08-.04.18,0,.21.08l.54,1.2c.04.08,0,.18-.08.21-.02.01-.04.01-.07.01Zm-1.09-2.4c-.06,0-.12-.03-.15-.09l-.54-1.2c-.04-.08,0-.18.08-.21.08-.04.18,0,.21.08l.54,1.2c.04.08,0,.18-.08.21-.02.01-.04.01-.07.01Zm-1.09-2.4c-.06,0-.12-.03-.15-.09l-.54-1.2c-.04-.08,0-.18.08-.21.08-.04.18,0,.21.08l.55,1.2c.04.08,0,.18-.08.21-.02.01-.04.01-.07.01Z"/>
              <path class="cls-9" d="m314.8,141.38c-.06,0-.12-.03-.15-.09l-.27-.58c-.04-.08,0-.18.08-.21.08-.04.18,0,.21.08l.27.58c.04.08,0,.18-.08.21-.02.01-.04.01-.07.01Z"/>
            </g>
            <g>
              <path class="cls-9" d="m314.36,108.3s-.08-.01-.11-.04c-.06-.06-.07-.16,0-.23l.44-.46c.06-.07.16-.07.23,0,.06.06.07.16,0,.23l-.44.46s-.07.05-.12.05Z"/>
              <path class="cls-9" d="m295.43,128.07s-.08-.01-.11-.04c-.06-.06-.07-.16,0-.23l.86-.9c.06-.07.16-.07.23,0,.06.06.07.16,0,.23l-.86.9s-.07.05-.12.05Zm1.72-1.8s-.08-.01-.11-.04c-.06-.06-.07-.16,0-.23l.86-.9c.06-.07.16-.07.23,0,.06.06.07.16,0,.23l-.86.9s-.07.05-.12.05Zm1.72-1.8s-.08-.01-.11-.04c-.06-.06-.07-.16,0-.23l.86-.9c.06-.07.16-.07.23,0,.06.06.07.16,0,.23l-.86.9s-.07.05-.12.05Zm1.72-1.8s-.08-.01-.11-.04c-.06-.06-.07-.16,0-.23l.86-.9c.06-.07.16-.07.23,0,.06.06.07.16,0,.23l-.86.9s-.07.05-.12.05Zm1.72-1.8s-.08-.01-.11-.04c-.06-.06-.07-.16,0-.23l.86-.9c.06-.07.16-.07.23,0,.06.06.07.16,0,.23l-.86.9s-.07.05-.12.05Zm1.72-1.8s-.08-.01-.11-.04c-.06-.06-.07-.16,0-.23l.86-.9c.06-.07.16-.07.23,0,.06.06.07.16,0,.23l-.86.9s-.07.05-.12.05Zm1.72-1.8s-.08-.01-.11-.04c-.06-.06-.07-.16,0-.23l.86-.9c.06-.07.16-.07.23,0,.06.06.07.16,0,.23l-.86.9s-.07.05-.12.05Zm1.72-1.8s-.08-.01-.11-.04c-.06-.06-.07-.16,0-.23l.86-.9c.06-.06.16-.07.23,0,.06.06.07.16,0,.23l-.86.9s-.07.05-.12.05Zm1.72-1.8s-.08-.01-.11-.04c-.06-.06-.07-.16,0-.23l.86-.9c.06-.07.16-.07.23,0,.06.06.07.16,0,.23l-.86.9s-.07.05-.12.05Zm1.72-1.8s-.08-.01-.11-.04c-.06-.06-.07-.16,0-.23l.86-.9c.06-.06.16-.07.23,0,.06.06.07.16,0,.23l-.86.9s-.07.05-.12.05Zm1.72-1.8s-.08-.01-.11-.04c-.06-.06-.07-.16,0-.23l.86-.9c.06-.07.16-.07.23,0,.06.06.07.16,0,.23l-.86.9s-.07.05-.12.05Z"/>
              <path class="cls-9" d="m294.13,129.44s-.08-.01-.11-.04c-.06-.06-.07-.16,0-.23l.44-.46c.06-.07.16-.07.23,0,.06.06.07.16,0,.23l-.44.46s-.07.05-.12.05Z"/>
            </g>
            <g>
              <path class="cls-9" d="m304.47,135.41c-.09,0-.16-.07-.16-.16v-.64c0-.09.07-.16.16-.16s.16.07.16.16v.64c0,.09-.07.16-.16.16Z"/>
              <path class="cls-9" d="m304.47,133.57c-.09,0-.16-.07-.16-.16v-1.19c0-.09.07-.16.16-.16s.16.07.16.16v1.19c0,.09-.07.16-.16.16Zm0-2.38c-.09,0-.16-.07-.16-.16v-1.19c0-.09.07-.16.16-.16s.16.07.16.16v1.19c0,.09-.07.16-.16.16Zm0-2.38c-.09,0-.16-.07-.16-.16v-1.19c0-.09.07-.16.16-.16s.16.07.16.16v1.19c0,.09-.07.16-.16.16Zm0-2.38c-.09,0-.16-.07-.16-.16v-1.19c0-.09.07-.16.16-.16s.16.07.16.16v1.19c0,.09-.07.16-.16.16Zm0-2.38c-.09,0-.16-.07-.16-.16v-1.19c0-.09.07-.16.16-.16s.16.07.16.16v1.19c0,.09-.07.16-.16.16Zm0-2.38c-.09,0-.16-.07-.16-.16v-1.19c0-.09.07-.16.16-.16s.16.07.16.16v1.19c0,.09-.07.16-.16.16Z"/>
              <path class="cls-9" d="m304.47,119.28c-.09,0-.16-.07-.16-.16v-.64c0-.06.03-.11.08-.14.05-.03.11-.03.16,0l.56.32c.08.04.1.14.06.22-.05.08-.14.1-.22.06l-.31-.18v.36c0,.09-.07.16-.16.16Z"/>
              <path class="cls-9" d="m313.21,123.68s-.06,0-.08-.02l-1.02-.59c-.08-.04-.1-.14-.06-.22.04-.08.14-.1.22-.06l1.02.59c.08.04.1.14.06.22-.03.05-.08.08-.14.08Zm-2.05-1.18s-.06,0-.08-.02l-1.02-.59c-.08-.04-.1-.14-.06-.22.04-.08.14-.1.22-.06l1.02.59c.08.04.1.14.06.22-.03.05-.08.08-.14.08Zm-2.05-1.18s-.06,0-.08-.02l-1.02-.59c-.08-.04-.1-.14-.06-.22.05-.08.14-.1.22-.06l1.02.59c.08.04.1.14.06.22-.03.05-.08.08-.14.08Zm-2.05-1.18s-.06,0-.08-.02l-1.02-.59c-.08-.04-.1-.14-.06-.22.04-.08.14-.1.22-.06l1.02.59c.08.04.1.14.06.22-.03.05-.08.08-.14.08Z"/>
              <path class="cls-9" d="m314.79,124.59s-.05,0-.08-.02l-.56-.32c-.08-.04-.1-.14-.06-.22.04-.08.14-.1.22-.06l.56.32c.08.04.1.14.06.22-.03.05-.08.08-.14.08Z"/>
            </g>
            <g>
              <path class="cls-9" d="m304.47,102.41c-.09,0-.16-.07-.16-.16v-.64c0-.09.07-.16.16-.16s.16.07.16.16v.64c0,.09-.07.16-.16.16Z"/>
              <path class="cls-9" d="m304.47,116.7c-.09,0-.16-.07-.16-.16v-1.19c0-.09.07-.16.16-.16s.16.07.16.16v1.19c0,.09-.07.16-.16.16Zm0-2.38c-.09,0-.16-.07-.16-.16v-1.19c0-.09.07-.16.16-.16s.16.07.16.16v1.19c0,.09-.07.16-.16.16Zm0-2.38c-.09,0-.16-.07-.16-.16v-1.19c0-.09.07-.16.16-.16s.16.07.16.16v1.19c0,.09-.07.16-.16.16Zm0-2.38c-.09,0-.16-.07-.16-.16v-1.19c0-.09.07-.16.16-.16s.16.07.16.16v1.19c0,.09-.07.16-.16.16Zm0-2.38c-.09,0-.16-.07-.16-.16v-1.19c0-.09.07-.16.16-.16s.16.07.16.16v1.19c0,.09-.07.16-.16.16Zm0-2.38c-.09,0-.16-.07-.16-.16v-1.19c0-.09.07-.16.16-.16s.16.07.16.16v1.19c0,.09-.07.16-.16.16Z"/>
              <path class="cls-9" d="m304.47,118.54s-.06,0-.08-.02l-.56-.32c-.08-.04-.1-.14-.06-.22.04-.08.14-.1.22-.06l.32.18v-.37c0-.09.07-.16.16-.16s.16.07.16.16v.64c0,.06-.03.11-.08.14-.03.01-.05.02-.08.02Z"/>
              <path class="cls-9" d="m302.89,117.62s-.06,0-.08-.02l-1.02-.59c-.08-.04-.1-.14-.06-.22.05-.08.14-.1.22-.06l1.02.59c.08.04.1.14.06.22-.03.05-.08.08-.14.08Zm-2.05-1.18s-.06,0-.08-.02l-1.02-.59c-.08-.04-.1-.14-.06-.22.04-.08.14-.1.22-.06l1.02.59c.08.04.1.14.06.22-.03.05-.08.08-.14.08Zm-2.05-1.18s-.06,0-.08-.02l-1.02-.59c-.08-.04-.1-.14-.06-.22.04-.08.14-.1.22-.06l1.02.59c.08.04.1.14.06.22-.03.05-.08.08-.14.08Zm-2.05-1.18s-.06,0-.08-.02l-1.02-.59c-.08-.04-.1-.14-.06-.22.05-.08.14-.1.22-.06l1.02.59c.08.04.1.14.06.22-.03.05-.08.08-.14.08Z"/>
              <path class="cls-9" d="m294.7,112.9s-.05,0-.08-.02l-.56-.32c-.08-.04-.1-.14-.06-.22.04-.08.14-.1.22-.06l.56.32c.08.04.1.14.06.22-.03.05-.08.08-.14.08Z"/>
            </g>
            <path class="cls-46" d="m314.8,124.44c0,9.26-4.64,14.1-10.36,10.79-5.72-3.3-10.36-13.49-10.36-22.75s4.64-14.1,10.36-10.79c5.72,3.3,10.36,13.49,10.36,22.75Z"/>
          </g>
          <polygon class="cls-9" points="320.12 143.64 337.58 153.72 320.12 115.16 320.12 143.64"/>
          <path class="cls-14" d="m271.86,65.27c0-.71.5-.99,1.12-.64l85.07,49.12c.62.36,1.12,1.22,1.12,1.93v4.76l-87.31-50.41v-4.77Z"/>
          <path class="cls-38" d="m314.81,165.47c.96.56,1.75,1.91,1.75,3.03s-.78,1.56-1.75,1.01c-.96-.56-1.75-1.91-1.75-3.03,0-1.11.78-1.57,1.75-1.01Z"/>
          <path class="cls-31" d="m366.64,111.34c.34.58.54,1.25.55,1.84v78.73l3.49-2.02v-78.72c0-.59-.22-1.26-.55-1.84l-3.49,2.01Z"/>
        </g>
      </g>
      <g id="Tablet">
        <path id="Shadow-6" data-name="Shadow" class="cls-37" d="m323.12,242l-53.91-31.13c-.5-.29-1.32-.29-1.83,0l-32.47,18.75c-.5.29-.5.76,0,1.06l53.91,31.12c.5.29,1.32.29,1.83,0l32.47-18.75c.5-.29.5-.76,0-1.06Z"/>
        <g id="Tablet-2" data-name="Tablet">
          <path class="cls-9" d="m322.23,238.65l-52.42-30.27c-.49-.28-1.29-.28-1.78,0l-31.58,18.23c-.49.28-.89.97-.89,1.54v.35c0,.57.4,1.26.89,1.54l52.42,30.27c.49.28,1.29.28,1.78,0l31.58-18.23c.49-.28.89-.97.89-1.54v-.35c0-.57-.4-1.26-.89-1.54Z"/>
          <path class="cls-9" d="m322.23,238.65l-52.42-30.27c-.49-.28-1.29-.28-1.78,0l-31.58,18.23c-.49.28-.49.74,0,1.03l52.42,30.27c.49.28,1.29.28,1.78,0l31.58-18.23c.49-.28.49-.74,0-1.03Z"/>
          <g class="cls-42">
            <path class="cls-12" d="m322.23,238.65l-52.42-30.27c-.49-.28-1.29-.28-1.78,0l-31.58,18.23c-.49.28-.49.74,0,1.03l52.42,30.27c.49.28,1.29.28,1.78,0l31.58-18.23c.49-.28.49-.74,0-1.03Z"/>
          </g>
          <path class="cls-14" d="m278.32,218.13c-.49-.28-1.29-.29-1.78,0-3.91,2.23-19.36,11.17-23.24,13.42-.49.28-.49.74,0,1.03,5.11,2.95,30.66,17.69,35.75,20.64.49.28,1.29.28,1.78,0l23.24-13.42c.49-.28.49-.74,0-1.03l-35.75-20.64Z"/>
          <g>
            <path class="cls-14" d="m261.87,219.7c1.56.9,1.56,2.36,0,3.26-1.56.9-4.09.9-5.65,0-1.56-.9-1.56-2.36,0-3.26,1.56-.9,4.09-.9,5.65,0Z"/>
            <g>
              <path class="cls-14" d="m253.09,223.09l2.54,1.48c.74.42.87,1.04.29,1.37-.58.33-1.64.26-2.38-.17l-2.54-1.48c-.74-.42-.87-1.04-.29-1.37.58-.33,1.64-.26,2.38.17Z"/>
              <path class="cls-14" d="m250.13,224.8l2.54,1.48c.74.42.87,1.04.29,1.37-.58.33-1.64.26-2.38-.17l-2.54-1.48c-.74-.42-.87-1.04-.29-1.37.58-.33,1.64-.26,2.38.17Z"/>
              <path class="cls-14" d="m247.16,226.52l2.54,1.48c.74.42.87,1.04.29,1.37-.58.33-1.64.26-2.38-.17l-2.54-1.48c-.74-.42-.87-1.04-.29-1.37.58-.33,1.64-.26,2.38.17Z"/>
            </g>
            <g>
              <path class="cls-14" d="m270.11,213.3l2.54,1.48c.74.42.87,1.04.29,1.37-.58.33-1.64.26-2.38-.17l-2.54-1.48c-.74-.42-.87-1.04-.29-1.37.58-.33,1.64-.26,2.38.17Z"/>
              <path class="cls-14" d="m267.15,215.02l2.54,1.48c.74.42.87,1.04.29,1.37s-1.64.26-2.38-.17l-2.54-1.48c-.74-.42-.87-1.04-.29-1.37.58-.33,1.64-.26,2.38.17Z"/>
              <path class="cls-14" d="m264.19,216.73l2.54,1.48c.74.42.87,1.04.29,1.37-.58.33-1.64.26-2.38-.17l-2.54-1.48c-.74-.42-.87-1.04-.29-1.37.58-.33,1.64-.26,2.38.17Z"/>
            </g>
          </g>
          <g class="cls-43">
            <path class="cls-12" d="m289.77,258.12v2.4c.32,0,.65-.07.89-.21l31.57-18.24c.49-.28.89-.96.89-1.54v-.35c0-.5-.32-1.11-.73-1.43.32.28.27.66-.16.91l-31.57,18.23c-.25.14-.56.22-.89.22Z"/>
          </g>
          <g class="cls-41">
            <path class="cls-12" d="m235.56,228.15v.36c0,.56.4,1.25.89,1.54l52.42,30.27c.25.14.56.21.89.21v-2.4c-.33,0-.65-.07-.89-.22l-52.42-30.27c-.43-.25-.48-.63-.16-.91-.41.33-.73.92-.73,1.43Z"/>
          </g>
        </g>
      </g>
      <g id="Pencil">
        <path id="Shadow-7" data-name="Shadow" class="cls-37" d="m269.19,172.01c-.38.67-1.16,1.08-2.22,1.29-.27.05-.55,0-.79-.14l-21.34-12.49-1.92-2.26c-.15-.17.02-.43.24-.38l4.28,1.13,21.64,12.5c.12.07.17.23.11.35Z"/>
        <g>
          <g>
            <path class="cls-23" d="m248.37,157.52l-4.43-.87c-.13-.03-.22.13-.13.23l3.01,3.41,1.55-2.76Z"/>
            <path class="cls-31" d="m243.81,156.88c-.09-.1,0-.25.13-.23l.87.17h0c-.24.15-.38.42-.36.71v.08s-.64-.73-.64-.73Z"/>
            <path class="cls-9" d="m263.35,169.77l-.36-.21-.44-.25-15.73-9.02c-.16-.48-.08-1.01.12-1.47.31-.7.92-1.26,1.43-1.29l15.72,9.02.84.48c-.56-.28-2.14,2.46-1.58,2.74Z"/>
            <path class="cls-36" d="m261.96,168.98l-.81-.47c-.24-.13-.1-.71.18-1.32.37-.81,1.1-1.59,1.41-1.42l.6.34.21.13c-.32-.17-1.05.61-1.41,1.42-.27.58-.4,1.15-.2,1.3h0s.01.01.02.02Z"/>
            <path class="cls-9" d="m261.76,168.86c-.56-.29,1.04-3.03,1.59-2.74l.81.46c-.56-.29-2.15,2.44-1.59,2.74l-.81-.46Z"/>
            <path class="cls-36" d="m263.35,169.77l-.8-.46c-.55-.29.97-2.94,1.54-2.77.01,0,.02,0,.03.01l.8.47c-.56-.28-2.14,2.46-1.58,2.74Z"/>
            <path class="cls-37" d="m243.79,156.73l.15-.08,3.22,1.76,16.63,9.54s.06-.05.08-.02c-.47.74-.83,1.67-.52,1.83l-.36-.21-.44-.25-15.73-9.02h0s-3.01-3.41-3.01-3.41c-.04-.05-.04-.1-.02-.15Z"/>
            <path class="cls-30" d="m266.75,171.71l-3.4-1.94c-.24-.12-.11-.7.17-1.31.37-.81,1.09-1.6,1.41-1.44t0,0l3.41,1.95c.68.39.05,1.86-.7,2.52-.28.25-.6.36-.89.22Z"/>
          </g>
          <path class="cls-39" d="m266.54,170.66c.19-.77.82-1.52,1.39-1.68.21-.06.38-.03.51.07.51.47-.08,1.82-.8,2.45-.28.24-.58.35-.88.22-.25-.15-.35-.54-.22-1.06Z"/>
        </g>
      </g>
      <g id="Mouse">
        <path class="cls-37" d="m313.53,221.96l6.52,3.77c2.06,1.19,5.28,1.02,7.2-.38l10.76-7.86c1.92-1.4,1.81-3.49-.24-4.68l-3.27-1.9c-2.05-1.19-5.44-1.29-7.56-.23l-13.28,7.2c-2.12,1.06-2.18,2.89-.12,4.08Z"/>
        <path class="cls-27" d="m338.19,214.07l-7.45,5.82-5.49,4.3c-.53.25-1.14.39-1.75.42-.93.05-1.87-.13-2.6-.55l-5.84-3.37s0,0,0,0c-.01,0-.02-.01-.03-.02-2.05-1.19-2.53-3.96-1.18-5.91.06-.08.11-.16.17-.24,1.11-1.5,2.76-2.58,4.69-2.97l2.96-.59c4.79-.97,8.72-1.44,9.17-1.13l7.32,4.24s.03,0,.04.02Z"/>
        <path class="cls-38" d="m334.03,217.33l.42-.33-6.57-3.79,5.74-1.78c-.2-.11-.39-.23-.58-.34l-5.75,1.78-3.91-2.26c-.24.05-.49.09-.74.14l11.39,6.57Z"/>
        <path class="cls-8" d="m325.89,223.84s.03-.02.03-.03c0,0,0,0,0,0l5.23-3.77,7.06-5.1v-.8s0-.04-.03-.06c0,0-.03-.02-.04-.02-.52-.18-3.59.74-7.28,2.21l-2.45.97c-.77.3-1.47.72-2.09,1.24-1.76,1.45-2.83,3.65-2.83,6.01v.13c.61-.03,1.22-.17,1.75-.42l.64-.35Z"/>
      </g>
      <g id="Palettes">
        <path id="Shadow-8" data-name="Shadow" class="cls-37" d="m347.02,227.76c.13-.24.39-.41.71-.46l50.87-7.87.2-.02c.42,0,.78.2.93.51l2.2,4.74,2.72,2.72c.08.08.12.17.16.27l1.51.87c.26.15.41.4.41.67s-.15.52-.41.67l-37.24,21.5c-.21.12-.43.15-.58.15s-.37-.03-.58-.15l-7.71-4.45c-.26-.15-.41-.4-.41-.67s.15-.52.41-.67l9.06-5.23-10.6,3.53c-.12.04-.25.06-.39.06-.3,0-.59-.11-.77-.29l-5.46-5.45c-.19-.19-.26-.45-.2-.69.06-.27.28-.49.58-.59l12.04-4.01-13.52,2.09-.2.02c-.42,0-.78-.2-.93-.51l-2.82-6.08c-.1-.21-.09-.45.02-.65Z"/>
        <g id="Palette">
          <g>
            <path class="cls-21" d="m360.37,243.99c0-.06.04-.12.12-.17l37.24-21.5c.16-.09.43-.09.59,0l7.71,4.45c.08.05.12.11.12.17,0,.06,0,1.09,0,1.16,0,.06-.04.12-.12.17l-37.24,21.5c-.16.09-.43.09-.59,0l-7.71-4.45c-.08-.05-.12-.11-.12-.17s0-1.09,0-1.16Z"/>
            <path class="cls-15" d="m368.5,248.69v1.16c.1,0,.21-.02.29-.07l37.24-21.51c.08-.05.12-.1.12-.16v-1.16c0,.07-.03.12-.12.16l-37.24,21.5c-.08.05-.17.08-.29.08Z"/>
            <path class="cls-29" d="m397.73,222.32l-37.24,21.5c-.16.09-.16.25,0,.34l7.71,4.45c.16.09.43.09.59,0l37.24-21.5c.16-.09.16-.25,0-.34l-7.71-4.45c-.16-.09-.43-.09-.59,0Z"/>
            <g>
              <polygon class="cls-30" points="398.02 224.28 402.63 226.94 398.02 229.61 393.41 226.94 398.02 224.28"/>
              <polygon class="cls-24" points="398.02 224.28 402.63 226.94 398.02 229.61 393.41 226.94 398.02 224.28"/>
              <g>
                <polygon class="cls-30" points="386.21 231.1 390.82 233.76 386.21 236.43 381.6 233.76 386.21 231.1"/>
                <polygon class="cls-25" points="386.21 231.1 390.82 233.76 386.21 236.43 381.6 233.76 386.21 231.1"/>
              </g>
              <g>
                <polygon class="cls-30" points="380.31 234.51 384.92 237.17 380.31 239.84 375.69 237.17 380.31 234.51"/>
                <polygon class="cls-7" points="380.31 234.51 384.92 237.17 380.31 239.84 375.69 237.17 380.31 234.51"/>
              </g>
              <g>
                <polygon class="cls-30" points="374.4 237.92 379.02 240.58 374.4 243.24 369.79 240.58 374.4 237.92"/>
                <polygon class="cls-5" points="374.4 237.92 379.02 240.58 374.4 243.24 369.79 240.58 374.4 237.92"/>
              </g>
              <polygon class="cls-30" points="368.5 241.33 373.11 243.99 368.5 246.65 363.89 243.99 368.5 241.33"/>
              <g>
                <polygon class="cls-30" points="392.12 227.69 396.73 230.35 392.12 233.02 387.5 230.35 392.12 227.69"/>
                <polygon class="cls-35" points="392.12 227.69 396.73 230.35 392.12 233.02 387.5 230.35 392.12 227.69"/>
              </g>
            </g>
          </g>
          <path class="cls-31" d="m397.56,223.65c.26.15.68.15.94,0,.26-.15.26-.39,0-.54-.26-.15-.68-.15-.94,0-.26.15-.26.39,0,.54Z"/>
        </g>
        <g id="Palette-2" data-name="Palette">
          <g>
            <path class="cls-21" d="m352.4,235.41c0-.08.08-.16.21-.21l45.61-15.2c.2-.07.45-.03.57.09l5.45,5.45s.06.08.06.13v1.14c0,.09-.07.17-.21.21l-45.61,15.2c-.2.07-.45.03-.57-.09l-5.45-5.45s-.06-.08-.06-.12c0-.08,0-1.11,0-1.15Z"/>
            <path class="cls-15" d="m358.15,241.09v1.17c.1.01.22.01.32-.02l45.61-15.2c.14-.05.22-.13.21-.22v-1.14c0,.08-.08.16-.21.21l-45.61,15.2c-.1.03-.22.05-.32.01Z"/>
            <path class="cls-29" d="m398.21,220l-45.61,15.2c-.2.07-.27.21-.15.33l5.45,5.45c.12.12.37.15.57.09l45.61-15.2c.2-.07.27-.21.15-.33l-5.45-5.45c-.12-.12-.37-.15-.57-.09Z"/>
            <g>
              <polygon class="cls-9" points="397.62 221.94 400.88 225.2 395.23 227.08 391.97 223.82 397.62 221.94"/>
              <g>
                <polygon class="cls-9" points="383.16 226.76 386.42 230.02 380.77 231.9 377.51 228.64 383.16 226.76"/>
                <polygon class="cls-11" points="383.16 226.76 386.42 230.02 380.77 231.9 377.51 228.64 383.16 226.76"/>
              </g>
              <g>
                <polygon class="cls-9" points="375.92 229.17 379.19 232.43 373.54 234.32 370.27 231.05 375.92 229.17"/>
                <polygon class="cls-32" points="375.92 229.17 379.19 232.43 373.54 234.32 370.27 231.05 375.92 229.17"/>
              </g>
              <g>
                <polygon class="cls-9" points="368.69 231.58 371.95 234.84 366.3 236.73 363.04 233.46 368.69 231.58"/>
                <polygon class="cls-32" points="368.69 231.58 371.95 234.84 366.3 236.73 363.04 233.46 368.69 231.58"/>
              </g>
              <g>
                <polygon class="cls-9" points="361.46 233.99 364.72 237.25 359.07 239.14 355.81 235.88 361.46 233.99"/>
                <polygon class="cls-34" points="361.46 233.99 364.72 237.25 359.07 239.14 355.81 235.88 361.46 233.99"/>
              </g>
              <g>
                <polygon class="cls-9" points="390.39 224.35 393.65 227.61 388 229.49 384.74 226.23 390.39 224.35"/>
                <polygon class="cls-37" points="390.39 224.35 393.65 227.61 388 229.49 384.74 226.23 390.39 224.35"/>
              </g>
            </g>
          </g>
          <path class="cls-31" d="m397.45,221.26c.18.18.59.25.9.14.32-.11.42-.34.24-.52-.18-.18-.59-.25-.9-.14-.32.11-.42.34-.24.52Z"/>
        </g>
        <g id="Palette-3" data-name="Palette">
          <g>
            <path class="cls-21" d="m347.51,225.84c0-.11.12-.2.31-.23l50.87-7.87c.22-.03.45.04.51.17l2.82,6.08s.01.04.01.06v1.16c0,.11-.12.2-.31.23l-50.87,7.87c-.22.03-.45-.04-.51-.17l-2.82-6.08s-.01-.04-.01-.07v-1.16Z"/>
            <path class="cls-15" d="m350.61,232.16v1.14c.08.01.16.03.25.01l50.86-7.87c.18-.02.31-.13.31-.23v-1.16c0,.1-.13.2-.31.23l-50.86,7.87c-.09.01-.17.01-.25,0Z"/>
            <path class="cls-29" d="m398.69,217.75l-50.87,7.87c-.22.03-.35.17-.3.3l2.82,6.08c.06.13.29.2.51.17l50.87-7.87c.22-.03.35-.17.3-.3l-2.82-6.08c-.06-.13-.29-.2-.51-.17Z"/>
            <g>
              <polygon class="cls-9" points="397.24 219.53 398.93 223.17 392.63 224.14 390.94 220.5 397.24 219.53"/>
              <polygon class="cls-10" points="397.24 219.53 398.93 223.17 392.63 224.14 390.94 220.5 397.24 219.53"/>
              <g>
                <polygon class="cls-9" points="381.11 222.02 382.8 225.66 376.5 226.64 374.81 223 381.11 222.02"/>
                <polygon class="cls-33" points="381.11 222.02 382.8 225.66 376.5 226.64 374.81 223 381.11 222.02"/>
              </g>
              <g>
                <polygon class="cls-9" points="373.05 223.27 374.73 226.91 368.43 227.88 366.74 224.25 373.05 223.27"/>
                <polygon class="cls-2" points="373.05 223.27 374.73 226.91 368.43 227.88 366.74 224.25 373.05 223.27"/>
              </g>
              <g>
                <polygon class="cls-9" points="364.98 224.52 366.67 228.16 360.37 229.13 358.68 225.49 364.98 224.52"/>
                <polygon class="cls-28" points="364.98 224.52 366.67 228.16 360.37 229.13 358.68 225.49 364.98 224.52"/>
              </g>
              <polygon class="cls-9" points="356.91 225.77 358.6 229.4 352.3 230.38 350.61 226.74 356.91 225.77"/>
              <g>
                <polygon class="cls-9" points="389.18 220.78 390.87 224.41 384.56 225.39 382.88 221.75 389.18 220.78"/>
                <polygon class="cls-19" points="389.18 220.78 390.87 224.41 384.56 225.39 382.88 221.75 389.18 220.78"/>
              </g>
            </g>
          </g>
          <path class="cls-31" d="m397.38,218.85c.09.2.46.32.81.27.35-.05.56-.26.47-.47-.09-.2-.46-.32-.81-.27-.35.05-.56.26-.47.47Z"/>
        </g>
      </g>
      <g id="Coffe">
        <g class="cls-44">
          <path class="cls-12" d="m329.86,276.5c4.47-1.99,11.59-1.99,15.91,0,4.32,1.99,4.32,5.23,0,7.22-4.32,1.99-11.44,1.99-15.91,0-4.47-1.99-4.47-5.23,0-7.22Z"/>
        </g>
        <g>
          <path class="cls-29" d="m326.9,253.2l21.72.02-1.65,25.59h-.02c-.1.93-.97,1.85-2.63,2.56-3.54,1.52-9.37,1.52-13.03,0-1.72-.71-2.62-1.63-2.72-2.56h-.02l-1.65-25.61Z"/>
          <path class="cls-15" d="m348.62,253.23l-.33,5.2c-.5.35-1.09.67-1.81.97-4.7,1.94-12.44,1.94-17.3,0-.21-.08-.39-.18-.58-.26-.77-.37-1.36-.77-1.36-.77l-.33-5.16,21.72.02Z"/>
          <g>
            <path class="cls-9" d="m326.51,254.07v-3.6h2.33c.31-.16.65-.32,1.02-.47,4.47-1.79,11.59-1.79,15.91,0,.36.15.68.31.98.47h2.26v3.6h0c0,1.17-1.08,2.34-3.24,3.24-4.32,1.79-11.44,1.79-15.91,0-2.23-.89-3.35-2.07-3.35-3.24Z"/>
            <g class="cls-42">
              <path class="cls-12" d="m326.51,254.07v-3.6h2.33c.31-.16.65-.32,1.02-.47,4.47-1.79,11.59-1.79,15.91,0,.36.15.68.31.98.47h2.26v3.6h0c0,1.17-1.08,2.34-3.24,3.24-4.32,1.79-11.44,1.79-15.91,0-2.23-.89-3.35-2.07-3.35-3.24Z"/>
            </g>
            <path class="cls-9" d="m329.86,247.23c4.47-1.79,11.59-1.79,15.91,0,4.32,1.79,4.32,4.69,0,6.48-4.32,1.79-11.44,1.79-15.91,0-4.47-1.79-4.47-4.69,0-6.48Z"/>
            <g>
              <path class="cls-9" d="m329.39,249.46h0l.9-2.4h14.96l.9,2.4h0c.34.93-.44,1.91-2.35,2.63-3.25,1.22-8.6,1.22-11.96,0-1.97-.72-2.78-1.7-2.43-2.63Z"/>
              <path class="cls-22" d="m329.39,249.46h0l.9-2.4h14.96l.9,2.4h0c.34.93-.44,1.91-2.35,2.63-3.25,1.22-8.6,1.22-11.96,0-1.97-.72-2.78-1.7-2.43-2.63Z"/>
              <path class="cls-9" d="m332.48,245.38c2.99-1.09,7.75-1.09,10.64,0,2.89,1.09,2.89,2.85,0,3.93-2.89,1.09-7.65,1.09-10.64,0-2.99-1.09-2.99-2.85,0-3.93Z"/>
              <g class="cls-43">
                <path class="cls-27" d="m332.48,245.38c2.99-1.09,7.75-1.09,10.64,0,2.89,1.09,2.89,2.85,0,3.93-2.89,1.09-7.65,1.09-10.64,0-2.99-1.09-2.99-2.85,0-3.93Z"/>
              </g>
              <path class="cls-9" d="m331.28,247.35s.08.18.33.37c.23.18.62.4,1.23.62,1.32.48,3.14.75,5,.75s3.65-.27,4.92-.75c.59-.22.97-.45,1.18-.63.24-.2.31-.34.31-.38,0-.07-.26-.53-1.49-1-1.27-.48-3.06-.75-4.92-.75s-3.69.27-5,.75c-1.24.45-1.55.9-1.56,1Z"/>
              <g class="cls-42">
                <path class="cls-12" d="m331.28,247.35s.08.18.33.37c.23.18.62.4,1.23.62,1.32.48,3.14.75,5,.75s3.65-.27,4.92-.75c.59-.22.97-.45,1.18-.63.24-.2.31-.34.31-.38,0-.07-.26-.53-1.49-1-1.27-.48-3.06-.75-4.92-.75s-3.69.27-5,.75c-1.24.45-1.55.9-1.56,1Z"/>
              </g>
              <path class="cls-9" d="m331.61,247.73c.23.18.62.4,1.23.62,1.32.48,3.14.75,5,.75s3.65-.27,4.92-.75c.59-.22.97-.45,1.18-.63-.22-.18-.59-.4-1.18-.63-1.27-.48-3.06-.75-4.92-.75s-3.69.27-5,.75c-.6.22-.99.44-1.23.62Z"/>
              <path class="cls-12" d="m334.6,247.79c-.43-.25-.96-.35-1.18-.22s-.04.42.39.67c.43.25.96.35,1.18.22.22-.13.04-.43-.39-.67Z"/>
            </g>
          </g>
          <g>
            <path class="cls-18" d="m347.66,273.04c0,.95-.95,1.9-2.85,2.62-3.8,1.45-10.06,1.45-13.99,0-1.96-.72-2.94-1.67-2.95-2.62l-.61-9.26c0,1.01,1.04,2.01,3.13,2.78,4.17,1.54,10.82,1.54,14.85,0,2.02-.77,3.02-1.77,3.02-2.78l-.61,9.25Z"/>
            <g>
              <path class="cls-17" d="m334.39,273.5c-.35-.47-.55-1.06-.83-1.57-.57-1.02-1.38-1.72-2.42-2.13-.14-.06-.31,0-.38.14-.53,1.07-.2,2.57.89,3.66,1.08,1.08,2.56,1.41,3.63.91.06-.03.08-.15.03-.18-.34-.2-.65-.47-.92-.83Z"/>
              <path class="cls-17" d="m331.72,269.5c.56.21,1.09.55,1.53.94.47.41.84.94,1.1,1.51.41.86.79,1.4,1.39,1.84.13.1.33.07.42-.06.71-1.08.43-2.73-.74-3.9-1.11-1.11-2.66-1.43-3.73-.86-.22.12-.19.44.04.53Z"/>
            </g>
          </g>
        </g>
      </g>
      <g id="Lamp">
        <path class="cls-37" d="m223.81,127.71c-6.58,3.8-6.58,9.96,0,13.76,6.58,3.8,17.25,3.8,23.83,0,6.58-3.8,6.58-9.96,0-13.76-6.58-3.8-17.25-3.8-23.83,0Z"/>
        <path class="cls-9" d="m250.78,130.1c-.68-1.48-2.02-2.89-4.04-4.05-6.09-3.51-15.95-3.51-22.04,0-2.01,1.16-3.36,2.57-4.04,4.05h-.53v2.31h0c0,2.3,1.52,4.6,4.56,6.36,6.08,3.51,15.95,3.51,22.04,0,3.04-1.76,4.56-4.06,4.56-6.36h0v-2.31h-.53Z"/>
        <path class="cls-34" d="m250.78,130.1c-.68-1.48-2.02-2.89-4.04-4.05-6.09-3.51-15.95-3.51-22.04,0-2.01,1.16-3.36,2.57-4.04,4.05h-.53v2.31h0c0,2.3,1.52,4.6,4.56,6.36,6.08,3.51,15.95,3.51,22.04,0,3.04-1.76,4.56-4.06,4.56-6.36h0v-2.31h-.53Z"/>
        <path class="cls-9" d="m224.71,136.46c-6.09-3.51-6.09-9.21,0-12.72,6.08-3.51,15.95-3.51,22.04,0s6.09,9.21,0,12.72c-6.09,3.51-15.95,3.51-22.04,0Z"/>
        <path class="cls-22" d="m224.71,136.46c-6.09-3.51-6.09-9.21,0-12.72,6.08-3.51,15.95-3.51,22.04,0s6.09,9.21,0,12.72c-6.09,3.51-15.95,3.51-22.04,0Z"/>
        <path class="cls-9" d="m239.11,128.71l-2.92-1.03c12.5-35.63-16.7-47.03-17.95-47.5l1.08-2.9c.33.12,33.31,12.88,19.79,51.43Z"/>
        <g>
          <path class="cls-14" d="m241.74,130.1c0-3.32-2.69-6.01-6.01-6.01s-6.01,2.69-6.01,6.01h0c0,.89.59,1.78,1.76,2.45,2.35,1.36,6.15,1.36,8.5,0,1.17-.68,1.76-1.57,1.76-2.45h0Z"/>
          <path class="cls-31" d="m239.73,129.74c-.43,2.5-5.56,3.74-7.63,3.13,2.36,1.03,5.73.93,7.88-.31,1.17-.68,1.76-1.57,1.76-2.45,0-3.32-2.69-6.01-6.01-6.01,1.46,0,4.43,3.14,4.01,5.65Z"/>
        </g>
        <g>
          <path class="cls-12" d="m218.95,78.1l-1.04-1.2,3.66-3.18c.33-.29.83-.25,1.12.08h0c.29.33.25.83-.08,1.12l-3.66,3.18Z"/>
          <path class="cls-14" d="m221.24,80.12c.88-1.1.11-3.12-.9-4.28-1.01-1.16-2.9-2.19-4.11-1.48-1.21.72-3.6,2.46-3.6,2.46l5.68,6.52s2.06-2.13,2.93-3.23Z"/>
          <path class="cls-31" d="m218.46,74.45c1.28,1.49,1.82,4.28-1.95,6.84l1.79,2.06s2.06-2.13,2.93-3.23c.88-1.1.11-3.12-.9-4.28-.48-.55-1.17-1.08-1.88-1.4Z"/>
          <path class="cls-9" d="m209.37,106.05c4.88-4.25,12.8-20.33,7.11-26.86-5.68-6.53-22.7-.89-27.58,3.35"/>
          <path class="cls-22" d="m209.37,106.05c4.88-4.25,12.8-20.33,7.11-26.86-5.68-6.53-22.7-.89-27.58,3.35"/>
          <path class="cls-9" d="m187.86,89.52c-1.76-6.53,1.86-9.69,8.09-7.05,6.23,2.64,12.71,10.08,14.47,16.62,1.76,6.53-1.86,9.69-8.09,7.04-6.23-2.64-12.71-10.08-14.47-16.62Z"/>
          <path class="cls-34" d="m187.86,89.52c-1.76-6.53,1.86-9.69,8.09-7.05,6.23,2.64,12.71,10.08,14.47,16.62,1.76,6.53-1.86,9.69-8.09,7.04-6.23-2.64-12.71-10.08-14.47-16.62Z"/>
          <path class="cls-9" d="m208.17,94.78c.11-.1.21-.2.32-.31-2-3.6-5.03-7.08-8.33-9.53-.11.08-.22.16-.32.25-2.64,2.3-2.92,6.31-.62,8.96,2.3,2.64,6.31,2.92,8.96.62Z"/>
          <path class="cls-2" d="m208.17,94.78c.11-.1.21-.2.32-.31-2-3.6-5.03-7.08-8.33-9.53-.11.08-.22.16-.32.25-2.64,2.3-2.92,6.31-.62,8.96,2.3,2.64,6.31,2.92,8.96.62Z"/>
        </g>
      </g>
      <g id="Image">
        <g>
          <path class="cls-15" d="m336.75,72.85l47.77,27.59c.62.36,1.12,1.22,1.12,1.93v45.52c0,.71-.5,1.58-1.12,1.93l-.71.41c-.62.36-1.62.36-2.23,0l-47.77-27.59c-.62-.36-1.12-1.22-1.12-1.93v-45.52c0-.71.5-1.58,1.12-1.93l.71-.41c.62-.36,1.62-.36,2.23,0Z"/>
          <path class="cls-27" d="m332.73,74.86c.14-.46.57-.61,1.07-.31l47.77,27.59c.31.17.58.48.79.83l2.94-1.7c-.2-.35-.47-.65-.78-.83l-47.78-27.59c-.61-.35-1.62-.35-2.24,0l-.7.41c-.52.3-.96.97-1.07,1.6Z"/>
          <path class="cls-20" d="m333.81,74.55l47.77,27.59c.62.36,1.12,1.22,1.12,1.93v45.52c0,.71-.5,1-1.12.64l-47.77-27.59c-.62-.36-1.12-1.22-1.12-1.93v-45.52c0-.71.5-1,1.12-.64Z"/>
        </g>
        <g>
          <polygon class="cls-9" points="379.75 104.48 335.63 79 335.63 119.79 379.75 145.27 379.75 104.48"/>
          <polygon class="cls-33" points="379.75 104.48 335.63 79 335.63 119.79 379.75 145.27 379.75 104.48"/>
        </g>
        <polygon class="cls-9" points="379.75 131.67 367.21 110.01 350.03 122.82 354.21 118.19 345.1 106.12 335.63 112.13 335.63 119.79 379.75 145.27 379.75 131.67"/>
        <path class="cls-9" d="m348.89,93.89c1.63.94,2.94,3.22,2.94,5.1,0,1.88-1.32,2.64-2.94,1.7-1.63-.94-2.94-3.22-2.94-5.1s1.32-2.64,2.94-1.7Z"/>
      </g>
    </g>
  </g>
  <g id="Pen_tool" data-name="Pen tool">
    <g id="Pen_tool-2" data-name="Pen tool">
      <g>
        <path class="cls-9" d="m423.66,157.71c1.28.74,2.32,2.72,2.32,4.43,0,1.52-.83,2.31-1.91,1.94v32.25l11.75-24.67c.2-.41.21-1.09.02-1.51-2.97-6.87-5.16-14.61-5.91-22.55-.04-.46-.39-1.01-.79-1.24l-10.98-6.34c-.4-.23-.75-.04-.8.41-.74,6.87-2.84,11.97-5.69,15.39-.29.35-.43.98-.3,1.42,1.65,5.37,11.18,36.35,11.87,38.61v-32.25c-1.09-.88-1.91-2.62-1.91-4.14,0-1.71,1.04-2.49,2.32-1.75Z"/>
        <path class="cls-9" d="m406,160.35l11.87,38.61.81-.47v.94l5.38-3.1,11.75-24.67c.2-.41.21-1.09.02-1.51-2.97-6.87-5.16-14.61-5.91-22.55-.04-.46-.39-1.01-.79-1.24l-10.98-6.34c-.4-.23-1.04-.23-1.43,0l-3.95,2.28c-.4.23-.75.78-.8,1.24-.74,6.87-2.84,11.97-5.69,15.39-.29.35-.43.98-.3,1.41Z"/>
        <path class="cls-22" d="m415.97,162.57c0,1.52.82,3.26,1.91,4.14v32.25l.81-.47v.94s0-32.25,0-32.25c1.09.37,1.91-.41,1.91-1.93,0-1.71-1.04-3.69-2.32-4.43-1.28-.74-2.31.05-2.31,1.75Z"/>
        <path class="cls-9" d="m406,160.35l11.87,38.61v-32.25c-1.09-.88-1.91-2.62-1.91-4.14,0-1.71,1.04-2.49,2.31-1.75,1.28.74,2.32,2.72,2.32,4.43,0,1.52-.82,2.3-1.91,1.93v32.25l11.76-24.66c.2-.41.21-1.09.02-1.51-2.97-6.87-5.16-14.61-5.91-22.55-.04-.46-.39-1.01-.79-1.24l-10.98-6.34c-.4-.23-.75-.04-.8.41-.74,6.87-2.84,11.97-5.69,15.39-.29.35-.43.98-.3,1.41Z"/>
        <path class="cls-39" d="m424.34,150.08c.12.2.2.43.22.63.74,7.94,2.94,15.68,5.91,22.55.1.23.14.53.13.82l5.38-3.11c.01-.29-.03-.6-.13-.83-2.97-6.87-5.16-14.61-5.91-22.55-.02-.21-.1-.43-.23-.64l-5.38,3.11Z"/>
        <path class="cls-13" d="m412.02,143.43c.09-.37.42-.5.77-.29l10.98,6.34c.22.13.42.35.57.61l5.38-3.11c-.15-.25-.35-.48-.56-.6l-10.98-6.34c-.4-.23-1.04-.23-1.44,0l-3.94,2.28c-.36.21-.69.69-.78,1.12Z"/>
        <g>
          <path class="cls-9" d="m432.36,136.52l-17.39-10.04c-.4-.23-1.04-.23-1.43,0l-3.95,2.28c-.4.23-.72.78-.72,1.24v7.66c0,.46.32,1.01.72,1.24l17.39,10.04c.4.23,1.04.23,1.43,0l3.95-2.28c.4-.23.72-.78.72-1.24v-7.66c0-.46-.32-1.01-.72-1.24Z"/>
          <path class="cls-16" d="m408.87,129.88c.05-.37.35-.51.71-.3l17.39,10.04c.2.11.38.31.51.54l5.38-3.11c-.13-.23-.31-.42-.51-.54l-17.39-10.05c-.4-.23-1.04-.23-1.43,0l-3.95,2.28c-.36.21-.67.7-.71,1.13Z"/>
          <path class="cls-22" d="m427.09,149s0,0,.02,0c.01,0,.03,0,.04.01.01,0,.03.01.05.02.02,0,.05.02.07.02.03,0,.06.01.09.02.02,0,.04,0,.06,0,.04,0,.08.01.12.02.31.03.64-.02.87-.16l3.95-2.28c.4-.23.72-.78.72-1.24v-7.66c0-.23-.08-.48-.21-.71l-5.38,3.11c.13.23.21.48.21.71v7.66c0,.32-.16.51-.4.51-.03,0-.07,0-.1-.01-.03,0-.07-.02-.1-.03Z"/>
        </g>
        <path class="cls-22" d="m418.69,199.43l5.38-3.1,11.75-24.67c.09-.19.14-.43.15-.68l-5.38,3.11c-.01.25-.06.49-.15.68l-11.76,24.66Z"/>
        <path class="cls-37" d="m417.88,166.71v32.25l.81-.47v.94-32.25c1.09.37,1.91-.41,1.91-1.93,0-.04,0-.07,0-.11l-2.72,1.57Z"/>
      </g>
      <g>
        <path class="cls-38" d="m393.01,157.43c0-.88.62-1.23,1.37-.79.76.44,1.37,1.5,1.37,2.38,0,.71-.41,1.07-.96.95.77,16.2,12.12,35.3,25.95,43.28,6.87,3.97,13.32,4.62,18.15,1.83,4.56-2.63,7.18-8.05,7.46-15.33-.57-.52-.98-1.36-.98-2.08,0-.88.62-1.23,1.37-.79.76.44,1.37,1.5,1.37,2.38,0,.75-.45,1.11-1.05.93-.37,7.34-3.11,12.81-7.81,15.52-2.09,1.2-4.45,1.8-7,1.8-3.65,0-7.69-1.22-11.87-3.64-14.15-8.17-25.73-27.8-26.33-44.32-.59-.52-1.04-1.39-1.04-2.13Z"/>
        <path class="cls-38" d="m394.39,186.94c.63.36,1.16,1.16,1.32,1.93l49.74,28.72c.18-.54.69-.71,1.3-.35.76.44,1.37,1.5,1.37,2.38s-.61,1.23-1.37.79c-.65-.38-1.19-1.21-1.33-1.99l-49.71-28.7c-.16.58-.69.77-1.32.4-.76-.44-1.37-1.5-1.37-2.38s.62-1.23,1.37-.79Z"/>
        <path class="cls-38" d="m444.83,188.45c0,1.08.87,1.95,1.95,1.95s1.95-.87,1.95-1.95-.87-1.95-1.95-1.95-1.95.87-1.95,1.95Z"/>
        <path class="cls-38" d="m444.9,218.77c0,1.08.87,1.95,1.95,1.95s1.95-.87,1.95-1.95-.87-1.95-1.95-1.95-1.95.87-1.95,1.95Z"/>
        <path class="cls-38" d="m392.32,188.57c0,1.08.87,1.95,1.95,1.95s1.95-.87,1.95-1.95-.87-1.95-1.95-1.95-1.95.87-1.95,1.95Z"/>
        <path class="cls-38" d="m392.5,158.19c0,1.08.87,1.95,1.95,1.95s1.95-.87,1.95-1.95-.87-1.95-1.95-1.95-1.95.87-1.95,1.95Z"/>
      </g>
    </g>
  </g>
  <g id="Character">
    <g id="Character-2" data-name="Character">
      <g id="Legs">
        <g>
          <g>
            <path class="cls-31" d="m207.57,328.28c-1.23,1.77-.8,5.75-.98,7.42-.19,1.65-.17,3.32-.33,4.95-.19,1.85-.36,3.4.62,5.11,1.29,2.24,3.83,3.56,6.4,3.9,2.56.34,5.17-.17,7.66-.86,2.49-.69,4.95-1.56,7.5-1.97,6.41-1.02,12.73.86,19.08-1.1,1.49-.46,2.92-1.07,4.36-1.67,1.29-.55,2.59-1.1,3.8-1.82,3.04-1.83,7.32-5.72,6.91-9.55-.37-3.42-2.53-5.74-6.55-5.56-5.18.23-10.31,1.4-15.49,1.28-3.15-.07-6.71-.24-9.81-.79-3.58-.64-6.78-1.49-7.18-3.47-.63-3.14-7.55.09-10.32,1.45-.89.43-1.72.98-2.6,1.41-.72.35-1.36.28-2.07.51-.41.14-.74.41-.99.77Z"/>
            <path class="cls-23" d="m204.98,317.47l17.66-5.58s.21,9.27,1.06,11.51c.85,2.24,3.44,3.57,7.03,4.21,3.1.55,6.66.72,9.81.79,1.4.03,2.8-.03,4.19-.13h0c4.62-.47,9.52,3.46,2.85,6.63-5.97,2.84-14.43,2.43-20.99,2.8-6.56.37-17.44-2.86-19.08-7.74,0,0,0,0,0,0l-2.53-12.48Z"/>
          </g>
          <path class="cls-14" d="m218.14,253.41c3.95,16.28,4.87,65.67,4.87,65.67,0,0-9.07,4.83-17.33,1.92l-14.69-57.16,27.14-10.43Z"/>
        </g>
        <g>
          <path class="cls-31" d="m246.84,351.21c-1.23,1.77-.8,5.75-.98,7.42-.19,1.65-.17,3.32-.33,4.95-.19,1.85-.36,3.4.62,5.11,1.29,2.24,3.83,3.56,6.4,3.9,2.56.34,5.17-.17,7.66-.86,2.49-.69,4.95-1.56,7.5-1.97,6.41-1.02,12.73.86,19.08-1.1,1.49-.46,2.92-1.07,4.36-1.67,1.29-.55,2.59-1.1,3.8-1.82,3.04-1.83,7.32-5.72,6.91-9.55-.37-3.42-2.53-5.74-6.55-5.56-5.18.23-10.31,1.4-15.49,1.28-3.15-.07-6.71-.24-9.81-.79-3.58-.64-6.78-1.49-7.18-3.47-.63-3.14-7.55.09-10.32,1.45-.89.43-1.72.98-2.6,1.41-.72.35-1.36.28-2.07.51-.41.14-.74.41-.99.77Z"/>
          <path class="cls-23" d="m243.89,336.63l15.48-5.54,3.46,15.99c.4,1.98,3.6,2.83,7.18,3.47,3.1.55,6.66.72,9.81.79,1.4.03,2.8-.03,4.19-.13h0c4.62-.47,9.52,3.46,2.85,6.63-5.97,2.84-14.43,2.43-20.99,2.8-6.56.37-20.11-.71-19.08-7.74,0,0,0,0,0,0l-2.89-16.26Z"/>
        </g>
        <path class="cls-38" d="m251.96,268c6.83,9.67,9.71,73.35,9.71,73.35,0,0-8.19,8.53-15.97,5.49l-19.6-55.48,25.86-23.36Z"/>
        <path class="cls-37" d="m227.05,293.9s14.33-5.32,17.72-9.16c0,0-7.35,10.56-16.33,12.87l-1.39-3.71Z"/>
      </g>
      <g>
        <path class="cls-38" d="m169.95,436.66c.9,0,1.62-.73,1.62-1.62v-104.35c0-.9-.73-1.62-1.62-1.62s-1.62.73-1.62,1.62v104.35c0,.9.73,1.62,1.62,1.62Z"/>
        <path class="cls-38" d="m105.39,398.68c.65,0,1.26-.39,1.51-1.03l32-80.99c.33-.83-.08-1.78-.91-2.1-.83-.33-1.78.08-2.1.91l-32,80.99c-.33.83.08,1.78.91,2.1.19.08.4.11.6.11Z"/>
        <path class="cls-38" d="m109.23,388.95c.43,0,.86-.17,1.18-.51l59.54-63,59.43,62.74c.62.65,1.64.68,2.29.06.65-.62.68-1.64.06-2.29l-60.61-63.98c-.31-.32-.73-.51-1.18-.51h0c-.45,0-.87.18-1.18.51l-60.72,64.25c-.62.65-.59,1.68.06,2.29.31.3.71.44,1.11.44Z"/>
        <path class="cls-38" d="m234.51,398.68c.2,0,.4-.04.6-.11.83-.33,1.24-1.27.91-2.1l-32-80.99c-.33-.84-1.27-1.25-2.1-.91-.83.33-1.24,1.27-.91,2.1l32,80.99c.25.64.86,1.03,1.51,1.03Z"/>
        <path class="cls-9" d="m235.29,294.9c1.16-6.55-4.17-11.65-14.2-18.42-10.03-6.77-22.86-13.48-29.07-16.33-8.39-3.85-16.98-3.5-27.72,2.02-14.93,7.67-59.85,34.91-59.85,34.91,0,0,67.16,37.92,80.09,36.22,12.92-1.7,45.22-22.7,47.78-30.1s2.98-8.3,2.98-8.3Z"/>
        <g class="cls-40">
          <path class="cls-12" d="m235.29,294.9c1.16-6.55-4.17-11.65-14.2-18.42-10.03-6.77-22.86-13.48-29.07-16.33-8.39-3.85-16.98-3.5-27.72,2.02-14.93,7.67-59.85,34.91-59.85,34.91,0,0,67.16,37.92,80.09,36.22,12.92-1.7,45.22-22.7,47.78-30.1s2.98-8.3,2.98-8.3Z"/>
        </g>
        <path class="cls-9" d="m178.05,325.33c9.64,8.73,19.72,1.22,35.66-9.13,18.04-11.71,21.58-21.29,21.58-21.29,0,0,0,7.18-1.35,10.54-1.35,3.37-4.26,7.18-17.28,16.15-13.01,8.97-22.44,13.46-31.19,15.13l-6.9-.95"/>
        <path class="cls-34" d="m213.71,316.19c18.04-11.71,21.58-21.29,21.58-21.29,0,0,0,7.18-1.35,10.54-1.35,3.37-4.26,7.18-17.28,16.15-13.01,8.97-22.44,13.46-31.19,15.13l-6.9-.95-.53-10.45c9.64,8.73,19.72,1.22,35.66-9.13Z"/>
        <path class="cls-9" d="m107.59,386.45l-4.23,11.16c-.03.1-.04.19-.04.29,0,.06,0,.13,0,.2.04.23.33.52.64.7.71.41,1.86.41,2.57,0,.26-.15.42-.34.5-.53,0,0,0-.01,0-.02l.03-.15,3.92-10.47-3.4-1.19Z"/>
        <path class="cls-9" d="m232.3,386.45l4.23,11.16c.03.1.04.19.04.29,0,.06,0,.13,0,.2-.04.23-.33.52-.64.7-.71.41-1.86.41-2.57,0-.26-.15-.42-.34-.5-.53,0,0,0-.01,0-.02l-.03-.15-3.92-10.47,3.4-1.19Z"/>
        <path class="cls-9" d="m168.08,426.96v9.23c0,.28.18.55.55.76.73.42,1.92.42,2.65,0,.37-.21.55-.49.55-.76v-9.23c-1.25-.63-2.49-.63-3.74,0Z"/>
      </g>
      <g id="Character-3" data-name="Character">
        <g id="Character-4" data-name="Character">
          <g>
            <path class="cls-14" d="m124.83,273.93s42.02-17.97,50.58-22.27c8.56-4.3,24.13-10.59,32.26-8.48,5.49,1.43,8.64,3.37,10.58,10.6.37,1.36,2.12,14.21,2.12,14.21,0,0-23.37,10.97-44,15.12-20.63,4.15-51.53-9.19-51.53-9.19Z"/>
            <path class="cls-38" d="m124.83,273.93c-5.2,21.87,8.43,34.13,16.6,38.85,7.17,4.14,25.92,14.14,45.9,6.09,13.34-5.38,49.33-29.12,49.33-29.12,3.89-6.31,18.82-8.38,17.72-13.43-.28-1.28-.39-2.64-.75-4.01-1.82-6.88-8.31-16.48-22.8-13.16-8.89,2.03-25.49,8.01-40.2,12.63-3.36,1.06-8.25-3.52-10.97-2.52-6.46,2.37-8.1,13.4-8.1,13.4l-46.74-8.72Z"/>
          </g>
        </g>
        <polygon class="cls-23" points="173.85 178.01 171.42 200.34 151.8 198.82 153.72 174.04 173.85 178.01"/>
        <path class="cls-9" d="m130.07,263.63c2.14-4.63,4.1-10.21,9.76-19.21-8.02-25.6-9.16-33.34-8.8-45.02.19-6.25,9.04-16.73,16.6-15.42,1.97.34,3.41.43,5.26.78.24,5.13,10.24,6.62,19.85,3.38,2.72.64,6.2,1.2,8.6,2.1,3.5,1.3,18.8,17.71,19.93,29.38.91,9.48-8.77,17.34-8.77,17.34.53,9.98.2,23.59-.04,41.74,0,0-3.03,1.09-7.72-.98-4.87,7.77-18.36,20.23-33.17,18.57-25.61-2.87-24.85-21.71-24.85-21.71,0,0,1.87-7.73,3.36-10.94Z"/>
        <g class="cls-1">
          <path class="cls-12" d="m130.07,263.63c2.14-4.63,4.1-10.21,9.76-19.21-8.02-25.6-9.16-33.34-8.8-45.02.19-6.25,9.04-16.73,16.6-15.42,1.97.34,3.41.43,5.26.78.24,5.13,10.24,6.62,19.85,3.38,2.72.64,6.2,1.2,8.6,2.1,3.5,1.3,18.8,17.71,19.93,29.38.91,9.48-8.77,17.34-8.77,17.34.53,9.98.2,23.59-.04,41.74,0,0-3.03,1.09-7.72-.98-4.87,7.77-18.36,20.23-33.17,18.57-25.61-2.87-24.85-21.71-24.85-21.71,0,0,1.87-7.73,3.36-10.94Z"/>
        </g>
        <g id="head">
          <path class="cls-30" d="m188.93,151.62s5.56,8.91,4.78,9.82c-.78.91-4.49,1.79-4.49,1.79l-.29-11.61Z"/>
          <path class="cls-23" d="m175.84,130.61c4.36,2.4,11.89,6.83,13.43,23.18,1.57,16.78-2.31,22.49-4.65,24.63-1.58,1.44-9.54,1.76-13.64.37-5.14-1.75-16.22-7.6-21.26-16.37-5.92-10.32-6.84-23.9.45-29.01,10.26-7.2,21.98-4.82,25.67-2.79Z"/>
          <path class="cls-30" d="m173.7,179.4c3.65.66,7.84.34,10.04-.5h0c-6.22-.15-9.78-2.26-9.78-2.26l-.26,2.75Z"/>
        </g>
        <path class="cls-9" d="m193.37,128.85c-1.5-3.07-5-5.15-8.36-4.55.85-3.86-1.34-8.17-4.94-9.77-2.14-.94-4.58-.99-6.87-.55-2.29.44-4.46,1.34-6.62,2.23-4.89,2.02-9.77,4.12-14.7,6.07-2.42.95-4.86,1.88-7.09,3.27-4.48,2.81-7.91,6.92-9.31,12.08-.82,3.02-1.05,6.19-.77,9.3.35,4.04,1.52,7.96,3.11,11.68,1.63,3.78,3.9,6.81,6.42,10.04,3.32,4.24,9.21,9.03,9.21,9.03,5.87,2.81,12.73.91,12.73.91,5.15-4.95,8.67-12.42,8.81-12.8-.18.06-1.6.59-3.5.31-1.32-.21-2.88-.81-4.43-2.24-3.96-3.62-4.25-10.51.96-12.08,5.16-1.58,7.06,5.64,7.06,5.64,3.32-1.43,2.37-5.63,2.76-8.05,2.35-1.31,5.99-4.1,7.73-9.37.68,1.27,1.3,2.7,1.84,4.34,1.99-1.71,4.06-3.38,5.39-5.69,1.69-2.95,2.08-6.73.59-9.8Z"/>
        <path class="cls-6" d="m193.37,128.85c-1.5-3.07-5-5.15-8.36-4.55.85-3.86-1.34-8.17-4.94-9.77-2.14-.94-4.58-.99-6.87-.55-2.29.44-4.46,1.34-6.62,2.23-4.89,2.02-9.77,4.12-14.7,6.07-2.42.95-4.86,1.88-7.09,3.27-4.48,2.81-7.91,6.92-9.31,12.08-.82,3.02-1.05,6.19-.77,9.3.35,4.04,1.52,7.96,3.11,11.68,1.63,3.78,3.9,6.81,6.42,10.04,3.32,4.24,9.21,9.03,9.21,9.03,5.87,2.81,12.73.91,12.73.91,5.15-4.95,8.67-12.42,8.81-12.8-.18.06-1.6.59-3.5.31-1.32-.21-2.88-.81-4.43-2.24-3.96-3.62-4.25-10.51.96-12.08,5.16-1.58,7.06,5.64,7.06,5.64,3.32-1.43,2.37-5.63,2.76-8.05,2.35-1.31,5.99-4.1,7.73-9.37.68,1.27,1.3,2.7,1.84,4.34,1.99-1.71,4.06-3.38,5.39-5.69,1.69-2.95,2.08-6.73.59-9.8Z"/>
      </g>
      <g>
        <path class="cls-9" d="m178.58,335.77c-5.49-.28-9.79-4.31-22.84-9.75-24.1-10.04-42.18-18.08-49.07-30.7-6.89-12.63-11.76-49.07-10.04-64.85.23-2.09.64-3.82,1.18-5.23l-1.69-.25,4.39-3.74h0c4.5-3.67,11.83-.39,17.36,2.62,15.78,8.59,28.12,16.93,37.88,47.06,7.34,22.66,12.18,43.34,22.31,54.39"/>
        <path class="cls-13" d="m97.81,225.24l-1.69-.25,4.39-3.74h0c4.5-3.67,11.83-.39,17.36,2.62,15.78,8.59,28.12,16.93,37.88,47.06,7.34,22.66,12.18,43.34,22.31,54.39l.53,10.45c-5.49-.28-9.79-4.31-22.84-9.75-24.1-10.04-42.18-18.08-49.07-30.7-6.89-12.63-11.77-49.07-10.04-64.85.23-2.09.64-3.82,1.18-5.23Z"/>
        <path class="cls-9" d="m113.29,227.75c15.78,8.59,28.12,16.93,37.88,47.06,9.76,30.13,15.09,56.75,34.32,61.91,0,0-8.69,3.45-35.33-7.81-8.48-3.58-18.76-10.12-25.52-13.91-13.24-7.43-21.27-13.52-22.54-15.8-7-12.56-11.77-49.07-10.04-64.85,1.72-15.78,13.33-10.9,21.23-6.6Z"/>
      </g>
      <g id="Arm">
        <g>
          <path class="cls-31" d="m271.68,237.83c.1.03.22,0,.27-.1l1.2-1.98c.07-.11.03-.26-.08-.33-.12-.06-.26-.03-.33.08l-1.2,1.98c-.07.11-.03.26.08.33.02.01.04.02.06.02Z"/>
          <g>
            <path class="cls-9" d="m277.37,233.45l-4.16,3.2c-.61.47-1.47-.1-1.27-.85l1.36-5.11,4.07,2.75Z"/>
            <g class="cls-42">
              <path class="cls-12" d="m277.37,233.45l-4.16,3.2c-.61.47-1.47-.1-1.27-.85l1.36-5.11,4.07,2.75Z"/>
            </g>
            <path class="cls-9" d="m290.07,205.44c.32-.4.83-.47,1.39-.32,1.5.39,3.46,2.15,2.61,3.22l-16.71,25.11c-.72.3-1.95-.04-2.88-.8-.61-.5-1.08-1.17-1.19-1.95l16.77-25.26Z"/>
            <path class="cls-9" d="m290.07,205.44c.32-.4.83-.47,1.39-.32,1.5.39,3.46,2.15,2.61,3.22l-16.71,25.11c-.72.3-1.95-.04-2.88-.8-.61-.5-1.08-1.17-1.19-1.95l16.77-25.26Z"/>
            <path class="cls-9" d="m291.46,205.12c-.56-.15-1.07-.08-1.39.32-.25.38.12,1.45,1.25,2.24,1.39.96,2.49.98,2.81.56.65-1.09-1.23-2.73-2.68-3.11Z"/>
            <path class="cls-22" d="m291.46,205.12c-.56-.15-1.07-.08-1.39.32-.25.38.12,1.45,1.25,2.24,1.39.96,2.49.98,2.81.56.65-1.09-1.23-2.73-2.68-3.11Z"/>
          </g>
          <path class="cls-14" d="m292.82,203.87c.31-.48.96-.62,1.44-.3.48.31.62.96.3,1.44l-1.33,2h0c-.08.13-.25.2-.49.19-.47-.03-1.02-.39-1.23-.81-.11-.21-.11-.39-.02-.52h0l1.33-2Z"/>
        </g>
        <path class="cls-23" d="m283.45,224.31s-1.02,1.58-1.89,2.85c-.71,1.02-1.1,1.49-1.6,1.61-1.04.24-3.29-.47-4.07-1.96l1.32-1.98c-1.49-.15-3.2-.18-4.02.13-1.83.69-4.05,1.77-5.44,4.92-2.01,4.56-1.62,5.28-7.28,5.68-5.66.4-35.57.9-35.57.9h0c-3.56-4.13-16.68-19.36-21.74-25.39-5.88-7.01-16.95-22.39-21.81-20.84-4.83,1.57-9.3,16.21-2.8,27.5,5.76,10,25.73,27.75,33.88,34.93.86.8,1.65,1.5,2.38,2.1.04.04.1.09.14.12h0c4.98,4.06,7.16,3.57,13.14,2.42,7.14-1.37,40.85-8.22,47.6-11.21,6.75-2.99,12.87-11.09,12.86-15.21-.01-4.11-5.08-6.58-5.08-6.58Z"/>
      </g>
    </g>
  </g>
  <g id="Icons">
    <g id="Ai_Icon" data-name="Ai Icon">
      <g>
        <path class="cls-14" d="m75.23,47.88c0-2.39-1.68-5.3-3.75-6.49h0c-2.07-1.19-5.43-1.19-7.5,0l-28.48,16.3c-2.07,1.2-3.75,4.1-3.75,6.49v30.74c0,2.39,1.68,5.3,3.75,6.49h0c2.07,1.19,5.43,1.19,7.5,0l28.83-16.56c3.37-1.92,3.4-3.85,3.4-6.24v-30.74Z"/>
        <path class="cls-31" d="m31.76,94.93c0,2.39,1.68,5.3,3.75,6.49h0c1.87,1.07,4.78,1.18,6.86.31-1.76.67-3.11-.34-3.11-2.48v-30.74c0-1.2.42-2.52,1.1-3.69l-7.49-4.32c-.68,1.17-1.1,2.5-1.1,3.69v30.74Z"/>
        <path class="cls-38" d="m75.11,46.82c-.44-1.59-1.89-2.1-3.62-1.1l-28.48,16.31c-1.03.59-1.98,1.61-2.64,2.8l-7.49-4.32c.68-1.19,1.61-2.2,2.64-2.8l28.47-16.31c2.08-1.19,5.44-1.19,7.5,0h0c1.77,1.01,3.25,3.29,3.62,5.42Z"/>
      </g>
      <g>
        <path class="cls-9" d="m67.57,55.55c0,1.63-.8,3.42-2.08,4.16-1.21.7-2.03-.16-2-1.8-.03-1.7.79-3.46,2.03-4.17s2.02.12,2.05,1.82Z"/>
        <polygon class="cls-9" points="67.44 60.93 67.09 80.17 63.07 82.49 63.43 63.25 67.44 60.93"/>
        <path class="cls-9" d="m56.48,60.03l-5.05,2.92-5.22,29.26,4-2.31,1.22-7.44,4.88-2.82,1.32,5.97,4.14-2.39-5.29-23.2Zm-4.5,17.67s1.54-9.95,1.79-11.67l.05-.03c.25,1.43,1.93,9.52,1.93,9.52l-3.77,2.18Z"/>
      </g>
    </g>
    <g id="Ps_Icon" data-name="Ps Icon">
      <g>
        <path class="cls-14" d="m173.51,48.57c0-2.39-1.68-5.3-3.75-6.49h0c-2.07-1.19-5.43-1.19-7.5,0l-28.48,16.3c-2.07,1.2-3.75,4.1-3.75,6.49v30.74c0,2.39,1.68,5.3,3.75,6.49h0c2.07,1.19,5.43,1.19,7.5,0l28.83-16.56c3.37-1.92,3.4-3.85,3.4-6.24v-30.74Z"/>
        <path class="cls-31" d="m130.04,95.62c0,2.39,1.68,5.3,3.75,6.49h0c1.87,1.07,4.78,1.18,6.86.31-1.76.67-3.11-.34-3.11-2.48v-30.74c0-1.2.42-2.52,1.1-3.69l-7.49-4.32c-.68,1.17-1.1,2.5-1.1,3.69v30.74Z"/>
        <path class="cls-38" d="m173.38,47.5c-.44-1.59-1.89-2.1-3.62-1.1l-28.48,16.31c-1.03.59-1.98,1.61-2.64,2.8l-7.49-4.32c.68-1.19,1.61-2.2,2.64-2.8l28.47-16.31c2.08-1.19,5.44-1.19,7.5,0h0c1.77,1.01,3.25,3.29,3.62,5.42Z"/>
      </g>
      <path class="cls-3" d="m167.28,74.54c0,3.42-1.76,6.94-5.16,8.91-1.56.9-2.95,1.18-3.84.94l.66-4.46c.68.24,2.09.18,3.19-.46,1.11-.64,1.58-1.51,1.58-2.45s-.37-1.17-1.75-1.09c-2.46.15-3.41-1.36-3.39-3.55,0-3.41,1.9-7.09,4.84-8.79,1.39-.8,2.63-1.03,3.36-.89l-.66,4.31c-.54-.14-1.56-.15-2.58.44-.9.52-1.41,1.38-1.41,2.31,0,.86.46,1.04,1.91,1,2.26-.12,3.21,1.1,3.24,3.78Z"/>
      <path class="cls-3" d="m155.81,63.19c-1.09-.73-2.72-.45-5.01.87-2.26,1.31-3.87,2.46-5.01,3.42v24.91l3.67-2.12v-9.03c.34-.12.78-.35,1.26-.63,2.19-1.26,4.07-3.17,5.32-5.72.98-1.99,1.51-4.4,1.51-6.87s-.7-4.17-1.75-4.83Zm-5.11,13.06c-.53.31-.92.49-1.23.57v-7.45c.26-.26.78-.68,1.52-1.11,1.85-1.07,2.9-.29,2.91,2.02,0,2.59-1.22,4.83-3.19,5.97Z"/>
    </g>
    <g id="Sketch_Icon" data-name="Sketch Icon">
      <g>
        <path class="cls-14" d="m113.77,102.15c0-2.39-1.68-5.3-3.75-6.49h0c-2.07-1.19-5.43-1.19-7.5,0l-28.48,16.3c-2.07,1.2-3.75,4.1-3.75,6.49v30.74c0,2.39,1.68,5.3,3.75,6.49h0c2.07,1.19,5.43,1.19,7.5,0l28.83-16.56c3.37-1.92,3.4-3.85,3.4-6.24v-30.74Z"/>
        <path class="cls-31" d="m70.3,149.2c0,2.39,1.68,5.3,3.75,6.49h0c1.87,1.07,4.78,1.18,6.86.31-1.76.67-3.11-.34-3.11-2.48v-30.74c0-1.2.42-2.52,1.1-3.69l-7.49-4.32c-.68,1.17-1.1,2.5-1.1,3.69v30.74Z"/>
        <path class="cls-38" d="m113.64,101.09c-.44-1.59-1.89-2.1-3.62-1.1l-28.48,16.31c-1.03.59-1.98,1.61-2.64,2.8l-7.49-4.32c.68-1.19,1.61-2.2,2.64-2.8l28.47-16.31c2.08-1.19,5.44-1.19,7.5,0h0c1.77,1.01,3.25,3.29,3.62,5.42Z"/>
      </g>
      <polygon class="cls-9" points="88.94 120.57 88.94 126.52 93.9 116.47 88.94 120.57"/>
      <polygon class="cls-9" points="102.22 112.76 96.7 114.57 102.22 119.38 102.22 112.76"/>
      <polygon class="cls-9" points="101.81 120.54 95.76 115.25 89.7 127.53 90.15 127.27 95.29 124.3 101.81 120.54"/>
      <polygon class="cls-9" points="84.97 131.57 93.42 140.08 88.14 129.74 84.97 131.57"/>
      <polygon class="cls-9" points="98.95 134.41 105.84 119.52 103.26 121.01 98.95 134.41"/>
      <polygon class="cls-9" points="95.46 141.57 101.79 121.86 89.12 129.18 95.46 141.57"/>
      <polygon class="cls-9" points="87.8 123.33 85.16 130.15 87.75 128.65 87.8 128.63 87.8 123.33"/>
      <polygon class="cls-9" points="103.47 119.58 106.29 117.95 103.35 113.77 103.35 119.65 103.47 119.58"/>
    </g>
  </g>
</svg>