<?xml version="1.0" encoding="UTF-8"?>
<svg xmlns="http://www.w3.org/2000/svg" xmlns:xlink="http://www.w3.org/1999/xlink" viewBox="0 0 240.89 197.25">
  <defs>
    <style>
      .cls-1 {
        fill: url(#linear-gradient);
      }

      .cls-1, .cls-2, .cls-3, .cls-4, .cls-5, .cls-6 {
        stroke-width: 0px;
      }

      .cls-2 {
        fill: url(#New_Gradient_Swatch_copy_11-2);
      }

      .cls-2, .cls-3 {
        mix-blend-mode: multiply;
      }

      .cls-7 {
        isolation: isolate;
      }

      .cls-3 {
        fill: url(#New_Gradient_Swatch_copy_11);
      }

      .cls-4 {
        fill: #ededed;
      }

      .cls-5 {
        fill: #6a0c1d;
      }

      .cls-6 {
        fill: #c1bfbf;
      }
    </style>
    <linearGradient id="linear-gradient" x1="206.73" y1="161.21" x2="206.78" y2="160.99" gradientTransform="translate(-1.81 2.17) rotate(-15.7)" gradientUnits="userSpaceOnUse">
      <stop offset="0" stop-color="#33383c"/>
      <stop offset="1" stop-color="#60656a"/>
    </linearGradient>
    <linearGradient id="New_Gradient_Swatch_copy_11" data-name="New Gradient Swatch copy 11" x1="92.07" y1="163.31" x2="189.87" y2="44.28" gradientUnits="userSpaceOnUse">
      <stop offset="0" stop-color="#7b728c"/>
      <stop offset="1" stop-color="#e1d8eb" stop-opacity="0"/>
    </linearGradient>
    <linearGradient id="New_Gradient_Swatch_copy_11-2" data-name="New Gradient Swatch copy 11" x1="75.99" y1="195.24" x2="161.92" y2="90.65" gradientTransform="translate(-1.81 2.17) rotate(-15.7)" xlink:href="#New_Gradient_Swatch_copy_11"/>
  </defs>
  <g class="cls-7">
    <g id="Layer_2" data-name="Layer 2">
      <g id="Layer_1-2" data-name="Layer 1">
        <line class="cls-1" x1="240.89" y1="101.41" x2="240.77" y2="101.13"/>
        <g>
          <g>
            <path class="cls-5" d="m191.65,154.34c-.15-.29-.3-.57-.45-.86l-1.43-2.71c-.64-1.21-1.28-2.43-1.92-3.64-.72-1.36-1.43-2.72-2.15-4.07-.71-1.34-1.42-2.68-2.12-4.02-.61-1.16-1.22-2.32-1.84-3.48-.43-.82-.86-1.63-1.29-2.45l-.49-.92s-2.86-5.41-5.84-11.06c1.54-2.55,3.31-5.82,4.96-9.72,1.18-2.79,4.98-12.27,6.04-26.26.72-9.63,2.09-27.75-8.03-47.11-2.65-5.06-9.54-17.86-24.54-27.4-2.79-1.77-13.69-8.42-29.59-10.23-3.08-.35-16.45-1.67-32.15,3.65-3.56,1.21-9.67,3.32-16.54,8.11-8.43,5.88-13.11,12.34-14.15,13.81-3.09,4.37-9.15,12.96-8.18,23.62.05.51.1.93.14,1.22,1.72-1.79,4.24-4.39,7.35-7.44,7.6-7.46,15.01-14.71,21.51-19.23,2.84-1.98,18.58-12.93,39.61-10.84,3.28.33,18.18,2.11,31.27,13.58,18.2,15.93,23.31,42.15,18.08,63.57-6.25,25.64-26.78,42.11-41.86,46.87-13.79,4.35-26.65,2.23-26.65,2.23-.89-.15-3.9-.71-7.71-1.88-40.35-12.39-46.84-53.52-35.61-77.59.57-1.22,1.21-2.4,1.89-3.52-7.22,2.95-12.79,10.03-14.01,17.51l-.05.31c-2.63,18.94,3.91,38.41,16.15,52.68,14.81,17.27,39.86,26.68,67.71,23.07,3.57-.46,10.89-1.67,19.2-5.76,3.95,4.57,8.94,8.03,14.5,10.05,1.07.39,2.19.72,3.3.99,1.54.38,3.1.56,4.67.73,1,.11,2.11.21,3.11.23,2.95.05,5.69-.29,8.63-.6,1.47-.16,3.12-.32,4.59-.5,1.46-.18,2.72-.3,4.16-.46,0-.14-.21-.4-.25-.49Z"/>
            <path class="cls-6" d="m182.64,149.21c-.92.1-1.72.17-2.65.28s-1.99.21-2.93.31c-1.87.19-3.62.4-5.5.37-.64,0-1.35-.07-1.99-.14-1-.11-1.99-.21-2.98-.45-.7-.17-1.42-.37-2.1-.61-5.73-2.01-10.55-6.3-13.08-12.12l-5.72-11.66-22.95-52.99-5.7,60.14-21.6-40.31c-.82,32.68-26.36,31.29-40.9,6.48,4.54,5.71,20.11,14.85,29.08,9.49.13-.07.25-.13.36-.22.28-.17.54-.36.79-.57.01,0,.02-.02.04-.03,3.71-3.05,6.03-9.96,5.28-22.18-1.45-23.17-.9-32.81-.9-32.81l26.41,54.33c0-.09,0-.18,0-.29l3.9-72.39,39.43,72.05,16.09,29.4.31.57.82,1.5,1.17,2.14,1.35,2.47,1.37,2.51,1.22,2.24.91,1.67.29.53c.03.05.16.21.16.3Z"/>
            <path class="cls-3" d="m179.74,143.89l-20.82-38.04-39.43-72.05-3.9,72.39c0,.1,0,.19,0,.29-.28,5.31-2.21,7.38-4.56,3.1-2.33-4.27-15.6-28.49-15.6-28.49v10.9s21.61,40.31,21.61,40.31l5.7-60.14,22.95,52.99,5.72,11.66c2.53,5.83,7.35,10.12,13.08,12.12,1.65.58,3.37.89,5.13,1.07,1.49.15,2.99.24,4.53.07l8.48-.87-2.89-5.31Z"/>
            <path class="cls-2" d="m181.3,149.34c-.25.01-.88.1-2.15.24-.5.06-.68.08-1.08.12-.48.05-.82.08-1.01.09-1.03.09-1.86.2-2.1.22-.1.01-.2.02-.3.03-.11.01-.22.02-.33.03-.09,0-.17.01-.26.02-.11,0-.22.02-.33.02-4.6.27-8.47-.9-8.47-.9-.5-.15-1.66-.52-3.09-1.2-3.18-1.52-5.9-3.77-8.02-6.54-1.08-1.42-1.96-3-2.78-4.63l-5.72-11.66-22.95-52.99s1.46-15.37,1.46-15.37c-.05.51.88,1.75,1.12,2.22.43.86.87,1.72,1.3,2.58.81,1.61,1.61,3.22,2.42,4.84,1.52,3.05,3.02,6.11,4.51,9.18,2.66,5.46,5.29,10.93,7.89,16.42,4.05,8.55,8.02,17.15,12.13,25.68,2.39,4.95,4.8,9.89,7.56,14.65,2.52,4.36,5.32,8.77,9.22,12.03,1.76,1.47,3.74,2.69,5.88,3.51,1.12.43,2.29.75,3.47.93.89.13,2.12.04,2.97.34-.06,0-.19.02-.31.03-.09,0-.17.02-.25.03-.05,0-.12.01-.17.02-.03,0-.07,0-.1,0-.02,0-.04,0-.06,0-.04,0-.05,0-.08,0s-.08.01-.11.01c-.05,0-.1.01-.14.01-.05,0-.08,0-.11,0Z"/>
          </g>
          <g>
            <path class="cls-4" d="m33.23,192.59l-.03-16.25-6.81,13.54h-1.24l-6.81-13.44v16.15h-2.58v-22.3h2.21l7.86,15.68,7.76-15.68h2.21l.03,22.3h-2.59Z"/>
            <path class="cls-4" d="m64.25,187.02h-10.02l-2.07,5.57h-2.77l8.54-22.3h2.67l8.56,22.3h-2.83l-2.07-5.57Zm-.94-2.55l-4.07-10.93-4.07,10.93h8.13Z"/>
            <path class="cls-4" d="m95.33,192.59l-4.07-6.85c-.5.04-.9.06-1.19.06h-4.66v6.79h-2.69v-22.3h7.35c2.44,0,4.36.69,5.76,2.07,1.4,1.38,2.1,3.28,2.1,5.7,0,1.72-.36,3.19-1.08,4.4-.72,1.21-1.74,2.09-3.07,2.64l4.47,7.49h-2.94Zm-1.43-10.8c.9-.87,1.35-2.11,1.35-3.73s-.45-2.85-1.35-3.71-2.2-1.29-3.9-1.29h-4.58v10.03h4.58c1.71,0,3.01-.43,3.9-1.3Z"/>
            <path class="cls-5" d="m132.49,194.63c-.61.85-1.32,1.5-2.13,1.94-.81.45-1.68.67-2.61.67-1.18,0-2.29-.33-3.33-1-1.03-.67-2.21-1.81-3.54-3.42-1.78-.11-3.38-.67-4.81-1.69s-2.54-2.37-3.34-4.06c-.8-1.69-1.2-3.56-1.2-5.62s.44-4.09,1.31-5.83c.87-1.74,2.07-3.11,3.6-4.09,1.53-.99,3.24-1.48,5.14-1.48s3.59.49,5.12,1.48c1.53.99,2.72,2.35,3.58,4.08.86,1.73,1.29,3.68,1.29,5.85,0,1.83-.31,3.5-.93,5.03-.62,1.53-1.49,2.81-2.61,3.85-1.12,1.04-2.41,1.76-3.86,2.17.63.79,1.23,1.35,1.82,1.7.58.35,1.18.53,1.79.53,1.33,0,2.48-.64,3.45-1.91l1.27,1.82Zm-17.3-8.81c.64,1.31,1.52,2.33,2.64,3.07,1.12.74,2.37,1.11,3.76,1.11s2.6-.37,3.72-1.11c1.11-.74,1.99-1.77,2.63-3.07s.96-2.77.96-4.38-.32-3.07-.96-4.38c-.64-1.31-1.51-2.33-2.63-3.07-1.11-.74-2.35-1.12-3.72-1.12s-2.63.37-3.76,1.12c-1.12.74-2,1.77-2.64,3.07-.64,1.3-.96,2.77-.96,4.38s.32,3.07.96,4.38Z"/>
            <path class="cls-4" d="m160.15,189.82v2.77h-13.68v-22.3h13.3v2.77h-10.61v6.85h9.45v2.71h-9.45v7.2h10.99Z"/>
            <path class="cls-4" d="m191.5,170.29v22.3h-2.21l-11.31-16.63v16.63h-2.69v-22.3h2.21l11.31,16.63v-16.63h2.69Z"/>
            <path class="cls-4" d="m211.67,173.06h-6.46v-2.77h15.59v2.77h-6.46v19.53h-2.67v-19.53Z"/>
            <path class="cls-4" d="m234.5,170.29h2.69v22.3h-2.69v-22.3Z"/>
            <g>
              <path class="cls-4" d="m4.97,170.22c-2.74,0-4.97,2.23-4.97,4.97s2.23,4.97,4.97,4.97,4.97-2.23,4.97-4.97-2.23-4.97-4.97-4.97Zm0,9.28c-2.38,0-4.32-1.94-4.32-4.32s1.94-4.32,4.32-4.32,4.32,1.94,4.32,4.32-1.94,4.32-4.32,4.32Z"/>
              <g>
                <path class="cls-4" d="m4.68,176.71c-.18.09-.54.18-.99.18-1.06,0-1.86-.67-1.86-1.9s.8-1.98,1.96-1.98c.47,0,.76.1.89.17l-.12.4c-.18-.09-.45-.16-.76-.16-.88,0-1.47.56-1.47,1.55,0,.92.53,1.51,1.45,1.51.3,0,.6-.06.79-.16l.1.39Z"/>
                <path class="cls-4" d="m5.92,175.65l-.39,1.18h-.5l1.28-3.76h.59l1.28,3.76h-.52l-.4-1.18h-1.33Zm1.23-.38l-.37-1.08c-.08-.25-.14-.47-.2-.69h-.01c-.06.22-.12.45-.19.68l-.37,1.09h1.13Z"/>
              </g>
            </g>
          </g>
        </g>
      </g>
    </g>
  </g>
</svg>