<?xml version="1.0" encoding="UTF-8"?>
<svg xmlns="http://www.w3.org/2000/svg" xmlns:xlink="http://www.w3.org/1999/xlink" viewBox="0 0 172.64 184.77">
  <defs>
    <style>
      .cls-1 {
        fill: url(#linear-gradient);
      }

      .cls-1, .cls-2, .cls-3, .cls-4, .cls-5 {
        stroke-width: 0px;
      }

      .cls-2 {
        fill: url(#New_Gradient_Swatch_copy_11-2);
      }

      .cls-2, .cls-3 {
        mix-blend-mode: multiply;
      }

      .cls-6 {
        isolation: isolate;
      }

      .cls-3 {
        fill: url(#New_Gradient_Swatch_copy_11);
      }

      .cls-4 {
        fill: #141727;
      }

      .cls-5 {
        fill: #344767;
      }
    </style>
    <linearGradient id="linear-gradient" x1="109.44" y1="110.54" x2="109.49" y2="110.31" gradientTransform="translate(-37.71 48.02) rotate(-15.7)" gradientUnits="userSpaceOnUse">
      <stop offset="0" stop-color="#33383c"/>
      <stop offset="1" stop-color="#60656a"/>
    </linearGradient>
    <linearGradient id="New_Gradient_Swatch_copy_11" data-name="New Gradient Swatch copy 11" x1="56.15" y1="188.84" x2="167.2" y2="53.67" gradientUnits="userSpaceOnUse">
      <stop offset="0" stop-color="#7b728c"/>
      <stop offset="1" stop-color="#e1d8eb" stop-opacity="0"/>
    </linearGradient>
    <linearGradient id="New_Gradient_Swatch_copy_11-2" data-name="New Gradient Swatch copy 11" x1="85.33" y1="177.74" x2="182.98" y2="58.88" gradientTransform="translate(-37.71 48.02) rotate(-15.7)" xlink:href="#New_Gradient_Swatch_copy_11"/>
  </defs>
  <g class="cls-6">
    <g id="Layer_2" data-name="Layer 2">
      <g id="Layer_1-2" data-name="Layer 1">
        <line class="cls-1" x1="97.62" y1="124.8" x2="97.5" y2="124.52"/>
        <g>
          <path class="cls-4" d="m172.35,182.34c-.18-.34-.36-.67-.53-1.01l-1.69-3.2c-.75-1.43-1.51-2.87-2.26-4.3-.84-1.6-1.69-3.21-2.53-4.81-.83-1.58-1.67-3.17-2.5-4.75-.72-1.37-1.44-2.74-2.16-4.11-.51-.96-1.01-1.93-1.52-2.89l-.57-1.09s-3.37-6.39-6.88-13.07c1.82-3.01,3.9-6.87,5.84-11.48,1.39-3.3,5.87-14.49,7.11-31.03.85-11.38,2.46-32.78-9.46-55.66-3.12-5.98-11.24-21.1-28.9-32.37-3.29-2.1-16.12-9.94-34.85-12.09-3.63-.41-19.38-1.98-37.86,4.32-4.19,1.43-11.39,3.93-19.48,9.59-9.93,6.94-15.44,14.57-16.66,16.31-3.63,5.16-10.78,15.32-9.63,27.91.06.6.12,1.1.17,1.44,2.02-2.12,4.99-5.18,8.66-8.79,8.96-8.81,17.68-17.38,25.33-22.72,3.34-2.33,21.88-15.28,46.64-12.8,3.86.39,21.41,2.5,36.83,16.04,21.43,18.82,27.45,49.8,21.3,75.1-7.37,30.29-31.54,49.75-49.3,55.38-16.23,5.14-31.38,2.63-31.38,2.63-1.05-.17-4.59-.84-9.08-2.22C9.43,148.03,1.78,99.44,15.01,70.99c.67-1.44,1.42-2.84,2.22-4.16-8.51,3.48-15.06,11.85-16.5,20.69l-.05.37c-3.1,22.38,4.6,45.38,19.02,62.24,17.44,20.4,46.94,31.52,79.74,27.25,4.2-.55,12.82-1.98,22.61-6.81,4.65,5.4,10.53,9.49,17.07,11.87,1.26.46,2.58.85,3.88,1.17,1.82.45,3.65.66,5.5.87,1.17.13,2.49.25,3.67.27,3.47.06,6.71-.34,10.16-.71,1.73-.19,3.68-.38,5.41-.59,1.72-.21,3.2-.35,4.9-.54,0-.17-.24-.48-.29-.57Z"/>
          <path class="cls-5" d="m158.83,172.89c-1.04.11-1.95.19-3,.32s-2.25.24-3.31.35c-2.12.22-4.1.45-6.23.42-.72-.01-1.53-.08-2.25-.16-1.14-.12-2.26-.24-3.37-.51-.8-.19-1.61-.42-2.38-.69-6.49-2.28-11.95-7.15-14.81-13.77l-6.47-13.25-25.98-60.19-6.46,68.3-24.46-45.78c-.93,37.11-29.84,35.54-46.3,7.36,5.14,6.48,22.76,16.87,32.92,10.77.15-.08.28-.15.4-.25.32-.19.61-.41.9-.64.02,0,.03-.02.04-.03,4.2-3.47,6.83-11.31,5.97-25.19-1.64-26.31-1.01-37.26-1.01-37.26l29.9,61.7c0-.1,0-.21.01-.32l4.41-82.22,44.64,81.83,18.22,33.39.35.65.93,1.71,1.33,2.43,1.53,2.81,1.55,2.85,1.39,2.54,1.03,1.9.33.6c.03.06.18.24.18.34Z"/>
          <path class="cls-3" d="m155.56,166.85l-23.57-43.2-44.64-81.83-4.41,82.22c0,.12,0,.22-.01.32-.32,6.03-2.51,8.38-5.17,3.52-2.64-4.85-17.66-32.36-17.66-32.36v12.38s24.47,45.78,24.47,45.78l6.46-68.3,25.98,60.19,6.47,13.25c2.86,6.62,8.32,11.49,14.81,13.77,1.87.66,3.81,1.01,5.81,1.21,1.69.17,3.39.27,5.13.08l9.6-.99-3.27-6.04Z"/>
          <path class="cls-2" d="m157.32,173.05c-.28.02-1,.11-2.44.27-.57.06-.78.09-1.22.14-.54.06-.92.09-1.14.11-1.17.1-2.1.22-2.38.25-.11.01-.23.03-.34.04-.12.01-.25.02-.37.03-.1,0-.2.02-.29.02-.12,0-.25.02-.37.02-5.2.31-9.59-1.02-9.59-1.02-.56-.17-1.88-.59-3.49-1.37-3.6-1.73-6.67-4.28-9.08-7.43-1.23-1.61-2.22-3.4-3.15-5.26l-6.47-13.25-25.98-60.19s1.65-17.46,1.65-17.46c-.05.58,1,1.98,1.27,2.52.49.98.98,1.96,1.47,2.93.92,1.83,1.83,3.66,2.73,5.5,1.72,3.47,3.42,6.94,5.11,10.42,3.01,6.2,5.98,12.42,8.93,18.65,4.59,9.72,9.08,19.48,13.74,29.16,2.7,5.62,5.43,11.24,8.55,16.64,2.86,4.95,6.02,9.95,10.44,13.66,1.99,1.67,4.23,3.05,6.66,3.98,1.27.49,2.59.85,3.93,1.05,1.01.15,2.41.05,3.36.39-.07.01-.22.03-.36.04-.1,0-.19.02-.28.03-.06,0-.14.01-.19.02-.04,0-.08,0-.12.01-.02,0-.04,0-.07,0-.04,0-.05,0-.09,0s-.09.01-.13.01c-.06,0-.11.01-.16.02-.05,0-.09,0-.13.01Z"/>
        </g>
      </g>
    </g>
  </g>
</svg>