<?xml version="1.0" encoding="UTF-8"?>
<svg xmlns="http://www.w3.org/2000/svg" xmlns:xlink="http://www.w3.org/1999/xlink" viewBox="0 0 148.17 158.58">
  <defs>
    <style>
      .cls-1 {
        fill: url(#linear-gradient);
      }

      .cls-1, .cls-2, .cls-3, .cls-4, .cls-5 {
        stroke-width: 0px;
      }

      .cls-2 {
        fill: url(#New_Gradient_Swatch_copy_11-2);
      }

      .cls-2, .cls-3 {
        mix-blend-mode: multiply;
      }

      .cls-6 {
        isolation: isolate;
      }

      .cls-3 {
        fill: url(#New_Gradient_Swatch_copy_11);
      }

      .cls-4 {
        fill: #141727;
      }

      .cls-5 {
        fill: #344767;
      }
    </style>
    <linearGradient id="linear-gradient" x1="96.74" y1="73.63" x2="96.79" y2="73.41" gradientTransform="translate(-38.96 55.45) rotate(-15.7)" gradientUnits="userSpaceOnUse">
      <stop offset="0" stop-color="#33383c"/>
      <stop offset="1" stop-color="#60656a"/>
    </linearGradient>
    <linearGradient id="New_Gradient_Swatch_copy_11" data-name="New Gradient Swatch copy 11" x1="47.13" y1="165.53" x2="146.28" y2="44.85" gradientUnits="userSpaceOnUse">
      <stop offset="0" stop-color="#7b728c"/>
      <stop offset="1" stop-color="#e1d8eb" stop-opacity="0"/>
    </linearGradient>
    <linearGradient id="New_Gradient_Swatch_copy_11-2" data-name="New Gradient Swatch copy 11" x1="82.63" y1="144.25" x2="169.82" y2="38.13" gradientTransform="translate(-38.96 55.45) rotate(-15.7)" xlink:href="#New_Gradient_Swatch_copy_11"/>
  </defs>
  <g class="cls-6">
    <g id="Layer_2" data-name="Layer 2">
      <g id="Layer_1-2" data-name="Layer 1">
        <line class="cls-1" x1="74.15" y1="100.14" x2="74.03" y2="99.86"/>
        <g>
          <path class="cls-4" d="m147.92,156.5c-.15-.29-.3-.58-.46-.87l-1.45-2.75c-.65-1.23-1.29-2.46-1.94-3.69-.72-1.38-1.45-2.75-2.17-4.13-.72-1.36-1.43-2.72-2.15-4.08-.62-1.18-1.24-2.35-1.86-3.53-.44-.83-.87-1.65-1.31-2.48l-.49-.94s-2.89-5.49-5.91-11.22c1.56-2.58,3.34-5.9,5.01-9.85,1.19-2.83,5.04-12.44,6.1-26.63.73-9.77,2.11-28.14-8.12-47.77-2.68-5.13-9.64-18.11-24.8-27.79-2.82-1.8-13.84-8.54-29.91-10.37-3.11-.36-16.63-1.7-32.5,3.7-3.59,1.22-9.77,3.37-16.72,8.23-8.53,5.96-13.25,12.51-14.3,14-3.12,4.43-9.25,13.14-8.27,23.95.05.52.1.95.14,1.24,1.74-1.82,4.28-4.45,7.43-7.55,7.69-7.56,15.18-14.92,21.74-19.5,2.87-2,18.78-13.11,40.03-10.99,3.31.33,18.37,2.14,31.61,13.77,18.4,16.16,23.56,42.74,18.28,64.46-6.32,26-27.07,42.7-42.31,47.53-13.93,4.41-26.94,2.26-26.94,2.26-.9-.15-3.94-.72-7.79-1.9C8.09,127.05,1.53,85.34,12.88,60.93c.58-1.24,1.22-2.44,1.91-3.57-7.3,2.99-12.93,10.17-14.16,17.76l-.05.32c-2.66,19.21,3.95,38.94,16.33,53.42,14.97,17.51,40.28,27.05,68.44,23.39,3.6-.47,11.01-1.7,19.41-5.84,3.99,4.63,9.03,8.14,14.65,10.19,1.08.39,2.22.73,3.33,1.01,1.56.39,3.13.57,4.72.74,1.01.11,2.14.22,3.15.23,2.98.05,5.76-.29,8.72-.61,1.49-.16,3.16-.32,4.64-.51,1.48-.18,2.75-.3,4.2-.47,0-.14-.21-.41-.25-.49Z"/>
          <path class="cls-5" d="m138.81,151.29c-.93.1-1.74.17-2.68.29s-2.01.22-2.96.31c-1.89.2-3.66.4-5.56.37-.65,0-1.37-.07-2.01-.14-1.02-.11-2.02-.22-3.01-.46-.71-.17-1.44-.38-2.12-.62-5.79-2.04-10.66-6.39-13.22-12.29l-5.78-11.83-23.2-53.73-5.76,60.98-21.84-40.88c-.83,33.13-26.64,31.73-41.34,6.57,4.59,5.79,20.32,15.06,29.39,9.62.13-.07.25-.13.36-.22.28-.17.54-.37.8-.57.01,0,.02-.02.04-.03,3.75-3.1,6.1-10.1,5.33-22.49-1.46-23.49-.91-33.26-.91-33.26l26.69,55.09c0-.09,0-.18,0-.29l3.94-73.4,39.85,73.06,16.27,29.81.31.58.83,1.53,1.18,2.17,1.37,2.51,1.39,2.54,1.24,2.27.92,1.69.29.53c.03.05.16.21.16.3Z"/>
          <path class="cls-3" d="m135.89,145.9l-21.04-38.57-39.85-73.06-3.94,73.4c0,.11,0,.2,0,.29-.28,5.38-2.24,7.49-4.61,3.14-2.36-4.33-15.77-28.89-15.77-28.89v11.05s21.85,40.88,21.85,40.88l5.76-60.98,23.2,53.73,5.78,11.83c2.56,5.91,7.43,10.26,13.22,12.29,1.67.59,3.4.9,5.19,1.08,1.51.15,3.02.24,4.58.07l8.57-.88-2.92-5.39Z"/>
          <path class="cls-2" d="m137.46,151.43c-.25.01-.89.1-2.18.24-.51.06-.69.08-1.09.12-.48.05-.82.08-1.02.09-1.04.09-1.88.2-2.12.23-.1.01-.2.02-.31.03-.11.01-.22.02-.33.03-.09,0-.17.01-.26.02-.11,0-.22.02-.33.02-4.65.27-8.56-.91-8.56-.91-.5-.15-1.68-.53-3.12-1.22-3.22-1.54-5.96-3.82-8.11-6.63-1.1-1.44-1.99-3.04-2.81-4.69l-5.78-11.83-23.2-53.73s1.47-15.59,1.47-15.59c-.05.52.89,1.77,1.14,2.25.44.87.88,1.75,1.31,2.62.82,1.63,1.63,3.27,2.44,4.91,1.53,3.1,3.05,6.2,4.56,9.31,2.69,5.53,5.34,11.09,7.97,16.65,4.1,8.67,8.1,17.39,12.26,26.03,2.41,5.02,4.85,10.03,7.64,14.86,2.55,4.42,5.38,8.89,9.32,12.2,1.77,1.49,3.78,2.73,5.94,3.56,1.13.43,2.31.76,3.51.94.9.14,2.15.04,3,.35-.06,0-.19.02-.32.03-.09,0-.17.02-.25.03-.05,0-.12.01-.17.02-.04,0-.07,0-.1,0-.02,0-.04,0-.06,0-.04,0-.05,0-.08,0s-.08.01-.11.01c-.05,0-.1.01-.14.01-.05,0-.08,0-.11,0Z"/>
        </g>
      </g>
    </g>
  </g>
</svg>