<?xml version="1.0" encoding="UTF-8"?>
<svg xmlns="http://www.w3.org/2000/svg" xmlns:xlink="http://www.w3.org/1999/xlink" viewBox="0 0 727.99 605.38">
  <defs>
    <style>
      .cls-1 {
        fill: url(#linear-gradient);
      }

      .cls-1, .cls-2, .cls-3, .cls-4, .cls-5 {
        stroke-width: 0px;
      }

      .cls-2 {
        fill: url(#New_Gradient_Swatch_copy_11-2);
      }

      .cls-2, .cls-3 {
        mix-blend-mode: multiply;
      }

      .cls-6 {
        isolation: isolate;
      }

      .cls-3 {
        fill: url(#New_Gradient_Swatch_copy_11);
      }

      .cls-4 {
        fill: #141727;
      }

      .cls-5 {
        fill: #344767;
      }
    </style>
    <linearGradient id="linear-gradient" x1="322.54" y1="335.12" x2="322.69" y2="334.44" gradientTransform="translate(-37.17 67.83) rotate(-15.7)" gradientUnits="userSpaceOnUse">
      <stop offset="0" stop-color="#33383c"/>
      <stop offset="1" stop-color="#60656a"/>
    </linearGradient>
    <linearGradient id="New_Gradient_Swatch_copy_11" data-name="New Gradient Swatch copy 11" x1="282.59" y1="501.22" x2="582.72" y2="135.9" gradientUnits="userSpaceOnUse">
      <stop offset="0" stop-color="#7b728c"/>
      <stop offset="1" stop-color="#e1d8eb" stop-opacity="0"/>
    </linearGradient>
    <linearGradient id="New_Gradient_Swatch_copy_11-2" data-name="New Gradient Swatch copy 11" x1="280.23" y1="548.88" x2="543.94" y2="227.89" gradientTransform="translate(-37.17 67.83) rotate(-15.7)" xlink:href="#New_Gradient_Swatch_copy_11"/>
  </defs>
  <g class="cls-6">
    <g id="Layer_2" data-name="Layer 2">
      <g id="Layer_1-2" data-name="Layer 1">
        <line class="cls-1" x1="364.18" y1="303.11" x2="363.82" y2="302.27"/>
        <g>
          <g>
            <path class="cls-4" d="m588.2,473.7c-.46-.88-.93-1.75-1.39-2.63l-4.4-8.32c-1.97-3.72-3.93-7.44-5.9-11.16-2.2-4.17-4.4-8.33-6.6-12.5-2.17-4.11-4.34-8.23-6.52-12.34-1.88-3.56-3.76-7.12-5.64-10.67-1.32-2.5-2.64-5-3.96-7.51l-1.5-2.84s-8.77-16.61-17.94-33.96c4.74-7.82,10.15-17.85,15.21-29.83,3.62-8.58,15.3-37.65,18.52-80.61,2.22-29.56,6.4-85.17-24.66-144.59-8.12-15.54-29.28-54.83-75.31-84.1-8.56-5.45-42.02-25.83-90.83-31.4-9.45-1.08-50.5-5.13-98.67,11.21-10.92,3.7-29.67,10.2-50.77,24.9-25.89,18.04-40.23,37.86-43.41,42.37-9.47,13.41-28.1,39.79-25.1,72.5.14,1.57.31,2.86.44,3.75,5.27-5.5,13.01-13.46,22.57-22.84,23.34-22.9,46.08-45.15,66.01-59.02,8.71-6.06,57.03-39.68,121.56-33.26,10.06,1,55.79,6.49,95.97,41.67,55.86,48.9,71.54,129.38,55.5,195.11-19.2,78.7-82.2,129.24-128.49,143.86-42.31,13.36-81.79,6.84-81.79,6.84-2.74-.45-11.96-2.17-23.66-5.76-123.84-38.01-143.77-164.25-109.3-238.15,1.75-3.75,3.7-7.38,5.8-10.8-22.17,9.04-39.26,30.78-43,53.76l-.14.96c-8.07,58.14,11.99,117.88,49.57,161.68,45.45,53,122.32,81.89,207.81,70.79,10.94-1.42,33.42-5.14,58.93-17.68,12.13,14.03,27.44,24.65,44.49,30.84,3.28,1.19,6.74,2.2,10.12,3.04,4.74,1.18,9.5,1.71,14.34,2.25,3.05.34,6.48.65,9.56.7,9.05.15,17.48-.88,26.48-1.84,4.51-.48,9.59-.98,14.09-1.54,4.48-.56,8.34-.91,12.77-1.41-.02-.43-.63-1.24-.77-1.49Z"/>
            <path class="cls-5" d="m560.53,457.93c-2.82.3-5.28.52-8.14.87-2.87.34-6.11.65-8.98.95-5.74.59-11.11,1.22-16.88,1.13-1.96-.03-4.15-.22-6.09-.43-3.08-.33-6.12-.66-9.14-1.38-2.16-.52-4.36-1.14-6.45-1.87-17.59-6.16-32.38-19.33-40.15-37.21l-17.55-35.8-70.43-162.64-17.5,184.57-66.3-123.72c-2.53,100.29-80.91,96.04-125.53,19.88,13.93,17.52,61.71,45.59,89.26,29.12.4-.2.76-.4,1.09-.67.86-.52,1.65-1.1,2.44-1.74.04-.01.07-.07.11-.08,11.4-9.37,18.51-30.57,16.2-68.08-4.44-71.1-2.75-100.68-2.75-100.68l81.05,166.75c.01-.28.03-.56.03-.88l11.96-222.18,121.01,221.14,49.39,90.24c.32.58.64,1.16.95,1.74.84,1.54,1.68,3.08,2.53,4.62,1.2,2.19,2.4,4.38,3.59,6.57l4.15,7.59c1.4,2.56,2.81,5.13,4.21,7.69,1.25,2.29,2.51,4.58,3.76,6.87l2.8,5.12c.29.54.59,1.08.88,1.62.09.16.48.65.49.92Z"/>
            <path class="cls-3" d="m551.66,441.62l-63.89-116.74-121.01-221.14-11.96,222.18c0,.32-.01.6-.03.88-.86,16.28-6.79,22.66-14.01,9.51-7.16-13.12-47.88-87.45-47.88-87.45l.03,33.44,66.3,123.72,17.5-184.57,70.43,162.64,17.55,35.8c7.77,17.88,22.56,31.05,40.15,37.21,5.06,1.78,10.34,2.73,15.76,3.27,4.57.45,9.18.73,13.89.23l26.04-2.68-8.87-16.31Z"/>
            <path class="cls-2" d="m556.42,458.36c-.75.04-2.71.3-6.61.74-1.53.17-2.1.25-3.31.37-1.47.15-2.5.23-3.09.28-3.17.27-5.7.6-6.45.69-.31.04-.62.07-.93.1-.34.03-.67.07-1.01.09-.27.02-.53.04-.8.06-.33.02-.67.05-1,.07-14.11.83-26.01-2.76-26.01-2.76-1.52-.46-5.1-1.6-9.47-3.69-9.77-4.67-18.09-11.57-24.61-20.08-3.33-4.34-6.03-9.19-8.54-14.21l-17.55-35.8-70.43-162.64s4.47-47.19,4.47-47.19c-.15,1.57,2.71,5.36,3.45,6.82,1.33,2.64,2.66,5.28,3.99,7.93,2.48,4.95,4.95,9.9,7.41,14.85,4.65,9.37,9.27,18.76,13.86,28.17,8.17,16.75,16.22,33.56,24.2,50.4,12.44,26.25,24.6,52.64,37.24,78.8,7.33,15.19,14.73,30.37,23.19,44.97,7.75,13.37,16.33,26.9,28.29,36.93,5.39,4.51,11.47,8.25,18.05,10.77,3.44,1.32,7.01,2.3,10.66,2.85,2.73.41,6.52.13,9.11,1.05-.2.03-.59.07-.96.1-.28.03-.51.05-.76.08-.16.02-.37.04-.52.06-.11.01-.22.02-.32.03-.06,0-.12.02-.18.02-.12.01-.14.02-.25.02s-.25.03-.34.04c-.16.01-.31.04-.43.04-.14,0-.26.02-.34.03Z"/>
          </g>
          <g>
            <path class="cls-5" d="m101.97,591.1l-.08-49.87-20.91,41.56h-3.8l-20.91-41.26v49.58h-7.93v-68.45h6.78l24.14,48.11,23.81-48.11h6.78l.08,68.45h-7.94Z"/>
            <path class="cls-5" d="m197.19,573.99h-30.75l-6.37,17.11h-8.51l26.2-68.45h8.18l26.28,68.45h-8.68l-6.36-17.11Zm-2.89-7.82l-12.48-33.54-12.48,33.54h24.96Z"/>
            <path class="cls-5" d="m292.57,591.1l-12.48-21.02c-1.54.13-2.76.2-3.64.2h-14.3v20.83h-8.27v-68.45h22.56c7.49,0,13.39,2.12,17.69,6.36,4.3,4.24,6.45,10.07,6.45,17.5,0,5.28-1.1,9.78-3.31,13.49-2.21,3.72-5.34,6.42-9.42,8.12l13.72,22.98h-9.01Zm-4.38-33.15c2.76-2.67,4.13-6.49,4.13-11.44s-1.38-8.75-4.13-11.39c-2.76-2.64-6.75-3.96-11.98-3.96h-14.05v30.8h14.05c5.23,0,9.23-1.33,11.98-4Z"/>
            <path class="cls-4" d="m406.63,597.36c-1.88,2.61-4.05,4.59-6.52,5.97-2.48,1.37-5.16,2.06-8.02,2.06-3.64,0-7.04-1.03-10.21-3.08-3.17-2.05-6.79-5.56-10.87-10.51-5.45-.33-10.37-2.06-14.75-5.18-4.38-3.13-7.8-7.29-10.25-12.46-2.45-5.18-3.68-10.94-3.68-17.26s1.34-12.55,4.01-17.89c2.67-5.35,6.35-9.54,11.03-12.57,4.68-3.03,9.95-4.55,15.79-4.55s11.02,1.52,15.71,4.55c4.68,3.03,8.35,7.2,11,12.51,2.64,5.31,3.96,11.29,3.96,17.94,0,5.61-.94,10.76-2.84,15.45-1.91,4.69-4.58,8.64-8.02,11.83-3.44,3.2-7.4,5.41-11.86,6.65,1.93,2.41,3.79,4.16,5.58,5.23,1.79,1.08,3.62,1.61,5.5,1.61,4.08,0,7.61-1.95,10.58-5.86l3.88,5.57Zm-53.1-27.04c1.96,4.01,4.66,7.16,8.1,9.44,3.44,2.28,7.29,3.42,11.53,3.42s7.99-1.14,11.41-3.42c3.42-2.28,6.1-5.43,8.06-9.44,1.96-4.01,2.94-8.49,2.94-13.45s-.98-9.44-2.94-13.44c-1.96-4.01-4.64-7.16-8.06-9.44-3.42-2.28-7.22-3.43-11.41-3.43s-8.09,1.15-11.53,3.43c-3.44,2.28-6.14,5.43-8.1,9.44-1.96,4-2.93,8.49-2.93,13.44s.98,9.44,2.93,13.45Z"/>
            <path class="cls-5" d="m491.52,582.59v8.5h-41.99v-68.45h40.83v8.51h-32.56v21.02h29.01v8.31h-29.01v22.1h33.72Z"/>
            <path class="cls-5" d="m587.73,522.65v68.45h-6.78l-34.71-51.04v51.04h-8.27v-68.45h6.78l34.71,51.04v-51.04h8.27Z"/>
            <path class="cls-5" d="m649.64,531.16h-19.84v-8.51h47.86v8.51h-19.84v59.94h-8.18v-59.94Z"/>
            <path class="cls-5" d="m719.72,522.65h8.27v68.45h-8.27v-68.45Z"/>
            <g>
              <path class="cls-5" d="m15.25,522.44c-8.41,0-15.25,6.84-15.25,15.25s6.84,15.25,15.25,15.25,15.25-6.84,15.25-15.25-6.84-15.25-15.25-15.25Zm0,28.49c-7.3,0-13.24-5.94-13.24-13.24s5.94-13.24,13.24-13.24,13.24,5.94,13.24,13.24-5.94,13.24-13.24,13.24Z"/>
              <g>
                <path class="cls-5" d="m14.37,542.34c-.55.27-1.64.55-3.05.55-3.26,0-5.71-2.06-5.71-5.84s2.45-6.06,6.03-6.06c1.44,0,2.35.31,2.74.51l-.36,1.22c-.57-.27-1.37-.48-2.33-.48-2.71,0-4.51,1.73-4.51,4.76,0,2.83,1.63,4.64,4.44,4.64.91,0,1.83-.19,2.43-.48l.31,1.18Z"/>
                <path class="cls-5" d="m18.18,539.08l-1.2,3.63h-1.54l3.92-11.55h1.8l3.94,11.55h-1.59l-1.23-3.63h-4.09Zm3.79-1.17l-1.13-3.32c-.26-.75-.43-1.44-.6-2.11h-.03c-.17.69-.36,1.39-.58,2.09l-1.13,3.34h3.48Z"/>
              </g>
            </g>
          </g>
        </g>
      </g>
    </g>
  </g>
</svg>