<?xml version="1.0" encoding="UTF-8"?>
<svg xmlns="http://www.w3.org/2000/svg" viewBox="0 0 750 500">
  <defs>
    <style>
      .cls-1, .cls-2, .cls-3, .cls-4, .cls-5, .cls-6, .cls-7 {
        stroke-miterlimit: 10;
      }

      .cls-1, .cls-2, .cls-5, .cls-6, .cls-7 {
        stroke: #263238;
      }

      .cls-1, .cls-8, .cls-9 {
        fill: #fff;
      }

      .cls-10, .cls-9 {
        opacity: .7;
      }

      .cls-11 {
        opacity: .5;
      }

      .cls-2, .cls-12 {
        fill: #263238;
      }

      .cls-3, .cls-4 {
        stroke: #fff;
      }

      .cls-3, .cls-4, .cls-5 {
        fill: none;
      }

      .cls-13, .cls-14, .cls-15, .cls-8, .cls-16, .cls-12, .cls-9, .cls-17, .cls-18, .cls-19 {
        stroke-width: 0px;
      }

      .cls-13, .cls-7 {
        fill: #dd4b39;
      }

      .cls-14 {
        fill: #272525;
      }

      .cls-15 {
        fill: #37474f;
      }

      .cls-4 {
        stroke-width: 3px;
      }

      .cls-16 {
        fill: #a0352b;
      }

      .cls-6 {
        fill: #a8a8a8;
      }

      .cls-17 {
        fill: #404040;
      }

      .cls-18 {
        fill: #455a64;
      }

      .cls-19 {
        opacity: .13;
      }
    </style>
  </defs>
  <g id="Background_Simple" data-name="Background Simple">
    <g>
      <path class="cls-13" d="m67.19,408.57c-4.49-30.79-6.29-63.71,3.35-93.75,10.16-31.65,38.2-54.21,69.06-64.28,6.85-2.24,13.04-5.27,18.76-9.67,49.24-37.87,59.54-104.7,108.33-142.28,28.51-21.96,63.44-35.49,99.06-39.93,37.13-4.63,75.46,1.06,109.72,16.09,30.27,13.28,52.48,45.39,62.53,76.13,13.51,41.32,10.57,83.5,15.68,126.02,3.83,31.89,34.62,30.23,57.56,41.63,38.92,19.34,65.48,56.83,81.29,96.34.95,2.38,15.22,53.22,10.99,53.22H90.7s-18.37-24.25-23.51-59.52Z"/>
      <path class="cls-9" d="m67.19,408.57c-4.49-30.79-6.29-63.71,3.35-93.75,10.16-31.65,38.2-54.21,69.06-64.28,6.85-2.24,13.04-5.27,18.76-9.67,49.24-37.87,59.54-104.7,108.33-142.28,28.51-21.96,63.44-35.49,99.06-39.93,37.13-4.63,75.46,1.06,109.72,16.09,30.27,13.28,52.48,45.39,62.53,76.13,13.51,41.32,10.57,83.5,15.68,126.02,3.83,31.89,34.62,30.23,57.56,41.63,38.92,19.34,65.48,56.83,81.29,96.34.95,2.38,15.22,53.22,10.99,53.22H90.7s-18.37-24.25-23.51-59.52Z"/>
    </g>
  </g>
  <g id="Smoke">
    <g>
      <path class="cls-19" d="m55.98,468.38s.69-34.32,22.65-43.92c21.96-9.61,26.77,9.61,32.26,15.79,5.49,6.18,2.75,13.04,20.59-.69,17.84-13.73,23.33-6.86,29.51.69,6.18,7.55,10.98,12.35,18.53,7.55,7.55-4.8,12.16-4.15,17.16,2.06,5,6.21,15.79,10.98,26.08,6.86,10.29-4.12,17.16-4.8,22.65,0,5.49,4.8,12.35,8.24,19.22,4.8,6.86-3.43,13.04.69,15.79,2.06,2.75,1.37,11.67,4.8,11.67,4.8H55.98Z"/>
      <path class="cls-19" d="m669.7,468.38s-.69-34.32-22.65-43.92c-21.96-9.61-26.77,9.61-32.26,15.79-5.49,6.18-2.75,13.04-20.59-.69-17.84-13.73-23.33-6.86-29.51.69-6.18,7.55-10.98,12.35-18.53,7.55-7.55-4.8-12.16-4.15-17.16,2.06-5,6.21-15.79,10.98-26.08,6.86-10.29-4.12-17.16-4.8-22.65,0-5.49,4.8-12.35,8.24-19.22,4.8s-13.04.69-15.79,2.06c-2.75,1.37-11.67,4.8-11.67,4.8h236.09Z"/>
    </g>
  </g>
  <g id="Rocket">
    <g>
      <g>
        <path class="cls-13" d="m320.94,247.46c0-8.06-5.29-14.6-11.83-14.6s-11.83,6.54-11.83,14.6c0,5.85,2.79,10.87,6.81,13.21l5.29,34.65,4.77-34.67c4-2.34,6.78-7.36,6.78-13.19Z"/>
        <ellipse class="cls-8" cx="309.27" cy="243.44" rx="3.05" ry="10.26"/>
        <path class="cls-13" d="m428.85,247.46c0-8.06-5.29-14.6-11.83-14.6s-11.83,6.54-11.83,14.6c0,5.85,2.79,10.87,6.81,13.21l5.29,34.65,4.77-34.67c4-2.34,6.78-7.36,6.78-13.19Z"/>
        <ellipse class="cls-8" cx="417.35" cy="243.44" rx="3.05" ry="10.26"/>
        <path class="cls-13" d="m384.87,252.94c0-14.36-9.43-26-21.06-26s-21.06,11.64-21.06,26c0,10.41,4.97,19.37,12.13,23.52l9.43,61.72,8.49-61.75c7.13-4.17,12.08-13.1,12.08-23.49Z"/>
        <ellipse class="cls-8" cx="363.81" cy="245.01" rx="6.98" ry="16.53"/>
        <g>
          <polygon class="cls-1" points="378.24 185.25 415.91 196.96 415.91 223.94 374.17 223.94 378.24 185.25"/>
          <polygon class="cls-2" points="393.01 189.84 378.24 185.25 374.17 223.94 386.54 223.94 393.01 189.84"/>
          <g>
            <path class="cls-1" d="m408.99,170.73c.86-2.99,3.6-12.42,7.95-12.97,4.35.56,7.09,9.98,7.95,12.97,2.8,9.74,3.6,19.97,2.41,30.03-.11.89-.22,1.78-.36,2.66,0,.02-4.65,30.7-4.65,30.7h-10.69s-4.65-30.67-4.65-30.7c-.13-.88-.25-1.77-.36-2.66-1.19-10.06-.39-20.3,2.41-30.03Z"/>
            <path class="cls-7" d="m408.4,173.03c.19-.77.38-1.54.6-2.3.86-2.99,3.6-12.42,7.95-12.97,4.35.56,7.09,9.98,7.95,12.97.22.76.4,1.53.6,2.3h-17.09Z"/>
            <path class="cls-7" d="m423.52,225.97c-.7,4.64-1.23,8.15-1.23,8.15h-10.69s-.53-3.51-1.23-8.15h13.16Z"/>
          </g>
          <polygon class="cls-1" points="348.21 185.25 310.54 196.96 310.54 223.94 352.28 223.94 348.21 185.25"/>
          <polygon class="cls-2" points="340.23 223.94 352.28 223.94 348.21 185.25 333.41 189.85 340.23 223.94"/>
          <g>
            <path class="cls-1" d="m392.24,141.49c-.29,2.46-.62,4.93-1,7.39,0,.02-1.14,7.54-2.74,18.1-3.79,25.03-10.17,67.14-10.17,67.14h-29.7s-6.18-40.78-9.99-65.93c-1.7-11.2-2.92-19.29-2.93-19.31-.37-2.46-.7-4.93-.99-7.39-2.74-23.14-1.69-46.61,3.17-69.35,1.01-4.72,2.18-9.41,3.52-14.06,2.39-8.31,10-34.48,22.07-36.03,12.07,1.55,19.68,27.72,22.07,36.03,1.43,4.96,2.67,9.97,3.72,15.01,4.69,22.44,5.67,45.58,2.97,68.4Z"/>
            <path class="cls-7" d="m381.01,44.24c-3.87-10.05-9.78-21.2-17.53-22.19-7.75,1-13.66,12.14-17.53,22.19h35.06Z"/>
            <path class="cls-7" d="m346.78,221.9c1.12,7.37,1.85,12.22,1.85,12.22h29.7s.73-4.85,1.85-12.22h-33.4Z"/>
          </g>
          <g>
            <path class="cls-1" d="m317.46,170.73c-.86-2.99-3.6-12.42-7.95-12.97-4.35.56-7.09,9.98-7.95,12.97-2.8,9.74-3.6,19.97-2.41,30.03.11.89.22,1.78.36,2.66,0,.02,4.65,30.7,4.65,30.7h10.69s4.65-30.67,4.65-30.7c.13-.88.25-1.77.36-2.66,1.19-10.06.39-20.3-2.41-30.03Z"/>
            <path class="cls-7" d="m318.05,173.03c-.19-.77-.38-1.54-.6-2.3-.86-2.99-3.6-12.42-7.95-12.97-4.35.56-7.09,9.98-7.95,12.97-.22.76-.4,1.53-.6,2.3h17.09Z"/>
            <path class="cls-7" d="m302.93,225.97c.7,4.64,1.23,8.15,1.23,8.15h10.69s.53-3.51,1.23-8.15h-13.16Z"/>
          </g>
        </g>
      </g>
      <g>
        <line class="cls-5" x1="330.28" y1="220.23" x2="330.28" y2="251.95"/>
        <line class="cls-5" x1="330.28" y1="259" x2="330.28" y2="266.05"/>
      </g>
      <g>
        <line class="cls-5" x1="392.32" y1="222.34" x2="392.32" y2="285.09"/>
        <line class="cls-5" x1="392.32" y1="291.43" x2="392.32" y2="298.48"/>
      </g>
      <line class="cls-5" x1="400.31" y1="218.11" x2="400.31" y2="230.91"/>
      <line class="cls-5" x1="323.17" y1="220.53" x2="323.17" y2="228.83"/>
    </g>
  </g>
  <g id="Box">
    <g>
      <polygon class="cls-1" points="280.96 312.33 260.54 373.65 465.6 373.65 445.36 312.33 280.96 312.33"/>
      <rect class="cls-1" x="280.96" y="312.33" width="164.4" height="155.75"/>
      <rect class="cls-2" x="280.96" y="312.33" width="164.4" height="62.86"/>
      <polygon class="cls-1" points="280.96 312.33 271.73 370.27 454.41 370.27 445.36 312.33 280.96 312.33"/>
    </g>
  </g>
  <g id="Text">
    <g>
      <g>
        <path class="cls-12" d="m362.13,387.33c-.26-1.99-.3-4-.11-6,.27,1.99.3,4,.11,6h0Z"/>
        <path class="cls-12" d="m348.43,391.15c-1.23-1.6-2.26-3.31-3.1-5.14,1.23,1.59,2.26,3.31,3.1,5.14h0Z"/>
        <path class="cls-12" d="m338.47,401.32c-1.86-.77-3.61-1.74-5.25-2.9,1.86.77,3.61,1.74,5.25,2.9h0Z"/>
        <path class="cls-12" d="m334.93,415.09c-1.99.26-4,.3-6,.11,1.99-.27,4-.3,6-.11h0Z"/>
        <path class="cls-12" d="m338.76,428.79c-1.6,1.23-3.31,2.26-5.14,3.1,1.59-1.23,3.31-2.26,5.14-3.1h0Z"/>
        <path class="cls-12" d="m386.35,428.3c1.86.77,3.61,1.74,5.25,2.9-1.86-.77-3.61-1.74-5.25-2.9h0Z"/>
        <path class="cls-12" d="m389.89,414.53c1.99-.26,4-.3,6-.11-1.99.27-4,.3-6,.11h0Z"/>
        <path class="cls-12" d="m386.07,400.82c1.6-1.23,3.31-2.26,5.14-3.1-1.59,1.23-3.31,2.26-5.14,3.1h0Z"/>
        <path class="cls-12" d="m375.9,390.87c.77-1.86,1.74-3.61,2.9-5.25-.77,1.86-1.74,3.61-2.9,5.25h0Z"/>
      </g>
      <g>
        <g class="cls-11">
          <path class="cls-13" d="m386.67,416.59c-1.2,15.06-13.75,19.61-13.75,19.61-.92,2.29-2.13,8.11-2.13,8.11h-16.75s-1.2-5.82-2.13-8.11c0,0-12.55-4.54-13.75-19.61-.84-10.47,6.62-25.94,24.16-25.94h.18c17.55,0,25,15.48,24.16,25.94Z"/>
        </g>
        <g class="cls-10">
          <path class="cls-13" d="m384.6,416.67c-1.1,13.78-12.58,17.93-12.58,17.93-.84,2.09-1.94,9.71-1.94,9.71h-15.32s-1.1-7.62-1.94-9.71c0,0-11.48-4.15-12.58-17.93-.76-9.57,6.05-23.73,22.1-23.73h.17c16.05,0,22.87,14.16,22.1,23.73Z"/>
        </g>
        <g>
          <line class="cls-4" x1="358.34" y1="445.74" x2="353.41" y2="419.36"/>
          <line class="cls-4" x1="366.49" y1="445.74" x2="371.41" y2="419.36"/>
          <path class="cls-3" d="m353.83,420.37s.98,5.17,3.31,5.16c2.34,0,4.53-7.7,1.46-7.7-3.07,0-.1,10.09,3.8,10.09,3.9,0,6.14-10.09,3.41-10.09-2.73,0-1.87,8.04,1.89,8.04,2.01,0,3.45-5.18,3.45-5.18"/>
        </g>
        <g>
          <rect class="cls-18" x="351.92" y="444.34" width="20.99" height="11.55"/>
          <g>
            <path class="cls-18" d="m370.53,455.89c-1.23,2.19-3.6,4.15-8.11,4.15s-6.88-1.96-8.11-4.15h16.23Z"/>
            <path class="cls-15" d="m370.52,455.89c-.35.63-.8,1.23-1.36,1.78l-14.45-1.11c-.15-.22-.29-.44-.42-.67h16.23Z"/>
          </g>
          <g>
            <polygon class="cls-15" points="373.52 446.54 351.3 448.59 351.3 447.58 373.52 445.53 373.52 446.54"/>
            <polygon class="cls-15" points="373.52 449.59 351.3 451.64 351.3 450.63 373.52 448.58 373.52 449.59"/>
            <polygon class="cls-15" points="373.52 452.64 351.3 454.69 351.3 453.68 373.52 451.63 373.52 452.64"/>
          </g>
        </g>
        <g class="cls-11">
          <path class="cls-8" d="m343.44,413.07c.77.13,1.77-3.84,6.04-8.44,1.9-2.04,9.09-4.6,8.57-6.95-.52-2.36-6.94.07-10.17,3.81-5.2,6.02-5.15,11.47-4.44,11.58Z"/>
          <path class="cls-8" d="m381.3,413.9c1.42,0,1.42-2.2,0-2.2s-1.42,2.2,0,2.2Z"/>
          <path class="cls-8" d="m374.38,430.44c.77.59,4.53-2.88,6.22-7.01,1.41-3.43,1.65-7.77.7-8.02-.95-.25-1.56,5.7-2.69,7.89-1.43,2.77-5.06,6.51-4.23,7.14Z"/>
        </g>
      </g>
    </g>
  </g>
  <g id="Character_3" data-name="Character 3">
    <g>
      <g>
        <path class="cls-6" d="m689.44,289.83s-2.02,5.7-5.88,11.95c-3.86,6.25-9.01,18.94-9.01,18.94l-.55-11.95,5.88-22.8,9.56,3.86Z"/>
        <path class="cls-7" d="m677.45,295.37c1.57.58,4.16,1.38,6.29,1.26.97-.05,2.02-.32,3.02-.66,1.76-3.58,2.68-6.15,2.68-6.15l-9.56-3.86-2.43,9.4Z"/>
      </g>
      <path class="cls-7" d="m690.91,235.22s1.1,4.78.92,12.69c-.18,7.91.92,21.33,1.29,28.5.37,7.17,1.84,10.66-1.47,13.61-3.31,2.94-6.25,3.68-9.38,3.31-3.13-.37-5.33-1.65-5.33-2.76s2.39-18.2,4.04-31.26c1.65-13.05,3.68-16.55,5.15-18.75,1.47-2.21,3.86-5.33,4.78-5.33Z"/>
      <path class="cls-2" d="m619.85,309.58s-3.92,9.65-2.44,16.14c1.48,6.5,5.02,17.13,5.02,17.13l8.27,96.48s-1.77,4.43-1.18,6.79c.59,2.36.89,7.09.89,7.09,0,0-9.15,8.27-11.52,10.33-2.36,2.07-.89,4.13-.89,4.13h26.28s1.77-.59,1.77-3.54-.59-8.27-.59-8.27c0,0,2.07-5.31,2.36-8.27.3-2.95,1.18-3.25,0-9.74-1.18-6.5,1.48-98.55,1.48-98.55l13.29,97.37s-2.95,5.02-1.77,6.79c1.18,1.77,4.43,12.99,4.43,12.99,0,0-7.38,9.15-7.09,10.33.3,1.18,23.62,0,23.62,0,0,0,1.18,0,.59-5.02-.59-5.02-1.18-6.5-1.18-7.38s1.18-8.27.59-10.92c-.59-2.66-.59.59-1.77-7.97-1.18-8.56-5.61-103.86-5.61-105.04,0,0,2.68-16.02,2.66-20.37-.02-4.35-1.86-7.3-1.86-7.3,0,0-22.05,4.05-29.14,2.28-7.09-1.77-18.31-3.25-18.31-3.25l-7.9,7.77Z"/>
      <path class="cls-7" d="m643.2,220.59s-13.97,7.54-13.42,10.3c.55,2.76-1.1,62.88-2.02,68.21-.92,5.33,10.31,22.11,18.58,24.87,8.27,2.76,12.17.61,16.43-1.83,4.36-2.49,12.79-12.01,14.26-16.42,1.47-4.41,1.84-9.01,1.84-12.5s2.57-3.68,3.68-20.41c1.1-16.73,6.25-29.78,6.25-32.17s5.52-6.62,3.31-11.4c-2.21-4.78-2.39-4.78-10.11-7.17-7.72-2.39-20.59-7.54-38.79-1.47Z"/>
      <g>
        <path class="cls-5" d="m669.9,303.28c-16.7,9.89-35.7-1.79-35.7-1.79"/>
        <path class="cls-5" d="m676.85,297.63c-1.33,1.42-2.7,2.66-4.09,3.72"/>
        <path class="cls-5" d="m658.65,274.97c-1.02,1.86-2.13,3.57-3.31,5.01"/>
        <path class="cls-5" d="m667.29,250.01s-2.35,11.46-6.75,21.17"/>
      </g>
      <g>
        <path class="cls-6" d="m645.41,171.87s-2.76,4.96-2.94,7.35c-.18,2.39-.55,5.52-2.39,6.25-1.84.74-4.78,1.84-4.41,4.04.37,2.21,1.84,3.68,1.84,3.68,0,0,1.47,12.13,4.04,12.87,2.57.74,8.09,0,8.09,0l-.37,11.95,18.57-4.96s-.92-5.88,0-9.19c.92-3.31,2.39-6.62,3.13-7.35s3.68-5.33-2.21-14.71c-5.88-9.38-19.86-13.42-23.35-9.93Z"/>
        <path class="cls-12" d="m643.89,184.26c-.35.95-.95,1.61-1.33,1.47s-.4-1.03-.05-1.98.95-1.61,1.33-1.47c.38.14.4,1.03.05,1.98Z"/>
        <path class="cls-5" d="m643.75,180.14s1.65-.74,1.29,1.65"/>
        <path class="cls-5" d="m638.79,196.14s2.21.55,3.13-1.1"/>
      </g>
      <path class="cls-2" d="m651.11,161.02s-4.04-3.68-6.43,7.72c-2.39,11.4,4.96,14.89,4.96,16s-1.29,1.84-.37,3.49c.92,1.65,2.57,1.65,3.13,1.47.55-.18.55,8.27,5.52,11.77s16.91-1.1,21.14-6.07c4.23-4.96,6.99-16.18,3.13-25.74-3.86-9.56-22.43-16.18-31.07-8.64Z"/>
      <path class="cls-6" d="m650.19,191.91s.74-4.04,1.84-4.6c1.1-.55,3.31-.55,2.21,2.94-1.1,3.49-2.21,7.54-4.23,7.35-2.02-.18-.92-3.49-.92-3.49"/>
      <path class="cls-7" d="m682,222.06s0-3.13-2.02-4.41c-2.02-1.29-5.33-2.76-9.19-4.78-3.86-2.02-9.38-1.29-15.08.18-5.7,1.47-13.61,6.43-14.34,7.17l-.74.74s9.01,1.65,10.85,3.68c1.84,2.02,7.54,9.01,14.71,10.3s15.81-12.87,15.81-12.87Z"/>
      <g>
        <path class="cls-6" d="m626.66,288.99s-5.88,16.91-6.8,20.59c-.92,3.68-2.21,7.35-1.84,8.46.37,1.1.92,2.76,1.47,2.39s4.23-6.07,4.23-6.07c0,0,8.46-10.11,11.22-14.52,2.76-4.41,5.33-8.09,6.8-12.69,1.47-4.6-15.08,1.84-15.08,1.84Z"/>
        <path class="cls-7" d="m626.66,288.99s-.58,1.67-1.41,4.07c1.75,1.03,5.28,2.54,10.97,2.54.49,0,.95-.01,1.39-.03,1.68-2.73,3.15-5.37,4.12-8.43,1.47-4.6-15.08,1.84-15.08,1.84Z"/>
        <path class="cls-7" d="m636.95,224.09s-10.3,5.33-10.66,7.91c-.37,2.57-1.84,53.5-1.84,56.08s10.66,4.78,15.08,3.13c4.41-1.65,4.96-11.22,4.41-16.55-.55-5.33-5.52-38.61-5.52-38.61"/>
      </g>
    </g>
  </g>
  <g id="Character_2" data-name="Character 2">
    <g>
      <g>
        <path class="cls-1" d="m548.37,164.27s-.78,5.49-1.76,7.25c-.98,1.76-5.29,3.53-4.7,5.29s3.92,4.11,3.92,4.11c0,0-1.37,10.97.39,12.74,1.76,1.76,6.27,2.35,6.27,2.35l.78,4.51,17.63-.39,3.33-8.42s-7.25-2.74-9.01-5.09c-1.76-2.35-4.31-22.34-9.01-24.3s-7.84,1.96-7.84,1.96Z"/>
        <path class="cls-2" d="m561.3,148.99s-2.94-.59-6.66-2.94c-3.72-2.35-9.6,6.47-9.4,14.3.2,7.84,4.31,7.25,5.68,7.64,1.37.39,0,5.88.98,6.86.98.98.78,3.13,2.16,3.53,1.37.39,3.72,13.71,5.68,14.69,1.96.98,12.34,2.94,14.3,1.18,1.96-1.76,6.47-9.99,6.47-9.99,0,0,8.23-12.54,4.7-24.88-3.53-12.34-18.81-13.32-23.9-10.38Z"/>
        <path class="cls-1" d="m552.48,180.73s1.18-5.68,3.33-4.9c2.16.78,1.18,6.07-.39,8.82-1.57,2.74-3.33.39-3.33.39"/>
      </g>
      <path class="cls-1" d="m575.6,197.58s-12.15-1.37-17.24-1.18c-5.09.2-12.34,6.27-12.34,6.27,0,0,19.98-.59,23.9.2,3.92.78,9.99,2.55,9.99,2.55l-4.31-7.84Z"/>
      <path class="cls-1" d="m518.98,199.74l-8.82-2.35s-28.21-33.7-29.59-35.46-4.7-4.31-7.64-6.86c-2.94-2.55-6.47-4.11-6.07-2.16.39,1.96,4.7,5.68,4.7,5.68,0,0-5.09,3.13-6.07,3.53-.98.39-.2,1.57.39,2.94.59,1.37.2,4.51,1.76,4.9,1.57.39,2.16-1.96,2.16-1.96,0,0,2.94,2.94,6.27,3.72l3.33.78s18.81,37.03,21.75,38.79,19.59,6.07,19.59,6.07l-1.76-17.63Z"/>
      <g>
        <path class="cls-1" d="m603.42,249.31s2.69,17.38,3.07,30.46c.18,6.07-3.6,40.9-3.6,40.9,0,0,.2,3.92-.59,7.25-.78,3.33-4.11,7.84-6.07,8.82-1.96.98-5.29.2-4.11-1.57s1.96-.98,2.35-2.94c.39-1.96,0-6.07,0-6.07,0,0-.78,3.33-1.57,3.53-.78.2-1.37-.39-.98-2.55.39-2.16-.2-6.66.78-8.62.98-1.96,3.72-2.55,3.72-4.11s1.64-10.72-1.3-21.11c-2.94-10.38-4.64-32.81-4.64-33.79s-.78-7.84-.78-7.84l13.71-2.35Z"/>
        <path class="cls-1" d="m598.2,319.49s-.98,4.7-.78,6.66c.2,1.96.59,5.09-1.57,6.86"/>
      </g>
      <path class="cls-1" d="m541.28,452.41s-8.62,7.64-11.56,9.6c-2.94,1.96-5.49,3.13-4.51,4.11s21.55,1.37,26.45,1.37,4.9-2.55,5.09-4.9c.2-2.35-.78-5.29-.78-5.29l-14.69-4.9Z"/>
      <path class="cls-1" d="m584.58,453s-.59,10.97,1.76,12.74,11.95,1.76,12.93.39-2.16-12.54-2.16-12.54l-12.54-.59Z"/>
      <path class="cls-2" d="m533.28,272.43s-1.96,33.31-1.96,54.47,8.78,101.61,8.98,106.7c.2,5.09.98,12.54.98,12.54,0,0-1.37,1.76-1.37,2.55v5.68c0,.59.78,1.57,6.47,4.51,5.68,2.94,10.58,1.37,10.58,1.37l-.78-20.38.82-115.91,1.18-2.55s17.4,92.6,18.97,98.28c1.57,5.68,6.27,27.04,6.27,27.04,0,0-.59,1.37-.39,2.74.2,1.37,1.57,6.47,1.57,6.47,0,0,.98.98,3.92,1.37,2.94.39,9.21-1.18,9.21-1.18,0,0,.2-3.92,0-6.86-.2-2.94-1.76-1.96-1.96-9.21-.2-7.25-2.16-37.23-3.53-49.18-1.37-11.95-6.04-64.58-6.04-64.58l-1.37-47.41s-8.82,4.9-25.67,2.35c-16.85-2.55-25.86-8.82-25.86-8.82Z"/>
      <g>
        <path class="cls-7" d="m548.96,202.09s-7.25-.98-15.28-2.16c-8.03-1.18-18.61-1.18-18.61-1.18l2.94,22.34,13.13,6.07s-.27,68.42-.08,70.96c.2,2.55,12.92,5.71,24.48,6.69,11.56.98,24.3-1.37,25.86-2.55,1.57-1.18,6.94-2.58,6.94-4.14s.03-34.47.03-34.47l22.53-3.53s-7.48-38.26-10.41-41.59c-2.94-3.33-21.75-13.52-21.75-13.52,0,0-19.98-6.86-29.78-2.94Z"/>
        <g>
          <path class="cls-5" d="m547.92,246.49c-1.77,1.7-3.55,3.28-5.28,4.65"/>
          <path class="cls-5" d="m569.02,221.54s-8.88,12.51-18.64,22.51"/>
          <path class="cls-5" d="m575.46,224.11s-10.3,10.94-12.23,13.52"/>
        </g>
        <line class="cls-1" x1="588.58" y1="255.49" x2="591.28" y2="229.32"/>
        <line class="cls-1" x1="587.95" y1="261.62" x2="588.24" y2="258.86"/>
      </g>
    </g>
  </g>
  <g id="Character_1" data-name="Character 1">
    <g>
      <g>
        <path class="cls-1" d="m146.63,193.56s1.2,4.12,2.58,5.33,4.12.34,4.98,1.89-.52,5.16-.52,5.16c0,0,.17,9.11.34,11s-3.09,2.92-4.3,3.09-6.36,1.37-6.36,1.37l.69,10.31-15.64-.86s1.55-8.59,1.2-12.2-2.92-5.84-3.09-9.97,13.23-17.7,20.11-15.12Z"/>
        <path class="cls-2" d="m116.9,190.81s7.05-5.33,9.62-7.05,17.01-1.72,20.11-1.2,2.75,5.84,1.89,9.11-4.47,9.28-4.47,9.28c0,0-.17,1.03-1.2,3.27s-3.44,2.92-3.44,2.92c0,0-2.75,9.97-5.5,12.37-2.75,2.41-4.98,2.92-5.67,2.75s-10.48-9.28-15.29-18.04,3.95-13.4,3.95-13.4Z"/>
        <path class="cls-1" d="m140.44,208.17s-3.27-4.81-5.16-3.44-1.72,3.61.86,7.05c2.58,3.44,4.98.52,4.98.52"/>
        <path class="cls-2" d="m118.79,191.5s-5.67-3.95-13.23-2.23c-7.56,1.72-13.58,8.25-12.37,18.22,1.2,9.97,4.47,14.26,4.47,14.26,0,0,4.3,0,10.31-.86s9.97-2.41,9.97-2.41c0,0-8.94-18.39.86-26.98Z"/>
      </g>
      <path class="cls-1" d="m206.88,329.73s3.01,1.36,2.75,1.74c-.26.39-1.93.13-3.34-.13-1.41-.26-4.74-1.99-4.74-1.99l5.33.38Z"/>
      <path class="cls-1" d="m201.47,329.71s2.73,1.85,2.41,2.19-1.92-.21-3.27-.7-4.33-2.78-4.33-2.78l5.18,1.3Z"/>
      <path class="cls-5" d="m82.57,328s-5.54,1.13-6.42,2.01c-.88.88-2.21,6.19-.98,5.43,1.23-.77,2.87-2.28,4.51-3.92,1.64-1.64,4.53-2.52,2.9-3.53Z"/>
      <path class="cls-1" d="m147.11,233.42s-9.52-4.95-14.85-4.95-20.18,8.37-23.22,10.85c-3.05,2.47-3.43,3.81-3.43,3.81l-5.9,42.26s-3.24,6.47-3.81,13.51c-.57,7.04-7.42,25.51-7.42,25.51,0,0-5.52,3.81-7.99,4.95-2.47,1.14-4.95,4.19-5.33,6.09-.38,1.9,1.9.57,2.86-.19.95-.76,3.43-1.9,7.61-2.66,4.19-.76,5.71-.95,7.23-4.19s1.71-3.24,2.47-5.33c.76-2.09,10.66-23.79,12.56-27.79,1.9-4,3.05-11.42,4.19-13.13,1.14-1.71,4-13.51,4-13.51,0,0,2.28,14.85,2.47,16.37.19,1.52-13.7,24.74-11.42,37.88s9.71,56.72,9.71,58.62-1.71,20.94-.38,28.36c1.33,7.42,2.28,48.94,2.28,48.94,0,0-.95,7.99-.38,8.18.57.19,2.47.76,4.38.38,1.9-.38,12.75-.57,14.28-.76,1.52-.19-.19-3.05-2.47-4-2.28-.95-6.47-6.28-6.85-7.23-.38-.95,2.86-34.47,4-47.61,1.14-13.13,2.66-33.5,2.47-38.64s-1.9-36.16-1.9-36.16l26.27,50.44s.38,7.23,3.81,15.61,19.8,59.41,20.56,60.74c.76,1.33,0,3.81.57,5.33.57,1.52,0,2.66,1.14,2.86,1.14.19,27.22,0,27.22,0,0,0,.95-1.71-.57-2.66-1.52-.95-8.57-4.76-12.18-6.85-3.62-2.09-7.23-3.24-8.57-7.04-1.33-3.81-11.99-67.21-13.51-71.78-1.52-4.57-17.89-64.91-17.89-64.91,0,0,.38-11.61-.38-17.32-.76-5.71-1.71-11.04-1.71-11.8s.57-17.13.57-17.13l7.23,20.18s.38,3.43,2.66,7.99c2.28,4.57,20.75,33.88,21.32,34.45s2.09,1.33,5.14.57,7.04-2.28,7.61-2.28,3.05.76,5.33.38c2.28-.38,4.38-.95,3.05-1.14-1.33-.19-4.38-.57-4.38-.57,0,0-4.04-2.27-6.7-2.84s-7,.55-7,.55c0,0-6.28-16.94-8.95-23.6-2.66-6.66-5.9-17.32-6.47-17.89-.57-.57-8.76-26.08-9.9-30.45-1.14-4.38-2.47-10.85-3.62-12.94-1.14-2.09-15.8-7.42-15.8-7.42Z"/>
      <path class="cls-2" d="m190.51,451.38c-1.33-3.81-11.99-67.21-13.51-71.78-1.52-4.57-17.89-64.91-17.89-64.91,0,0,.08-2.34.09-5.44-2.03.52-7.15,1.47-18.98,2.08-12.45.64-24.98-2.75-30.81-4.62-1.87,5.72-3.06,11.56-2.26,16.16,2.28,13.13,9.71,56.72,9.71,58.62s-1.71,20.94-.38,28.36c1.33,7.42,2.28,48.94,2.28,48.94,0,0-.27,2.24-.43,4.38,3.45.32,8-.06,9.45-2.84.81-1.56,1.03-2.64.98-3.38-.55-.73-.95-1.32-1.05-1.58-.38-.95,2.86-34.47,4-47.61,1.14-13.13,2.66-33.5,2.47-38.64s-1.9-36.16-1.9-36.16l26.27,50.44s.38,7.23,3.81,15.61c3.43,8.38,19.8,59.41,20.56,60.74.24.43.32.97.35,1.57.22.05.44.07.63.07,1.58,0,3.86-1.23,6.14-2.81,1.39-.96,2.45-2.57,3.07-3.69-1.12-.9-2.04-1.99-2.57-3.52Z"/>
      <line class="cls-5" x1="132.27" y1="332.97" x2="120.99" y2="327.47"/>
      <path class="cls-7" d="m158.72,297.38c-.76-5.71-1.71-11.04-1.71-11.8s.57-17.13.57-17.13l5.67,15.82c3.32-.81,9.43-2.33,11.97-3.16-2.45-7.06-7.79-23.84-8.7-27.32-1.14-4.38-2.47-10.85-3.62-12.94-1.14-2.09-15.8-7.42-15.8-7.42,0,0-9.52-4.95-14.85-4.95s-20.18,8.37-23.22,10.85c-3.05,2.47-3.43,3.81-3.43,3.81l-5.4,38.67,11.07,2.34c.27-.89.54-1.6.8-1.99,1.14-1.71,4-13.51,4-13.51,0,0,2.28,14.85,2.47,16.37.13,1.06-6.59,12.69-9.89,24.08,4.26,2.75,14.03,7.58,29.3,6.75,10.95-.59,17.44-1.75,21.17-2.72.07-3.36.17-11.31-.42-15.74Z"/>
      <g>
        <line class="cls-5" x1="116.09" y1="268.64" x2="110.38" y2="248.65"/>
        <line class="cls-5" x1="157.58" y1="268.45" x2="150.73" y2="253.03"/>
        <path class="cls-5" d="m140.23,268.74c1.03.64,1.96,1.14,2.7,1.41"/>
        <path class="cls-5" d="m126.75,258.36s4.46,3.88,8.94,7.23"/>
        <line class="cls-5" x1="135.12" y1="269.21" x2="142.55" y2="273.58"/>
      </g>
    </g>
  </g>
  <g id="Floor">
    <line class="cls-5" x1="52.57" y1="468.09" x2="720.76" y2="468.09"/>
    <path class="cls-16" d="m379.57,106.61c-.03-.07-.06-.14-.09-.21l-.28-.67c-.12-.3-.25-.6-.37-.9-.14-.33-.28-.67-.42-1-.14-.33-.27-.66-.41-.99-.12-.29-.24-.57-.35-.86-.08-.2-.17-.4-.25-.6l-.09-.23s-.55-1.33-1.13-2.73c.42-.56.91-1.29,1.38-2.17.34-.63,1.44-2.77,2-6.04.38-2.25,1.1-6.47-.85-11.25-.51-1.25-1.85-4.41-5.16-6.98-.62-.48-3.03-2.28-6.73-3.06-.72-.15-3.83-.76-7.63.15-.86.2-2.34.57-4.07,1.54-2.11,1.19-3.35,2.61-3.63,2.93-.82.96-2.44,2.84-2.44,5.37,0,.12,0,.22,0,.29.44-.38,1.09-.94,1.89-1.59,1.95-1.58,3.85-3.12,5.48-4.04.71-.4,4.65-2.63,9.54-1.67.76.15,4.22.9,7.05,3.88,3.92,4.15,4.54,10.42,2.84,15.33-2.04,5.89-7.22,9.3-10.87,10.09-3.33.72-6.31-.07-6.31-.07-.21-.05-.9-.25-1.77-.61-9.21-3.8-9.82-13.61-6.65-19.02.16-.27.34-.54.52-.79-1.76.53-3.23,2.07-3.68,3.81l-.02.07c-1.04,4.39.07,9.11,2.63,12.73,3.1,4.38,8.77,7.15,15.4,6.92.85-.03,2.6-.15,4.64-.93.83,1.16,1.92,2.08,3.18,2.68.24.11.5.22.75.31.35.12.72.2,1.08.28.23.05.49.1.73.12.69.08,1.34.06,2.04.05.35,0,.74,0,1.09-.02.35-.01.65,0,.99-.02,0-.03-.04-.1-.05-.12Z"/>
    <path class="cls-12" d="m346.82,120.02c.03.07.06.14.09.21l.29.66c.13.3.26.59.39.89.14.33.29.66.43,1,.14.33.28.66.43.98.12.28.25.57.37.85.09.2.17.4.26.6l.1.23s.57,1.32,1.18,2.71c-.41.57-.88,1.31-1.34,2.2-.33.64-1.39,2.8-1.89,6.07-.34,2.25-.99,6.49,1.04,11.23.53,1.24,1.92,4.38,5.28,6.89.62.47,3.07,2.23,6.78,2.94.72.14,3.84.69,7.63-.28.86-.22,2.33-.61,4.04-1.61,2.09-1.23,3.31-2.67,3.58-2.99.8-.97,2.39-2.89,2.35-5.41,0-.12,0-.22-.01-.29-.44.39-1.08.96-1.86,1.62-1.92,1.62-3.8,3.19-5.41,4.14-.7.41-4.61,2.71-9.51,1.84-.77-.14-4.24-.83-7.11-3.76-4-4.08-4.72-10.34-3.11-15.28,1.93-5.92,7.06-9.43,10.7-10.27,3.32-.78,6.31-.04,6.31-.04.21.05.9.24,1.78.58,9.27,3.64,10.06,13.44,6.98,18.9-.16.28-.33.54-.51.79,1.75-.56,3.19-2.13,3.61-3.87l.02-.07c.96-4.41-.23-9.11-2.85-12.69-3.17-4.33-8.9-7-15.52-6.65-.85.04-2.59.2-4.62,1.01-.85-1.15-1.96-2.05-3.23-2.63-.24-.11-.5-.21-.76-.29-.36-.12-.72-.19-1.09-.26-.23-.04-.49-.09-.73-.11-.69-.06-1.35-.04-2.04-.01-.35.01-.74.02-1.09.04-.35.02-.64.02-.99.03,0,.03.04.1.05.12Z"/>
    <g>
      <path class="cls-14" d="m486.72,179.4l1.95-1.36-2.2.32-.1-.15,1.04-1.94-1.94,1.35-.22-.31,2.68-1.87.18.27-1.22,2.26,2.53-.38.18.27-2.67,1.87-.22-.31Z"/>
      <path class="cls-14" d="m489.99,182.66l-.84-1.2-.84.22-.23-.33,3.39-.84.22.32-1.96,2.9-.24-.34.5-.72Zm.23-.33l.97-1.4-1.65.43.68.98Z"/>
      <path class="cls-14" d="m491.93,186.86l.48-1.06c-.05-.06-.08-.1-.11-.14l-.39-.56-.81.57-.23-.32,2.68-1.87.62.88c.2.29.28.58.23.87s-.22.53-.51.73c-.21.14-.41.22-.62.24-.21.02-.4-.03-.57-.15l-.52,1.16-.25-.35Zm1.18-1.08c.18.03.37-.02.56-.15s.3-.29.33-.47-.03-.37-.17-.58l-.38-.55-1.2.84.38.55c.14.2.3.32.48.36Z"/>
      <path class="cls-14" d="m494.8,191.49c-.15,0-.29-.03-.41-.09-.12-.06-.22-.15-.3-.26-.1-.14-.15-.3-.16-.48,0-.18.03-.42.11-.71-.14-.22-.2-.46-.2-.72s.07-.5.21-.74c.14-.24.33-.44.57-.61s.53-.29.81-.33c.28-.04.55-.01.79.09.25.1.45.26.61.49s.24.47.25.74c0,.27-.05.52-.19.77-.14.25-.33.46-.59.64-.22.15-.45.26-.68.31-.24.05-.46.06-.68,0-.22-.05-.41-.14-.58-.28-.04.14-.06.26-.05.36,0,.1.04.19.09.26.11.16.28.24.52.25l-.11.3Zm-.39-2.81c-.1.19-.15.38-.15.57,0,.2.07.38.18.54s.26.28.45.35c.18.07.38.09.59.06s.41-.12.61-.25.34-.3.45-.48c.1-.19.15-.38.15-.57,0-.2-.06-.38-.18-.54s-.27-.28-.45-.36c-.18-.07-.38-.09-.59-.06-.21.03-.41.12-.61.25s-.34.3-.45.48Z"/>
      <path class="cls-14" d="m497.69,194.4l-.33.23-1.15-1.64,2.68-1.87,1.11,1.6-.33.23-.89-1.27-.82.57.79,1.13-.32.23-.79-1.13-.86.6.92,1.32Z"/>
      <path class="cls-14" d="m502.66,196.53l-2.68,1.87-.19-.27,1.05-2.75-2,1.39-.23-.32,2.68-1.87.19.27-1.05,2.75,2-1.39.23.32Z"/>
      <path class="cls-14" d="m504.02,199.18l-.54-.78.33-.23,1.31,1.87-.33.23-.54-.78-2.34,1.64-.22-.32,2.34-1.64Z"/>
      <path class="cls-14" d="m506.26,201.69l.23.32-2.68,1.87-.23-.32,2.68-1.87Z"/>
    </g>
    <g>
      <path class="cls-17" d="m317.39,348.3v-8.24s-3.47,6.87-3.47,6.87h-.63l-3.46-6.82v8.19h-1.31v-11.31h1.12l3.99,7.95,3.93-7.95h1.12v11.31s-1.3,0-1.3,0Z"/>
      <path class="cls-17" d="m333.12,345.48h-5.08l-1.05,2.83h-1.41l4.33-11.31h1.35l4.34,11.31h-1.43l-1.05-2.83Zm-.48-1.29l-2.06-5.54-2.06,5.54h4.12Z"/>
      <path class="cls-17" d="m348.88,348.3l-2.06-3.47c-.25.02-.46.03-.6.03h-2.36v3.44h-1.37v-11.31h3.73c1.24,0,2.21.35,2.92,1.05s1.07,1.66,1.07,2.89c0,.87-.18,1.62-.55,2.23-.36.61-.88,1.06-1.56,1.34l2.27,3.8h-1.49Zm-.72-5.48c.46-.44.68-1.07.68-1.89s-.23-1.45-.68-1.88-1.12-.65-1.98-.65h-2.32v5.09h2.32c.86,0,1.52-.22,1.98-.66Z"/>
      <path class="cls-16" d="m367.72,349.34c-.31.43-.67.76-1.08.99-.41.23-.85.34-1.33.34-.6,0-1.16-.17-1.69-.51-.52-.34-1.12-.92-1.8-1.74-.9-.05-1.71-.34-2.44-.86s-1.29-1.2-1.69-2.06c-.41-.86-.61-1.81-.61-2.85s.22-2.07.66-2.96c.44-.88,1.05-1.58,1.82-2.08.77-.5,1.64-.75,2.61-.75s1.82.25,2.59.75c.77.5,1.38,1.19,1.82,2.07.44.88.65,1.87.65,2.96,0,.93-.16,1.78-.47,2.55-.32.77-.76,1.43-1.33,1.95-.57.53-1.22.89-1.96,1.1.32.4.63.69.92.86.3.18.6.27.91.27.67,0,1.26-.32,1.75-.97l.64.92Zm-8.77-4.47c.32.66.77,1.18,1.34,1.56.57.38,1.2.57,1.91.57s1.32-.19,1.88-.57c.56-.38,1.01-.9,1.33-1.56s.48-1.4.48-2.22-.16-1.56-.48-2.22c-.32-.66-.77-1.18-1.33-1.56-.56-.38-1.19-.57-1.88-.57s-1.34.19-1.91.57c-.57.38-1.02.9-1.34,1.56-.32.66-.48,1.4-.48,2.22s.16,1.56.48,2.22Z"/>
      <path class="cls-17" d="m381.75,346.9v1.41h-6.94v-11.31h6.75v1.41h-5.38v3.47h4.79v1.37h-4.79v3.65h5.57Z"/>
      <path class="cls-17" d="m397.64,336.99v11.31h-1.12l-5.73-8.43v8.43h-1.37v-11.31h1.12l5.73,8.43v-8.43h1.37Z"/>
      <path class="cls-17" d="m407.87,338.4h-3.28v-1.41h7.91v1.41h-3.28v9.9h-1.35v-9.9Z"/>
      <path class="cls-17" d="m419.45,336.99h1.37v11.31h-1.37v-11.31Z"/>
    </g>
  </g>
</svg>